<svg xmlns="http://www.w3.org/2000/svg" xmlns:xlink="http://www.w3.org/1999/xlink" viewBox="0 0 42.58 55.71"><defs><style>.cls-1{isolation:isolate;}.cls-2,.cls-3,.cls-4,.cls-5{fill-rule:evenodd;}.cls-2{fill:url(#Áåçûìÿííûé_ãðàäèåíò_644);}.cls-3{fill:url(#Áåçûìÿííûé_ãðàäèåíò_654);}.cls-4{opacity:0.2;mix-blend-mode:multiply;fill:url(#Áåçûìÿííûé_ãðàäèåíò_322);}.cls-5{fill:#c39ecb;mix-blend-mode:soft-light;}</style><linearGradient id="Áåçûìÿííûé_ãðàäèåíò_644" x1="21.29" y1="55.71" x2="21.29" gradientUnits="userSpaceOnUse"><stop offset="0" stop-color="#3d2887"/><stop offset="0.26" stop-color="#311b7a"/><stop offset="0.65" stop-color="#240e6d"/><stop offset="1" stop-color="#200969"/></linearGradient><linearGradient id="Áåçûìÿííûé_ãðàäèåíò_654" y1="30.33" x2="42.58" y2="30.33" gradientUnits="userSpaceOnUse"><stop offset="0" stop-color="#01003e"/><stop offset="1" stop-color="#1b0531"/></linearGradient><linearGradient id="Áåçûìÿííûé_ãðàäèåíò_322" x1="16.19" y1="18.41" x2="42.58" y2="18.41" gradientUnits="userSpaceOnUse"><stop offset="0" stop-color="#967cff"/><stop offset="1" stop-color="#4513b5"/></linearGradient></defs><g class="cls-1"><g id="Layer_2" data-name="Layer 2"><g id="Layer_1-2" data-name="Layer 1"><path class="cls-2" d="M42.58,26.76l-.1.34-2.81,9.07L26,44v7.45l-6.12,4.22L12.38,39.22l-1.69-3.71-2.1-4.64L5.3,23.58,0,11.88,3.36,5,14.58,0l1.61,2.19L33.25,0a45.79,45.79,0,0,1,5.57,11.23A81.2,81.2,0,0,1,41.64,21.4c.29,1.38.5,2.56.65,3.46C42.49,26.06,42.58,26.76,42.58,26.76Z"/><path class="cls-3" d="M3.36,5,12,32.08l5.4,13.78L22,43l2.92.07.51-6.2s10.13-7.43,17.2-10.06l-2.91,9.41L26,44V51.5l-6.13,4.21L0,11.89Z"/><path class="cls-4" d="M16.19,2.19l9.19,34.63,17.2-10.06S39.89,7.36,33.25,0Z"/><path class="cls-5" d="M41.64,21.4l-3,.21a123.38,123.38,0,0,0-17.16,2,32.72,32.72,0,0,0-3.37.88,21.45,21.45,0,0,0-9.48,6.38L5.3,23.58a7.26,7.26,0,0,1,1.83-3.46,6.14,6.14,0,0,1,2.72-1.23l29-7.66A81.2,81.2,0,0,1,41.64,21.4Z"/><path class="cls-5" d="M42.58,26.76l-.1.34q-3.3.07-6.58.44a42.23,42.23,0,0,0-12.36,3,28.79,28.79,0,0,0-11.16,8.71l-1.69-3.71a19.4,19.4,0,0,1,5.16-4.61,30.48,30.48,0,0,1,7.81-3.27,70,70,0,0,1,18.63-2.77C42.49,26.06,42.58,26.76,42.58,26.76Z"/></g></g></g></svg>