<svg xmlns="http://www.w3.org/2000/svg" xmlns:xlink="http://www.w3.org/1999/xlink" viewBox="0 0 33.54 26.54"><defs><style>.cls-1,.cls-2,.cls-3,.cls-4,.cls-5{fill-rule:evenodd;}.cls-1{fill:url(#Áåçûìÿííûé_ãðàäèåíò_644);}.cls-2{fill:url(#Áåçûìÿííûé_ãðàäèåíò_654);}.cls-3{fill:url(#Áåçûìÿííûé_ãðàäèåíò_654-2);}.cls-4{fill:url(#Áåçûìÿííûé_ãðàäèåíò_640);}.cls-5{fill:url(#Áåçûìÿííûé_ãðàäèåíò_640-2);}</style><linearGradient id="Áåçûìÿííûé_ãðàäèåíò_644" x1="16.77" y1="26.54" x2="16.77" gradientUnits="userSpaceOnUse"><stop offset="0" stop-color="#3d2887"/><stop offset="0.26" stop-color="#311b7a"/><stop offset="0.65" stop-color="#240e6d"/><stop offset="1" stop-color="#200969"/></linearGradient><linearGradient id="Áåçûìÿííûé_ãðàäèåíò_654" y1="22.96" x2="23.92" y2="22.96" gradientUnits="userSpaceOnUse"><stop offset="0" stop-color="#01003e"/><stop offset="1" stop-color="#1b0531"/></linearGradient><linearGradient id="Áåçûìÿííûé_ãðàäèåíò_654-2" x1="22.09" y1="18.97" x2="29.46" y2="18.97" xlink:href="#Áåçûìÿííûé_ãðàäèåíò_654"/><linearGradient id="Áåçûìÿííûé_ãðàäèåíò_640" x1="21" y1="19.38" x2="21" gradientUnits="userSpaceOnUse"><stop offset="0" stop-color="#6389fd"/><stop offset="1" stop-color="#5234dd"/></linearGradient><linearGradient id="Áåçûìÿííûé_ãðàäèåíò_640-2" x1="31.21" y1="21.45" x2="31.21" y2="6.56" xlink:href="#Áåçûìÿííûé_ãðàäèåíò_640"/></defs><g id="Layer_2" data-name="Layer 2"><g id="Layer_1-2" data-name="Layer 1"><path class="cls-1" d="M2.62,5.54,0,23.2l7,3.34L23.92,23.2l1-1.75h4.52l2.81-3.8,1.27-9.56L30.33,6.56l-6.85-1L23.33,2,19,0S7.87,1,2.62,5.54Z"/><path class="cls-2" d="M0,23.2s6.13-3.94,18.52-3.82l5.4,3.82L7,26.54Z"/><path class="cls-3" d="M22.09,17.79l2.85,3.66h4.52l-.59-5S24.35,17.21,22.09,17.79Z"/><polygon class="cls-4" points="18.96 0 18.52 19.38 22.09 17.79 23.48 5.54 23.33 2.04 18.96 0"/><polygon class="cls-5" points="30.33 6.56 28.88 16.48 29.46 21.45 32.27 17.65 33.54 8.09 30.33 6.56"/></g></g></svg>