<svg xmlns="http://www.w3.org/2000/svg" xmlns:xlink="http://www.w3.org/1999/xlink" viewBox="0 0 117.55 78.65"><defs><style>.cls-1{isolation:isolate;}.cls-10,.cls-11,.cls-12,.cls-13,.cls-14,.cls-15,.cls-2,.cls-3,.cls-4,.cls-5,.cls-6,.cls-7,.cls-8,.cls-9{fill-rule:evenodd;}.cls-2{fill:url(#Áåçûìÿííûé_ãðàäèåíò_644);}.cls-3{fill:url(#Áåçûìÿííûé_ãðàäèåíò_640);}.cls-4{fill:url(#Áåçûìÿííûé_ãðàäèåíò_659);}.cls-5{fill:url(#Áåçûìÿííûé_ãðàäèåíò_659-2);}.cls-6{fill:url(#Áåçûìÿííûé_ãðàäèåíò_659-3);}.cls-7{fill:url(#Áåçûìÿííûé_ãðàäèåíò_654);}.cls-8{fill:#756ac9;}.cls-11,.cls-9{opacity:0.5;mix-blend-mode:multiply;}.cls-9{fill:url(#Áåçûìÿííûé_ãðàäèåíò_27);}.cls-10{fill:#c39ecb;mix-blend-mode:soft-light;}.cls-11{fill:url(#Áåçûìÿííûé_ãðàäèåíò_322);}.cls-12{fill:url(#Áåçûìÿííûé_ãðàäèåíò_654-2);}.cls-13{fill:#756aba;}.cls-14{fill:url(#Áåçûìÿííûé_ãðàäèåíò_654-3);}.cls-15{fill:#7551ba;}</style><linearGradient id="Áåçûìÿííûé_ãðàäèåíò_644" x1="58.77" y1="78.65" x2="58.77" gradientUnits="userSpaceOnUse"><stop offset="0" stop-color="#3d2887"/><stop offset="0.26" stop-color="#311b7a"/><stop offset="0.65" stop-color="#240e6d"/><stop offset="1" stop-color="#200969"/></linearGradient><linearGradient id="Áåçûìÿííûé_ãðàäèåíò_640" x1="26.47" y1="78.52" x2="26.47" y2="8.9" gradientUnits="userSpaceOnUse"><stop offset="0" stop-color="#6389fd"/><stop offset="1" stop-color="#5234dd"/></linearGradient><linearGradient id="Áåçûìÿííûé_ãðàäèåíò_659" x1="47.54" y1="40.05" x2="47.54" y2="24.14" gradientUnits="userSpaceOnUse"><stop offset="0" stop-color="#240061"/><stop offset="1" stop-color="#1b0531"/></linearGradient><linearGradient id="Áåçûìÿííûé_ãðàäèåíò_659-2" x1="20.13" y1="47.02" x2="117.54" y2="47.02" xlink:href="#Áåçûìÿííûé_ãðàäèåíò_659"/><linearGradient id="Áåçûìÿííûé_ãðàäèåíò_659-3" x1="56.91" y1="78.52" x2="56.91" y2="69.18" xlink:href="#Áåçûìÿííûé_ãðàäèåíò_659"/><linearGradient id="Áåçûìÿííûé_ãðàäèåíò_654" x1="83.35" y1="28.64" x2="83.35" y2="0.06" gradientUnits="userSpaceOnUse"><stop offset="0" stop-color="#01003e"/><stop offset="1" stop-color="#1b0531"/></linearGradient><linearGradient id="Áåçûìÿííûé_ãðàäèåíò_27" x1="18.23" y1="35.71" x2="74.09" y2="35.71" gradientUnits="userSpaceOnUse"><stop offset="0" stop-color="#b77cbc"/><stop offset="1" stop-color="#451390"/></linearGradient><linearGradient id="Áåçûìÿííûé_ãðàäèåíò_322" x1="24.67" y1="48.17" x2="110.73" y2="48.17" gradientUnits="userSpaceOnUse"><stop offset="0" stop-color="#967cff"/><stop offset="1" stop-color="#4513b5"/></linearGradient><linearGradient id="Áåçûìÿííûé_ãðàäèåíò_654-2" x1="5.25" y1="15.73" x2="98" y2="15.73" xlink:href="#Áåçûìÿííûé_ãðàäèåíò_654"/><linearGradient id="Áåçûìÿííûé_ãðàäèåíò_654-3" x1="95.43" y1="35.28" x2="95.43" y2="32.14" xlink:href="#Áåçûìÿííûé_ãðàäèåíò_654"/></defs><g class="cls-1"><g id="Layer_2" data-name="Layer 2"><g id="Layer_1-2" data-name="Layer 1"><path class="cls-2" d="M117.55,32.14s-3,3.24-6.82,6.72a54.88,54.88,0,0,1-9.08,7L98.16,47.6,69.57,61.89l-1.6,3-1.25,2.32-1.09,2-6.86,9.34s-7.14.29-10.57,0l-9-10.2L34,62.37,30.7,58.61l-3.35-1.1-2.68-.88-4.54-1.49-8.83-8.3L9.42,45.08,7.69,43.45,4,40,0,36.22s3.07-3.79,5.25-4.81l3.8-7.73S24.5,9.24,32.67,5.45A268.67,268.67,0,0,1,91,.06l1.61,8.31L98,7.79l7.6,9.47,5.32,6.63,5.15,6.41,0,0,.32.4Z"/><path class="cls-3" d="M26.94,8.9l4.27,21,11.38,9.37.58,3.47L42,50.37,52.94,71.08,48.2,78.52,30.7,58.61,20.13,55.14,0,36.22l5.6-5.61L9,23.68S22.85,11.51,26.94,8.9Z"/><path class="cls-4" d="M18.23,39.32l13-9.37,45.65-5.81-2.77,4.5L42.59,39.32S28.44,41,18.23,39.32Z"/><polygon class="cls-5" points="20.13 55.14 43.17 42.79 68.4 36.81 117.55 32.14 101.65 45.85 69.57 61.89 42 50.37 31.8 58.61 20.13 55.14"/><path class="cls-6" d="M48.2,78.52l4.74-7.44,12.69-1.9s-3.94,7-6.86,9.34Z"/><polygon class="cls-7" points="74.09 28.64 92.61 8.37 91 0.06 76.86 24.14 74.09 28.64"/><polygon class="cls-8" points="29.8 30.97 30.82 28.03 36.05 29.5 29.8 30.97"/><polygon class="cls-8" points="51.99 69.28 51.19 74.34 54.59 70.83 51.99 69.28"/><polygon class="cls-9" points="18.23 39.32 43.17 42.79 68.4 36.81 74.09 28.64 42.59 39.32 18.23 39.32"/><path class="cls-10" d="M110.92,23.89a12.63,12.63,0,0,1-3-1.63A57.89,57.89,0,0,0,89.9,14a17.46,17.46,0,0,1-4.65-1.68,8.24,8.24,0,0,0-1.88-1,5.54,5.54,0,0,0-2.46.06c-15.71,2.6-32.5-.48-47.21,5.63a17.41,17.41,0,0,0-4.82,2.78c-2.57,2.2-4,5.45-6.38,7.88-2,2.06-4.56,3.46-6.82,5.21a24.41,24.41,0,0,0-7.47,9.13,16,16,0,0,0-.52,1.53L4,40c5.6-5.33,12.26-9.53,17.17-15.56,2.85-3.5,5.41-7.4,9.21-9.82,3.22-2.05,7-2.87,10.81-3.52,13.42-2.3,27.07-2.91,40.68-3.51a18.28,18.28,0,0,1,4.25.15,16.27,16.27,0,0,1,3.18,1.06,106.35,106.35,0,0,1,16.33,8.5Z"/><path class="cls-10" d="M116.83,31.63c-9.62-.61-18.18-6-27.35-9-15.69-5.08-32.7-2.83-49-.52a27,27,0,0,0-7.39,1.76A24.75,24.75,0,0,0,26,29.24c-1.59,1.57-10,12.3-14.69,17.6L9.42,45.08A23.22,23.22,0,0,0,13.93,41C18.3,36.07,23,31.34,27.11,26.23A14,14,0,0,1,30.7,23a13.55,13.55,0,0,1,3.7-1.18A281.37,281.37,0,0,1,77.76,16a3.91,3.91,0,0,1,2.64.49c.68.52.95,1.41,1.51,2.05,1.55,1.75,4.34.94,6.67,1,3.11.12,5.81,2.06,8.49,3.64a42.55,42.55,0,0,0,14.39,5.3c1.62.29,3.53.7,4.61,1.79l0,0,.32.4A2.65,2.65,0,0,1,116.83,31.63Z"/><path class="cls-10" d="M68,64.85l-1.25,2.32a43.12,43.12,0,0,0-16-5.59,9.4,9.4,0,0,0-5.24.39,9.89,9.89,0,0,0-3.06,2.6q-1.62,1.83-3.14,3.75L34,62.37c3.58-2,7.71-4.56,11.54-4.64a16,16,0,0,1,3.76.5L60.47,60.6a14.42,14.42,0,0,1,5.74,2.12A5.88,5.88,0,0,1,68,64.85Z"/><path class="cls-11" d="M110.73,38.86a54.88,54.88,0,0,1-9.08,7L98.16,47.6c-4-3.13-9.86-3.06-15.07-2.75l-17.1,1c-8,.48-16.11,1-23.79,3.3a37.57,37.57,0,0,0-14.85,8.34l-2.68-.88a88.07,88.07,0,0,1,8.86-5c4.34-2.52,8.72-5.07,13.52-6.54,8.09-2.48,16.75-1.74,25.19-2.23C85.12,42.15,97.91,38.47,110.73,38.86Z"/><polygon class="cls-12" points="9.04 23.68 10.43 28.5 29.68 22.4 36.05 17.15 50.99 18.81 83.42 9.6 87.67 8.9 91 0.06 92.61 8.37 98 7.79 86.3 10.76 52.17 19.42 37.96 21.12 29.8 23.61 10.5 29.81 5.25 31.41 9.04 23.68"/><polygon class="cls-13" points="92.61 8.37 86.6 10.14 57.45 17.78 52.17 19.42 37.96 21.12 29.8 23.61 9.42 29.81 5.25 31.41 2.62 33.59 27.8 25.47 29.8 24.14 38.28 22.08 47.55 20.49 53.71 21.33 63.74 16.95 87.05 11.39 98 7.79 92.61 8.37"/><polygon class="cls-14" points="87.94 34.92 97.97 32.14 102.92 33.53 94.98 35.28 87.94 34.92"/><polygon class="cls-15" points="87.94 34.92 95.43 34.24 102.92 33.53 94.98 35.87 87.94 34.92"/></g></g></g></svg>