<svg xmlns="http://www.w3.org/2000/svg" xmlns:xlink="http://www.w3.org/1999/xlink" viewBox="0 0 33.29 35.53"><defs><style>.cls-1{isolation:isolate;}.cls-2,.cls-3,.cls-4,.cls-5{fill-rule:evenodd;}.cls-2{fill:url(#Áåçûìÿííûé_ãðàäèåíò_644);}.cls-3{fill:url(#Áåçûìÿííûé_ãðàäèåíò_654);}.cls-4{opacity:0.36;mix-blend-mode:multiply;fill:url(#Áåçûìÿííûé_ãðàäèåíò_322);}.cls-5{fill:url(#Áåçûìÿííûé_ãðàäèåíò_640);}</style><linearGradient id="Áåçûìÿííûé_ãðàäèåíò_644" x1="17.01" y1="19.26" x2="17.01" y2="-16.83" gradientTransform="translate(-0.33 15.73) rotate(2.24)" gradientUnits="userSpaceOnUse"><stop offset="0" stop-color="#3d2887"/><stop offset="0.26" stop-color="#311b7a"/><stop offset="0.65" stop-color="#240e6d"/><stop offset="1" stop-color="#200969"/></linearGradient><linearGradient id="Áåçûìÿííûé_ãðàäèåíò_654" y1="30.34" x2="25.24" y2="30.34" gradientUnits="userSpaceOnUse"><stop offset="0" stop-color="#01003e"/><stop offset="1" stop-color="#1b0531"/></linearGradient><linearGradient id="Áåçûìÿííûé_ãðàäèåíò_322" y1="17.72" x2="11.54" y2="17.72" gradientUnits="userSpaceOnUse"><stop offset="0" stop-color="#967cff"/><stop offset="1" stop-color="#4513b5"/></linearGradient><linearGradient id="Áåçûìÿííûé_ãðàäèåíò_640" x1="27.91" y1="32.28" x2="27.91" gradientUnits="userSpaceOnUse"><stop offset="0" stop-color="#6389fd"/><stop offset="1" stop-color="#5234dd"/></linearGradient></defs><g class="cls-1"><g id="Layer_2" data-name="Layer 2"><g id="Layer_1-2" data-name="Layer 1"><path class="cls-2" d="M0,28.45.64,12.06S8,8.84,11.54,7.67l.13-3.5L28.26,0l5,5.67L29.23,17.11l-4,15.17L13.08,35.53,8.88,31Z"/><polygon class="cls-3" points="0 27.78 9.19 25.15 10.17 29.97 22.53 26.47 25.25 32.28 13.08 35.53 8.88 30.99 0 28.45 0 27.78"/><polygon class="cls-4" points="11.54 7.67 9.19 25.15 0 27.78 0.64 12.06 11.54 7.67"/><polygon class="cls-5" points="22.53 26.47 22.53 11.45 28.26 0 33.29 5.67 28.4 20.29 25.25 32.28 22.53 26.47"/></g></g></g></svg>