<svg width="631" height="521" viewBox="0 0 631 521" fill="none" xmlns="http://www.w3.org/2000/svg">
<path d="M315.205 520.969C239.815 520.969 164.383 520.939 88.9935 521C78.8746 521 69.0484 519.897 59.3895 517.814C49.0615 515.609 39.6535 512.055 31.0399 507.369C23.7225 503.387 18.0777 498.271 13.4364 492.573C7.66609 485.528 4.07012 477.87 1.77038 469.875C0.18146 464.33 -0.153048 458.694 0.0560197 453.058C0.0978333 451.587 0.0560197 450.087 0.0560197 448.616C0.0560197 342.782 0.0560197 236.917 0.0560197 131.083C0.0560197 25.2484 0.139647 127.009 0.0560197 124.956C-0.362116 115.981 2.06307 107.343 6.11899 98.9189C9.71495 91.5059 15.0253 84.7974 22.0918 78.8548C27.5275 74.2906 34.1759 70.9517 41.2006 67.8885C49.6887 64.182 58.9713 62.1602 68.4212 60.4142C71.6826 59.8016 75.1114 59.5565 78.4983 59.3421C88.1572 58.7601 97.7743 59.097 107.433 59.097C253.655 59.0664 399.877 59.097 546.099 59.097C553.835 59.097 561.319 60.2304 568.762 61.7008C575.452 63.0486 581.892 64.7946 587.996 67.2452C593.056 69.2669 597.823 71.5643 602.255 74.2906C611.621 80.0494 617.977 87.3399 622.785 95.4574C626.047 101.002 628.179 106.791 629.643 112.703C630.354 115.644 630.646 118.677 630.646 121.709C630.646 156.844 630.646 191.98 630.604 227.115C630.604 245.831 630.521 264.547 630.646 283.264C630.646 286.449 630.981 289.666 630.939 292.851C630.939 294.965 630.521 297.079 630.521 299.223C630.521 352.768 630.521 406.313 630.521 459.858C630.521 464.912 629.141 469.844 627.385 474.715C625.378 480.229 622.702 485.589 618.855 490.582C614.464 496.188 609.405 501.365 602.548 505.561C596.819 509.084 590.547 511.964 583.815 514.322C576.372 516.895 568.511 518.458 560.483 519.744C552.622 521 544.636 520.939 536.691 520.939C462.89 520.939 389.089 520.939 315.288 520.939L315.205 520.969ZM624.667 290.156C624.667 246.29 624.667 202.425 624.667 158.56C624.667 152.035 624.709 145.51 624.834 138.986C624.96 131.236 625.67 123.455 624.416 115.705C623.705 111.264 622.576 106.914 620.611 102.687C616.555 93.8339 610.701 85.7777 601.46 79.253C595.397 74.9645 588.331 71.7481 580.637 69.175C568.219 65.009 555.173 62.9873 541.583 63.1405C532.635 63.2324 523.687 63.3549 514.697 63.3549C377.591 63.3549 240.484 63.3549 103.419 63.4162C96.1436 63.4162 88.9098 62.6504 81.6343 63.3243C76.9512 63.7531 72.2262 64.0594 67.6267 64.7946C59.5149 66.0812 51.9466 68.4705 44.5456 71.2274C35.1376 74.7501 27.5693 79.835 21.3809 85.9615C16.6978 90.5869 13.4782 95.8557 10.7603 101.308C8.50236 105.842 7.03888 110.528 6.32805 115.276C5.90992 118.125 5.15727 120.943 5.57541 123.854C5.95173 126.488 5.8681 129.184 5.8681 131.849C5.8681 238.816 5.8681 345.784 5.8681 452.782C5.8681 455.417 5.2409 457.99 5.74266 460.655C6.36987 464.085 6.57893 467.608 7.7079 470.978C10.6767 479.953 15.2762 488.377 23.2207 495.728C28.6983 500.783 35.0958 505.01 42.7477 508.165C57.8424 514.414 74.1078 517.355 91.4186 516.957C98.8615 516.773 106.304 516.742 113.747 516.742C207.535 516.742 301.323 516.742 395.111 516.742C488.898 516.742 497.805 516.742 549.193 516.712C553.793 516.712 558.351 516.007 562.825 515.333C568.135 514.506 573.194 513.128 578.212 511.627C586.7 509.084 594.436 505.653 601.084 501.058C606.269 497.475 610.492 493.278 613.879 488.652C621.238 478.636 625.001 467.945 624.96 456.581C624.96 448.218 624.625 439.855 624.625 431.493C624.625 384.411 624.625 337.329 624.625 290.248L624.667 290.156Z" fill="black"/>
<path d="M624.667 290.156C624.667 337.237 624.667 384.319 624.667 431.401C624.667 439.763 625.001 448.126 625.001 456.489C625.001 467.853 621.238 478.544 613.921 488.561C610.534 493.186 606.311 497.352 601.126 500.967C594.436 505.561 586.742 508.992 578.254 511.535C573.236 513.036 568.177 514.445 562.867 515.241C558.392 515.946 553.835 516.62 549.235 516.62C497.888 516.681 446.541 516.65 395.152 516.65C301.365 516.65 207.577 516.65 113.789 516.65C106.346 516.65 98.9033 516.681 91.4604 516.865C74.1496 517.263 57.8842 514.322 42.7895 508.073C35.1376 504.918 28.7401 500.691 23.2625 495.637C15.318 488.285 10.7185 479.83 7.7497 470.886C6.62073 467.516 6.41166 464.024 5.78446 460.563C5.2827 457.898 5.9099 455.325 5.9099 452.69C5.9099 345.723 5.9099 238.755 5.9099 131.757C5.9099 129.092 5.99353 126.396 5.61721 123.762C5.19907 120.852 5.95172 118.003 6.36985 115.185C7.03887 110.437 8.54416 105.75 10.8021 101.216C13.52 95.7944 16.7396 90.495 21.4227 85.8696C27.6111 79.7431 35.1794 74.6582 44.5874 71.1355C51.9884 68.3786 59.5149 65.9893 67.6685 64.7027C72.268 63.9675 76.993 63.6918 81.6761 63.2324C88.9516 62.5278 96.1854 63.3243 103.461 63.3243C240.568 63.263 377.674 63.263 514.739 63.263C523.687 63.263 532.635 63.1405 541.625 63.0486C555.173 62.8954 568.261 64.9171 580.679 69.0831C588.373 71.6562 595.439 74.8726 601.502 79.1611C610.743 85.6858 616.597 93.742 620.653 102.595C622.576 106.853 623.705 111.172 624.458 115.613C625.712 123.363 625.001 131.144 624.876 138.894C624.792 145.419 624.751 151.943 624.709 158.468C624.709 202.333 624.709 246.199 624.709 290.064L624.667 290.156ZM185.248 511.412C198.42 511.535 214.434 511.504 230.449 511.627C261.642 511.872 292.835 511.657 324.027 511.657C355.597 511.657 387.124 511.718 418.693 511.443C445.663 511.228 472.675 511.382 499.686 511.443C512.816 511.443 525.987 511.596 539.116 511.718C545.598 511.78 551.911 511.198 558.225 510.156C569.348 508.349 580.01 505.623 589.627 500.997C594.143 498.822 597.864 496.004 601.251 492.972C606.06 488.683 609.154 483.69 611.747 478.544C615.301 471.376 617.935 464.024 617.935 456.366C617.893 433.821 618.311 411.275 617.642 388.73C617.475 382.665 617.851 376.6 617.851 370.535C617.893 316.254 618.437 262.005 617.642 207.724C617.517 197.953 617.684 188.15 617.851 178.348C618.186 160.091 617.935 141.835 618.019 123.547C618.019 121.005 617.684 118.462 617.057 115.981C614.966 107.465 611.579 99.2865 605.684 91.6897C601.837 86.7273 596.652 82.6838 590.463 79.3755C582.937 75.3627 574.365 72.8509 565.501 71.0129C556.427 69.1444 547.228 67.9191 537.695 68.1335C530.963 68.256 524.231 68.1642 517.499 68.1948C512.272 68.1948 507.045 68.3786 501.861 68.3786C470.668 68.3786 439.475 68.5624 408.324 68.256C378.803 67.9497 349.283 68.1029 319.763 68.1642C281.336 68.256 242.909 68.0723 204.482 68.3786C177.471 68.593 150.459 68.6849 123.448 68.2254C111.74 68.011 100.074 68.1642 88.3662 68.1642C84.0594 68.1642 79.8363 68.7155 75.6549 69.2669C67.794 70.3084 60.2257 71.9319 52.9083 74.2906C46.1764 76.4961 39.8207 79.1305 34.4686 82.8982C28.4474 87.1255 24.2661 92.2104 21.0464 97.7549C15.7361 106.853 12.851 116.287 12.6419 126.182C12.5583 131.266 13.06 136.351 13.06 141.436C12.851 189.835 13.6036 238.234 12.6837 286.633C12.6419 289.88 13.0182 293.158 12.9764 296.374C12.8091 347.101 13.6036 397.828 12.6419 448.524C12.5164 453.977 12.6001 459.399 13.9799 464.759C16.196 473.306 19.7502 481.546 25.8968 489.051C28.8655 492.696 32.6706 495.79 37.1028 498.547C42.1623 501.702 47.9743 503.877 54.0791 505.745C65.536 509.268 77.4529 511.412 89.9552 511.504C96.5617 511.565 103.126 511.504 109.733 511.351C120.73 511.106 131.769 511.228 142.807 511.228C156.021 511.228 169.275 511.228 185.332 511.228L185.248 511.412Z" fill="#0058C1"/>
<path d="M185.248 511.412C169.192 511.412 155.937 511.412 142.724 511.412C131.685 511.412 120.646 511.29 109.649 511.535C103.043 511.688 96.4363 511.749 89.8715 511.688C77.4111 511.565 65.4942 509.452 53.9955 505.929C47.9325 504.06 42.1205 501.916 37.0192 498.73C32.587 495.974 28.7819 492.849 25.8132 489.234C19.6666 481.73 16.0706 473.489 13.8963 464.943C12.5165 459.582 12.4746 454.13 12.5583 448.708C13.52 397.981 12.7255 347.254 12.8928 296.558C12.8928 293.311 12.5165 290.064 12.6001 286.817C13.52 238.418 12.7673 190.019 12.9764 141.62C12.9764 136.535 12.4746 131.45 12.5583 126.365C12.7255 116.471 15.6525 107.006 20.9628 97.9387C24.1824 92.3636 28.3638 87.3093 34.385 83.082C39.7789 79.2836 46.0928 76.6493 52.8247 74.4744C60.1003 72.0851 67.7104 70.4922 75.5713 69.4507C79.7945 68.8993 84.0176 68.3479 88.2826 68.3479C99.9904 68.3479 111.698 68.2254 123.364 68.4092C150.376 68.8687 177.387 68.7768 204.399 68.5624C242.826 68.256 281.252 68.4092 319.679 68.3479C349.199 68.2867 378.72 68.1335 408.24 68.4398C439.433 68.7462 470.626 68.5624 501.777 68.5624C507.004 68.5624 512.189 68.3786 517.415 68.3786C524.147 68.3786 530.879 68.4398 537.611 68.3173C547.103 68.1335 556.344 69.3282 565.417 71.1967C574.282 73.0347 582.853 75.5159 590.38 79.5593C596.568 82.8676 601.753 86.9111 605.6 91.8735C611.496 99.4396 614.883 107.649 616.973 116.165C617.6 118.646 617.935 121.158 617.935 123.731C617.893 141.988 618.102 160.245 617.768 178.532C617.6 188.334 617.433 198.106 617.559 207.908C618.311 262.189 617.81 316.438 617.768 370.718C617.768 376.784 617.391 382.849 617.559 388.914C618.27 411.459 617.81 434.005 617.851 456.55C617.851 464.208 615.259 471.59 611.663 478.728C609.071 483.874 605.976 488.867 601.168 493.155C597.781 496.188 594.059 499.006 589.544 501.181C579.926 505.776 569.264 508.502 558.142 510.34C551.87 511.351 545.514 511.964 539.033 511.902C525.903 511.78 512.732 511.657 499.603 511.627C472.591 511.565 445.621 511.412 418.61 511.627C387.041 511.902 355.513 511.841 323.944 511.841C292.751 511.841 261.558 512.025 230.365 511.81C214.351 511.688 198.336 511.718 185.165 511.596L185.248 511.412ZM546.476 507.43C547.061 507.43 548.984 507.124 549.403 507.124C549.695 507.124 549.946 507.185 550.239 507.154C561.152 505.868 571.689 503.601 581.474 499.711C588.08 497.076 593.809 493.676 598.074 489.112C603.551 483.261 607.105 476.767 609.572 469.967C611.161 465.617 612.081 461.175 612.457 456.672C612.541 451.986 612.416 447.299 612.207 442.612C611.956 436.241 612.374 429.869 612.374 423.528C612.457 402.178 612.374 380.796 612.248 359.446C612.039 311.629 611.621 263.781 612.457 215.965C612.625 207.081 612.457 198.228 612.457 189.345C612.457 185.455 612.457 181.595 612.457 177.705C612.499 173.937 612.332 170.139 612.457 166.371C612.541 163.247 612.457 160.153 612.374 157.028C612.29 156.017 612.081 155.006 612.081 153.996C612.081 148.114 612.081 142.263 612.081 136.382C612.081 135.616 611.997 134.85 612.081 134.085C612.834 129.153 612.75 124.221 611.956 119.32C610.952 113.163 608.861 107.159 605.6 101.431C602.673 96.3151 599.244 91.3834 593.976 87.2786C588.373 82.9289 581.515 80.0494 574.114 77.752C562.95 74.3212 551.326 72.4527 539.242 72.2076C535.562 72.1463 531.925 72.5752 528.203 72.5446C502.195 72.3301 476.145 72.7896 450.137 72.2689C442.067 72.1157 433.997 72.4527 425.969 72.4527C350.161 72.422 274.353 72.8815 198.545 72.2689C187.088 72.177 175.589 72.177 164.132 72.4833C155.143 72.7283 146.153 72.5446 137.205 72.5446C119.685 72.5446 102.165 72.422 84.6867 72.6058C78.331 72.6671 72.1426 73.7698 66.0796 75.2402C62.3582 76.1592 58.6368 77.1088 55.0409 78.2421C45.3401 81.2747 37.1446 85.6551 31.4162 92.2717C28.1965 95.9782 25.6877 99.9297 23.6807 104.065C21.4228 108.721 19.8756 113.5 18.8721 118.37C18.4958 120.178 17.9522 122.016 17.9522 123.823C17.9522 126.028 18.2031 128.234 18.3285 130.409C18.6631 136.229 18.454 142.049 18.4958 147.839C18.4958 150.075 18.4122 152.28 18.4122 154.516C18.4122 252.325 18.4122 350.103 18.4122 447.912C18.4122 449.841 18.5794 451.771 18.0777 453.701C17.785 454.865 17.7432 456.152 18.4958 457.316C18.0359 459.184 18.8303 460.961 19.2066 462.799C20.921 470.824 24.0988 478.452 29.5346 485.559C31.6671 488.346 34.2177 490.98 37.2283 493.278C41.2006 496.31 46.0091 498.547 51.0686 500.507C57.1315 502.835 63.5708 504.397 70.1355 505.684C73.857 506.419 77.6202 507.093 81.5088 507.185C84.7285 507.614 87.9481 507.889 91.2096 507.859C94.471 507.859 97.6907 507.491 100.994 507.522C125.58 507.736 150.125 507.307 174.711 507.767C185.75 507.981 196.831 507.614 207.869 507.614C283.761 507.614 359.653 507.185 435.502 507.798C443.823 507.859 452.186 507.736 460.549 507.614C475.518 507.369 490.487 507.644 505.457 507.491C519.13 507.338 532.844 508.043 546.517 507.491L546.476 507.43Z" fill="#00265E"/>
<path d="M612.416 157.028C612.416 160.153 612.541 163.247 612.499 166.371C612.416 170.139 612.583 173.937 612.499 177.705C612.457 181.595 612.499 185.455 612.499 189.345C612.499 198.229 612.625 207.081 612.499 215.965C611.663 263.781 612.039 311.629 612.29 359.446C612.374 380.796 612.499 402.178 612.416 423.528C612.416 429.9 611.997 436.271 612.248 442.612C612.416 447.299 612.541 451.986 612.499 456.672C611.747 456.734 611.788 457.193 611.663 457.591C610.827 459.858 610.116 462.125 609.154 464.33C604.262 475.787 596.359 485.834 584.066 493.982C574.449 500.385 563.368 504.612 550.699 506.572C550.155 506.664 549.57 506.572 549.444 507.154C549.026 507.154 547.563 508.196 505.456 507.491C490.487 507.644 475.518 507.369 460.549 507.614C452.186 507.736 443.865 507.859 435.502 507.798C359.611 507.185 283.719 507.614 207.869 507.614C196.831 507.614 185.75 507.951 174.711 507.767C150.125 507.307 125.58 507.736 100.994 507.522C97.7325 507.522 94.471 507.828 91.2096 507.859C87.9481 507.859 84.7285 507.614 81.5088 507.185C81.4252 506.725 80.9652 506.695 80.4635 506.603C75.5713 505.623 70.8045 504.459 66.1214 503.05C54.2882 499.435 44.2111 494.074 36.2666 486.723C27.4021 478.513 22.0499 469.109 19.6248 458.817C19.4993 458.265 19.5411 457.561 18.4958 457.346C17.7431 456.182 17.785 454.896 18.0777 453.732C18.5794 451.802 18.4122 449.872 18.4122 447.942C18.4122 350.134 18.4122 252.356 18.4122 154.547C18.4122 152.311 18.454 150.105 18.4958 147.869C19.0812 147.777 19.2484 147.502 19.2484 147.103C19.2484 144.163 19.9175 141.253 20.0429 138.312C20.2101 134.085 21.4646 129.98 21.9245 125.783C22.3426 122.016 23.5134 118.309 24.2661 114.572C24.9351 111.141 25.8132 107.802 28.1965 104.708C31.3326 100.634 34.7194 96.6828 38.2318 92.7925C42.5804 87.9832 48.8106 84.9506 55.5008 82.3469C59.5149 80.7847 64.1144 80.1107 68.5048 79.1918C78.6237 77.0169 88.9098 76.2205 99.4887 76.2205C247.634 76.3124 395.78 76.2817 543.925 76.2817C545.807 76.2817 547.688 76.4043 549.486 76.7106C561.947 78.7629 573.905 81.7649 584.15 87.6463C588.916 90.3725 593.725 93.0375 597.195 96.744C600.791 100.573 602.464 105.015 604.095 109.426C606.102 114.817 607.147 120.331 607.942 125.875C608.527 129.888 609.154 133.932 609.614 137.944C609.823 139.629 609.781 141.283 610.032 142.968C610.576 146.705 610.952 150.442 610.743 154.21C610.701 155.252 610.409 156.599 612.374 157.151L612.416 157.028Z" fill="#43A9EE"/>
<path d="M612.416 157.028C610.45 156.477 610.743 155.129 610.785 154.088C610.994 150.32 610.576 146.583 610.074 142.846C609.823 141.191 609.865 139.507 609.656 137.822C609.196 133.778 608.527 129.766 607.983 125.753C607.189 120.208 606.144 114.695 604.136 109.303C602.464 104.892 600.833 100.481 597.237 96.6215C593.767 92.915 588.958 90.25 584.191 87.5238C573.905 81.6424 561.988 78.6404 549.528 76.5881C547.73 76.2818 545.848 76.1592 543.967 76.1592C395.821 76.1592 247.676 76.2205 99.5305 76.098C88.9516 76.098 78.6655 76.8944 68.5466 79.0693C64.1562 80.0189 59.5567 80.6622 55.5426 82.2244C48.8524 84.8281 42.6222 87.8607 38.2736 92.67C34.7613 96.5909 31.3744 100.512 28.2383 104.586C25.855 107.68 24.9769 111.019 24.3079 114.449C23.5552 118.187 22.4263 121.924 21.9663 125.661C21.5064 129.857 20.2101 133.962 20.0847 138.189C20.0011 141.13 19.3321 144.04 19.2902 146.981C19.2902 147.379 19.123 147.685 18.5376 147.747C18.5376 141.927 18.7048 136.106 18.3703 130.317C18.2449 128.142 18.0358 125.906 17.994 123.731C17.994 121.924 18.5376 120.086 18.9139 118.279C19.9174 113.408 21.4645 108.629 23.7225 103.973C25.7295 99.8379 28.1965 95.8864 31.458 92.1799C37.2283 85.594 45.3819 81.1829 55.0826 78.1503C58.7204 77.0169 62.4 76.0673 66.1214 75.1484C72.1844 73.678 78.3728 72.5753 84.7285 72.514C102.248 72.3302 119.768 72.4527 137.246 72.4527C146.236 72.4527 155.226 72.6365 164.174 72.3915C175.631 72.0852 187.13 72.0852 198.587 72.177C274.395 72.7897 350.203 72.3302 426.011 72.3608C434.081 72.3608 442.151 72.0239 450.179 72.177C476.187 72.6978 502.237 72.2689 528.245 72.4527C531.924 72.4527 535.604 72.0545 539.284 72.1158C551.368 72.3608 562.992 74.1988 574.156 77.6602C581.557 79.9576 588.415 82.8371 594.018 87.1868C599.286 91.2915 602.757 96.2233 605.642 101.339C608.903 107.067 610.952 113.071 611.997 119.228C612.792 124.129 612.876 129.061 612.123 133.993C611.997 134.759 612.123 135.524 612.123 136.29C612.123 142.172 612.123 148.022 612.123 153.904C612.123 154.915 612.332 155.925 612.416 156.936V157.028Z" fill="#43A9EE"/>
<path d="M549.403 507.154C549.528 506.603 550.113 506.664 550.657 506.572C563.327 504.612 574.407 500.385 584.024 493.982C596.276 485.834 604.22 475.787 609.112 464.33C610.074 462.094 610.785 459.827 611.621 457.591C611.747 457.193 611.705 456.734 612.457 456.672C612.081 461.175 611.119 465.617 609.572 469.967C607.105 476.767 603.551 483.261 598.074 489.112C593.809 493.707 588.08 497.076 581.474 499.711C571.689 503.601 561.194 505.868 550.239 507.154C549.988 507.185 549.695 507.154 549.403 507.124V507.154Z" fill="#43A9EE"/>
<path d="M18.4958 457.285C19.5411 457.499 19.4993 458.204 19.6248 458.755C22.0499 469.048 27.4021 478.452 36.2665 486.661C44.2111 494.013 54.2882 499.374 66.1214 502.988C70.8045 504.428 75.5713 505.592 80.4635 506.542C80.9652 506.634 81.4252 506.664 81.5088 507.124C77.6202 507.032 73.8569 506.327 70.1355 505.623C63.5708 504.336 57.0897 502.774 51.0685 500.446C46.0091 498.516 41.2424 496.249 37.2283 493.217C34.1759 490.919 31.6671 488.285 29.5346 485.497C24.0988 478.391 20.8792 470.763 19.2066 462.738C18.8303 460.9 18.0358 459.123 18.4958 457.254V457.285Z" fill="#43A9EE"/>
<path d="M106.048 102.825C106.048 94.7902 106.048 86.7555 106.048 78.7208C106.048 68.5218 105.901 58.3227 106.122 48.1534C106.195 43.9433 106.306 39.7332 106.453 35.4935C106.527 32.6769 109.288 30.4237 112.123 29.89C120.958 28.289 129.904 26.9845 138.666 25.2056C145.109 23.901 151.257 22.0332 157.442 20.1654C159.467 19.5427 161.529 18.9201 163.59 18.4161C172.978 16.0739 182.477 13.9689 192.049 12.19C200.479 10.6186 208.947 9.13618 217.415 7.77236C222.679 6.91256 227.981 6.34924 233.282 5.66733C237.7 5.07436 242.081 4.33315 246.499 3.94773C249.849 3.65124 253.162 3.20652 256.512 2.96933C260.194 2.7025 263.875 2.16883 267.557 1.84269C270.613 1.57586 273.668 1.42762 276.761 1.22008C282.762 0.834652 288.799 0.389927 294.8 0.182389C296.126 0.15274 297.451 0.00449887 298.776 0.00449887C308.569 0.0341472 318.399 -0.0547978 328.192 0.0637955C334.009 0.123092 339.862 0.360279 345.679 0.656762C351.312 0.953245 356.982 1.30903 362.614 1.84269C368.21 2.37636 373.806 2.93968 379.365 3.503C384.114 4.00702 388.864 4.54069 393.576 5.07436C398.951 5.66733 404.252 6.52713 409.591 7.32763C415.481 8.21708 421.372 9.10653 427.262 10.0849C431.385 10.7668 435.435 11.6563 439.558 12.3678C450.382 14.2653 460.948 16.7854 471.44 19.5427C476.263 20.8176 480.939 22.4186 485.762 23.6639C492.572 25.4428 499.604 26.5694 506.599 27.8146C510.98 28.6151 515.472 29.0302 519.779 30.0975C521.914 30.6312 524.639 33.3885 524.565 35.2267C524.307 41.275 524.97 47.2936 524.933 53.3418C524.933 78.0389 524.933 102.736 524.933 127.433C524.933 129.835 524.418 132.117 521.767 133.807C519.742 135.082 517.349 135.201 515.251 134.786C512.232 134.193 509.176 133.926 506.157 133.422C494.34 131.465 482.596 129.182 471.183 126.01C463.047 123.757 454.947 121.414 446.811 119.22C437.828 116.819 428.735 114.803 419.531 113.054C411.026 111.453 402.522 110 393.907 108.814C386.802 107.835 379.66 106.916 372.518 106.145C367.584 105.612 362.651 105.108 357.718 104.693C352.196 104.218 346.71 103.803 341.151 103.477C336.623 103.21 332.058 103.151 327.529 102.884C320.313 102.439 313.134 102.706 305.919 102.677C300.949 102.677 295.978 102.973 291.008 103.24C286.811 103.447 282.615 103.774 278.418 104.129C273.521 104.544 268.698 105.197 263.802 105.553C259.789 105.819 255.85 106.442 251.874 106.798C247.971 107.154 244.069 107.717 240.203 108.28C235.344 108.992 230.558 109.881 225.698 110.593C218.409 111.66 211.193 113.054 204.051 114.566C195.546 116.345 187.115 118.331 178.795 120.673C171.285 122.778 163.775 124.854 156.227 126.929C151.147 128.352 145.882 129.271 140.728 130.457C134.985 131.791 129.131 132.562 123.314 133.6C120.443 134.134 117.461 134.43 114.516 134.815C110.576 135.349 107.447 133.481 106.416 130.072C106.122 129.123 106.048 128.115 106.048 127.137C106.048 119.013 106.048 110.86 106.048 102.736V102.825ZM110.908 123.075C110.908 125.002 110.797 126.929 110.834 128.826C110.871 130.487 112.454 131.347 114.442 130.931C115.141 130.783 115.841 130.576 116.54 130.487C124.861 129.538 133.034 128.085 141.17 126.395C144.888 125.624 148.607 124.794 152.288 123.846C155.197 123.104 158.215 122.541 161.087 121.741C167.014 120.11 172.831 118.242 178.758 116.552C189.582 113.498 200.59 111.037 211.782 108.932C219.366 107.509 226.95 106.145 234.607 105.078C241.786 104.07 248.965 102.914 256.218 102.321C261.556 101.876 266.858 101.105 272.233 100.601C277.534 100.127 282.835 99.7118 288.174 99.4153C294.8 99.0299 301.427 98.7038 308.054 98.5259C317.884 98.2294 327.75 98.7038 337.543 99.1485C339.494 99.2374 341.445 99.2671 343.36 99.4153C349.14 99.8601 354.92 100.364 360.7 100.868C365.081 101.254 369.499 101.58 373.88 102.113C379.733 102.795 385.55 103.655 391.404 104.396C398.73 105.315 405.983 106.531 413.235 107.865C418.831 108.873 424.39 109.97 429.913 111.126C438.086 112.816 446.185 114.714 454.1 117.086C464.593 120.199 475.048 123.46 485.946 125.624C493.309 127.107 500.672 128.619 508.182 129.657C510.759 130.012 513.41 130.161 515.913 130.991C517.57 131.554 520.147 130.101 520.184 128.797C520.184 126.781 520.147 124.765 520.11 122.749C520.11 122.067 520.184 121.385 520.184 120.673C520.184 97.5475 520.184 74.4218 520.184 51.2961C520.184 50.4659 520.147 49.6358 520.11 48.8056C520.331 44.8624 520.037 40.9192 520.479 36.9463C520.773 34.278 518.895 33.4775 516.245 33.1513C511.937 32.6177 507.704 31.8468 503.433 31.1352C493.382 29.4453 483.663 26.9548 473.907 24.4347C462.31 21.4402 450.64 18.6236 438.748 16.3704C431.091 14.9176 423.396 13.6131 415.665 12.4271C410.032 11.5673 404.363 10.7965 398.693 9.99598C393.613 9.28442 388.532 8.60251 383.415 8.03919C379.255 7.56482 375.058 7.0608 370.861 6.76432C365.817 6.40854 360.847 5.75627 355.803 5.3412C351.606 5.01506 347.373 4.74823 343.176 4.4814C338.279 4.12562 333.346 3.94773 328.413 3.88843C322.154 3.79948 315.896 3.82913 309.674 3.88843C306.397 3.91808 303.121 3.94773 299.807 4.09597C293.77 4.3628 287.695 4.54069 281.657 5.04471C278.123 5.3412 274.515 5.37084 270.981 5.66733C265.238 6.17135 259.531 6.82361 253.825 7.41658C248.229 8.00955 242.633 8.51357 237.074 9.22513C230.042 10.1146 223.047 11.0633 216.089 12.19C207.548 13.5538 199.044 14.9769 190.576 16.6372C180.378 18.6533 170.254 20.9955 160.277 23.6342C154.976 25.0277 149.601 26.2729 144.336 27.7553C140.912 28.7041 137.231 29.0302 133.807 29.9493C130.346 30.8684 126.738 30.987 123.278 31.9061C120.48 32.6473 117.424 32.7955 114.479 33.1513C111.975 33.4478 110.503 34.6634 110.503 36.7388C110.503 38.1026 110.834 39.4664 110.834 40.8006C110.871 49.9619 110.908 59.1233 110.908 68.3142C110.908 68.5514 110.834 68.7886 110.834 69.0554C110.834 79.9364 110.834 90.7877 110.834 101.669C110.834 108.784 110.908 115.929 110.908 123.045V123.075Z" fill="black"/>
<path d="M520.11 48.8352C520.11 49.6654 520.184 50.4955 520.184 51.3257C520.184 74.4514 520.184 97.577 520.184 120.703C520.184 121.385 520.11 122.067 520.11 122.778C519.08 122.956 518.785 123.697 518.159 124.231C517.239 125.002 516.576 126.336 514.846 126.01C512.49 125.535 510.097 125.802 507.74 125.535C501.887 124.883 496.07 124.112 490.364 122.808C480.644 120.614 471.256 117.649 461.648 115.188C455.352 113.587 449.204 111.66 442.909 110.029C436.539 108.369 430.06 107.005 423.47 105.968C415.702 104.752 408.118 102.854 400.35 101.609C392.876 100.423 385.403 99.3559 377.856 98.5554C371.929 97.9328 366.001 97.4288 360.074 96.9544C354.257 96.5097 348.404 96.1836 342.587 95.8871C338.022 95.6499 333.457 95.3534 328.891 95.3238C319.577 95.2645 310.3 95.0866 300.985 95.472C293.659 95.7685 286.37 95.9464 279.043 96.4208C274.442 96.7172 269.803 96.9248 265.201 97.3695C259.09 97.9921 253.015 98.5554 246.94 99.3263C237.921 100.453 228.938 101.757 220.028 103.418C209.315 105.404 198.86 108.073 188.478 111.037C181.63 112.994 174.635 114.566 167.64 116.167C154.902 119.072 142.422 122.66 129.389 124.765C125.045 125.476 120.701 126.336 116.283 126.603C115.031 126.692 114.258 126.277 113.522 125.476C112.712 124.646 112.233 123.579 111.018 123.015C111.018 115.9 110.945 108.754 110.945 101.639C110.945 90.7579 110.945 79.9066 110.945 69.0257C110.945 68.7885 110.981 68.5513 111.018 68.2845C111.644 67.2468 111.497 66.0609 111.607 64.9935C112.233 58.6192 112.601 52.2448 113.19 45.9C113.485 42.7276 114 39.5553 115.546 36.5608C115.878 35.9085 116.32 35.6121 117.203 35.4638C122.173 34.6337 127.18 34.1 132.113 33.2698C139.292 32.0543 146.398 30.5718 153.282 28.5261C164.216 25.2648 175.15 21.9738 186.6 19.9577C201.473 17.319 216.457 15.0361 231.478 13.0793C243.038 11.5673 254.598 10.2627 266.232 9.10645C274.957 8.24665 283.682 7.38684 292.444 7.2386C303.894 7.03106 315.343 6.91247 326.793 7.38684C333.935 7.68333 341.077 7.89087 348.183 8.27629C354.22 8.60243 360.221 9.0175 366.222 9.46223C374.727 10.0848 383.194 10.915 391.625 11.923C403.627 13.3758 415.555 15.0954 427.336 17.4673C432.195 18.4457 437.276 18.4753 442.099 19.513C449.241 21.0251 456.383 22.5668 463.415 24.4346C475.601 27.6959 488.081 30.0678 500.341 33.2105C504.758 34.3372 509.287 35.1377 513.704 36.4126C517.055 37.3613 518.417 39.2588 518.822 41.8975C519.19 44.2101 519.742 46.5226 520.184 48.8352H520.11Z" fill="#00437F"/>
<path d="M110.945 123.075C112.159 123.668 112.638 124.706 113.448 125.536C114.184 126.307 114.957 126.722 116.209 126.662C120.664 126.396 124.971 125.506 129.315 124.824C142.311 122.719 154.828 119.132 167.567 116.226C174.561 114.625 181.556 113.054 188.404 111.097C198.786 108.132 209.241 105.493 219.955 103.477C228.864 101.817 237.847 100.513 246.867 99.3859C252.941 98.615 259.053 98.0517 265.127 97.4291C269.729 96.9547 274.368 96.7768 278.97 96.4803C286.259 96.006 293.585 95.8281 300.912 95.5316C310.226 95.1462 319.54 95.3241 328.818 95.3834C333.383 95.3834 337.948 95.7095 342.513 95.9467C348.33 96.2432 354.184 96.5693 360 97.014C365.928 97.4884 371.892 97.9924 377.782 98.615C385.329 99.4155 392.803 100.453 400.276 101.669C408.044 102.914 415.628 104.812 423.396 106.027C429.986 107.065 436.466 108.429 442.835 110.089C449.13 111.72 455.279 113.617 461.574 115.248C471.183 117.709 480.607 120.644 490.29 122.867C495.996 124.172 501.813 124.913 507.667 125.595C510.023 125.862 512.416 125.595 514.772 126.069C516.466 126.396 517.165 125.061 518.086 124.29C518.711 123.786 519.043 123.016 520.037 122.838C520.037 124.854 520.147 126.87 520.11 128.886C520.11 130.19 517.496 131.614 515.84 131.08C513.336 130.25 510.686 130.102 508.109 129.746C500.598 128.708 493.235 127.196 485.872 125.714C474.975 123.52 464.519 120.288 454.027 117.175C446.111 114.833 438.012 112.906 429.839 111.216C424.28 110.089 418.721 108.962 413.162 107.954C405.946 106.65 398.657 105.434 391.33 104.485C385.477 103.744 379.66 102.884 373.806 102.202C369.425 101.698 365.044 101.343 360.626 100.957C354.846 100.453 349.066 99.9492 343.286 99.5045C341.372 99.3562 339.384 99.3266 337.469 99.2376C327.64 98.7929 317.81 98.3185 307.98 98.615C301.354 98.7929 294.727 99.119 288.1 99.5045C282.799 99.801 277.46 100.216 272.159 100.69C266.821 101.194 261.519 101.965 256.144 102.41C248.855 103.033 241.713 104.159 234.534 105.167C226.876 106.264 219.292 107.628 211.708 109.022C200.553 111.097 189.508 113.587 178.685 116.641C172.757 118.302 166.941 120.199 161.013 121.83C158.142 122.63 155.086 123.193 152.215 123.935C148.533 124.883 144.815 125.714 141.096 126.484C132.96 128.204 124.787 129.627 116.467 130.576C115.767 130.665 115.068 130.872 114.368 131.021C112.38 131.436 110.834 130.546 110.76 128.916C110.687 126.988 110.797 125.091 110.834 123.164L110.945 123.075Z" fill="#003A66"/>
<path d="M520.11 48.8354C519.632 46.5228 519.116 44.2102 518.748 41.8977C518.306 39.259 516.981 37.3615 513.631 36.4127C509.25 35.1675 504.722 34.3373 500.267 33.2107C488.044 30.0976 475.527 27.6961 463.341 24.4348C456.346 22.567 449.167 21.0252 442.025 19.5132C437.202 18.4755 432.122 18.4458 427.262 17.4675C415.481 15.1252 403.516 13.4056 391.551 11.9232C383.12 10.8855 374.653 10.085 366.149 9.4624C360.148 9.01768 354.11 8.6026 348.109 8.27647C340.967 7.89104 333.825 7.65386 326.719 7.38702C315.27 6.9423 303.82 7.03124 292.371 7.23878C283.609 7.38702 274.883 8.24682 266.158 9.10662C254.561 10.2629 242.964 11.5674 231.404 13.0795C216.347 15.0363 201.4 17.3489 186.526 19.9579C175.077 21.974 164.143 25.265 153.209 28.5263C146.324 30.572 139.219 32.0544 132.04 33.27C127.106 34.1002 122.063 34.6338 117.13 35.464C116.209 35.6122 115.804 35.9087 115.473 36.561C113.927 39.5555 113.411 42.7278 113.117 45.9002C112.528 52.2746 112.159 58.649 111.534 64.9937C111.423 66.0907 111.534 67.247 110.945 68.2847C110.945 59.1233 110.945 49.962 110.871 40.771C110.871 39.4072 110.54 38.0434 110.54 36.7092C110.54 34.6338 112.012 33.4182 114.516 33.1218C117.461 32.766 120.517 32.5881 123.314 31.8765C126.775 30.9871 130.383 30.8388 133.844 29.9197C137.267 29.0303 140.949 28.7042 144.373 27.7258C149.637 26.2434 155.013 24.9981 160.314 23.6047C170.328 20.966 180.415 18.6237 190.613 16.6077C199.044 14.9473 207.585 13.5242 216.126 12.1604C223.084 11.0338 230.116 10.085 237.111 9.19557C242.67 8.48401 248.303 7.97999 253.862 7.38702C259.568 6.79405 265.275 6.14179 271.018 5.63777C274.552 5.31164 278.16 5.28199 281.694 5.01515C287.732 4.51113 293.77 4.33324 299.844 4.06641C303.121 3.91817 306.434 3.91817 309.711 3.85887C315.969 3.79957 322.228 3.76993 328.45 3.85887C333.383 3.94782 338.316 4.12571 343.213 4.45184C347.41 4.74832 351.643 4.98551 355.84 5.31164C360.884 5.69707 365.854 6.37898 370.898 6.73476C375.095 7.03124 379.292 7.53526 383.452 8.00964C388.569 8.57295 393.65 9.25487 398.73 9.96643C404.4 10.7373 410.069 11.5378 415.702 12.3976C423.433 13.5835 431.128 14.888 438.785 16.3408C450.677 18.5941 462.347 21.4107 473.944 24.4052C483.663 26.9253 493.419 29.4157 503.47 31.1057C507.74 31.8172 511.974 32.5584 516.282 33.1218C518.969 33.4479 520.81 34.2484 520.515 36.9168C520.074 40.86 520.368 44.8329 520.147 48.7761L520.11 48.8354Z" fill="#005C9B"/>
<path d="M70.6368 207.091C49.1451 208.987 29.2527 193.008 27.5823 170.268C26.0033 148.872 41.6166 129.659 63.6819 127.649C85.7471 125.639 105.509 141.537 107.149 164.618C108.662 185.959 93.3448 205.053 70.6368 207.091ZM66.3117 131.895C61.9784 132.228 52.4366 135.095 51.3145 135.597C47.8957 137.199 44.8427 139.443 42.2303 142.139C38.0471 146.484 34.842 151.447 33.1941 157.312C32.5018 159.833 31.8399 162.352 31.9593 165.014C31.6936 167.159 31.5497 169.292 31.9905 171.434C31.866 172.766 32.351 174.043 32.6476 175.276C34.3246 182.559 37.9632 188.773 43.4912 193.8C47.9497 197.88 53.1726 200.569 59.0494 202.001C65.3666 203.545 71.6449 203.312 77.8371 201.457C83.55 199.738 88.5922 196.728 92.7533 192.478C96.8312 188.327 99.859 183.442 101.562 177.848C102.723 174.055 103.412 170.151 102.988 166.165C102.924 165.464 102.858 164.732 102.794 164.031C102.813 161.203 102.045 158.507 101.189 155.85C98.0816 146.362 91.5865 139.825 82.9332 135.236C77.7351 132.483 72.0802 131.8 66.3089 131.865L66.3117 131.895Z" fill="black"/>
<path d="M102.838 164.063C102.902 164.764 102.969 165.495 103.033 166.196C102.5 166.428 102.578 166.944 102.462 167.353C99.4943 178.65 93.8298 188.012 83.6471 194.344C79.8944 196.682 75.9532 198.3 71.6793 198.965C62.1281 200.418 53.5412 197.944 46.0182 191.963C39.7869 187.002 35.5761 180.597 32.9838 173.062C32.7759 172.467 32.8008 171.727 32.0357 171.428C31.6253 169.285 31.7388 167.155 32.0046 165.012C32.9219 162.594 33.8418 160.206 34.82 157.783C36.3496 153.989 38.2119 150.471 41.2688 147.582C50.2151 139.151 60.7639 135.488 72.9208 137.33C83.4867 138.918 91.5723 144.663 97.5074 153.46C99.7444 156.758 101.247 160.43 102.866 164.03L102.838 164.063Z" fill="#E7981B"/>
<path d="M102.942 163.975C101.322 160.382 99.8185 156.717 97.5793 153.425C91.6081 144.648 83.5136 138.913 72.9652 137.323C60.7934 135.482 50.261 139.132 41.2711 147.548C38.2097 150.43 36.3443 153.94 34.8119 157.726C33.8597 160.111 32.9408 162.524 31.9914 164.939C31.8724 162.283 32.536 159.771 33.2301 157.256C34.8515 151.408 38.0908 146.426 42.2847 142.123C44.8993 139.403 47.9634 137.225 51.3854 135.598C53.7167 134.498 62.4284 131.809 66.4081 131.909C72.1916 131.876 77.853 132.528 83.0589 135.275C91.7253 139.855 98.2296 146.378 101.339 155.844C102.227 158.491 102.996 161.18 102.945 164.005L102.942 163.975Z" fill="#E99A1E"/>
<path d="M31.903 171.518C32.6689 171.817 32.6438 172.554 32.8519 173.149C35.443 180.638 39.6884 187.027 45.8988 192.013C53.433 198.012 62.0306 200.483 71.5918 199.005C75.8714 198.342 79.8487 196.726 83.5762 194.396C93.7736 188.08 99.4477 178.74 102.422 167.468C102.538 167.059 102.458 166.514 102.994 166.312C103.42 170.319 102.726 174.183 101.563 177.966C99.855 183.545 96.8209 188.417 92.7351 192.556C88.5354 196.798 83.5144 199.796 77.7915 201.509C71.6189 203.355 65.3023 203.62 58.972 202.047C53.0857 200.618 47.8518 197.904 43.3897 193.864C37.8814 188.815 34.2382 182.616 32.5324 175.384C32.2356 174.154 31.7807 172.878 31.8752 171.551L31.903 171.518Z" fill="#C94300"/>
<path d="M71.6216 157.09C71.3447 157.763 70.7774 158.278 69.9806 158.629C69.1534 158.982 68.0387 159.208 66.6391 159.335C65.2395 159.463 64.1027 159.444 63.226 159.246C62.3493 159.048 61.73 158.642 61.3348 157.998C60.9396 157.355 60.6716 156.762 60.5667 156.278C60.4591 155.763 60.3599 155 60.2664 153.959C60.1729 152.918 60.1346 152.149 60.1487 151.623C60.1628 151.097 60.2931 150.499 60.5728 149.856C61.1018 148.572 62.781 147.801 65.6411 147.54C68.5012 147.279 70.1992 147.741 70.9177 148.911C71.3434 149.551 71.6113 150.144 71.7162 150.628C71.8238 151.143 71.923 151.906 72.0165 152.947C72.11 153.989 72.1483 154.757 72.1342 155.283C72.1201 155.809 71.9594 156.41 71.6824 157.084L71.6216 157.09ZM61.5807 169.276C61.4872 168.235 61.4488 167.466 61.4629 166.94C61.477 166.414 61.6073 165.815 61.8815 165.111C62.416 163.889 64.098 163.149 66.9581 162.888C69.8181 162.626 70.6754 162.949 71.6238 163.604C72.4422 164.177 72.923 165.091 73.1021 166.402C73.1738 166.858 73.2619 167.499 73.3389 168.356L74.4197 180.391C74.5133 181.432 74.5516 182.2 74.5375 182.726C74.5234 183.253 74.3626 183.854 74.058 184.561C73.5844 185.777 71.9024 186.518 69.0423 186.779C66.1823 187.04 64.4538 186.581 63.7049 185.414C63.3401 184.768 63.0748 184.206 62.97 183.721C62.8651 183.237 62.7632 182.443 62.667 181.372L61.5807 169.276Z" fill="#FEFEFE"/>
<path d="M65.5713 147.524C68.4046 147.265 70.1355 147.724 70.8552 148.893C71.2815 149.533 71.55 150.125 71.655 150.609C71.7629 151.124 71.8624 151.887 71.9562 152.927C72.05 153.968 72.0886 154.736 72.0746 155.262C72.0606 155.788 71.8997 156.389 71.6226 157.062C71.3454 157.736 70.7775 158.251 69.9797 158.601C69.1515 158.955 68.0353 159.18 66.6339 159.308C65.2324 159.436 64.0941 159.417 63.2163 159.219C62.3384 159.022 61.7181 158.616 61.3223 157.973C60.9264 157.33 60.6579 156.737 60.5529 156.253C60.445 155.738 60.3455 154.976 60.2517 153.935C60.1579 152.895 60.1193 152.127 60.1333 151.601C60.1473 151.075 60.2777 150.476 60.5576 149.834C61.087 148.551 62.7684 147.78 65.6322 147.518M67.015 162.853C69.1781 162.656 70.7373 162.914 71.687 163.568C72.5066 164.141 72.9882 165.054 73.1679 166.365C73.2397 166.821 73.3282 167.461 73.4054 168.318L74.4901 180.347C74.584 181.388 74.6225 182.156 74.6085 182.682C74.5945 183.208 74.4336 183.809 74.1288 184.516C73.6548 185.732 71.9707 186.472 69.1069 186.734C66.243 186.996 64.5122 186.537 63.762 185.371C63.3966 184.725 63.1309 184.163 63.0258 183.679C62.9207 183.195 62.8185 182.402 62.7219 181.33L61.6317 169.24C61.5379 168.199 61.4993 167.431 61.5133 166.905C61.5274 166.379 61.6577 165.781 61.9321 165.077C62.467 163.855 64.1512 163.115 67.015 162.853ZM65.2679 143.478C60.7284 143.893 57.8946 145.509 56.7638 148.298L56.7693 148.359C56.3452 149.447 56.1316 150.485 56.0649 151.448C56.037 152.16 56.0893 153.081 56.1997 154.306C56.3101 155.53 56.4234 156.445 56.5782 157.141C56.7884 158.109 57.2146 159.089 57.8624 160.141C58.1863 160.667 58.6375 161.243 59.2688 161.771C58.8532 162.272 58.4736 162.831 58.1965 163.505L58.1438 163.602L58.0912 163.7C57.7003 164.816 57.484 165.823 57.4449 166.752C57.417 167.465 57.4693 168.386 57.5797 169.61L58.6699 181.701C58.7858 182.986 58.8991 183.902 59.0844 184.595C59.2891 185.502 59.6793 186.423 60.2606 187.419L60.2662 187.48C60.2966 187.477 60.3326 187.536 60.3326 187.536C61.9437 190.073 65.0204 191.15 69.438 190.746C73.8555 190.343 76.171 190.131 77.8257 185.999C78.3052 184.844 78.5465 183.773 78.6105 182.779C78.6384 182.067 78.5861 181.146 78.4757 179.922L77.391 167.892C77.3082 166.974 77.2419 166.239 77.1286 165.663C76.7555 162.889 75.4433 161.281 74.2582 160.401C74.815 159.764 75.1559 159.116 75.3832 158.57C75.835 157.449 76.079 156.408 76.1403 155.384C76.1682 154.672 76.1158 153.751 76.0054 152.526C75.895 151.302 75.7818 150.387 75.6269 149.691C75.414 148.692 74.9877 147.712 74.3095 146.663C72.7012 144.156 69.655 143.077 65.2069 143.483L65.2679 143.478Z" fill="black"/>
<path d="M234.12 81.5823C233.02 81.94 231.813 82.338 230.496 82.7763C229.18 83.2145 227.995 83.609 226.942 83.9596C226.684 82.456 226.432 80.9748 226.187 79.5159C225.95 78.243 225.689 76.9736 225.405 75.7078C225.168 74.4349 224.961 73.3443 224.785 72.4361L218.767 73.3703L218.899 83.454C217.925 83.7456 216.773 84.0882 215.443 84.4818C214.1 84.8306 212.849 85.1652 211.69 85.4854C210.268 85.8933 208.87 86.2976 207.494 86.6983C207.553 80.4675 207.617 74.3296 207.684 68.2847C207.697 65.7566 207.699 63.1132 207.691 60.3545C207.73 57.5887 207.752 54.8487 207.757 52.1347C207.795 49.3688 207.821 46.7218 207.834 44.1937C207.847 41.6657 207.828 39.353 207.778 37.2558C210.846 36.5455 213.948 35.7834 217.082 34.9694C220.262 34.1482 223.316 33.2296 226.245 32.2136C226.536 33.6653 226.912 35.4782 227.371 37.6522C227.864 39.7743 228.417 42.0976 229.03 44.622C229.643 47.1464 230.29 49.7826 230.97 52.5304C231.651 55.2783 232.318 57.9815 232.971 60.64C234.593 66.8437 236.305 73.4309 238.109 80.4016C236.792 80.8399 235.463 81.2334 234.12 81.5823ZM218.414 66.4083C218.599 66.3797 218.921 66.3296 219.382 66.258C219.876 66.1346 220.377 66.0335 220.884 65.9547C221.424 65.8241 221.925 65.723 222.386 65.6514C222.833 65.5351 223.143 65.4403 223.314 65.367C223.233 65.0988 223.122 64.6483 222.98 64.0154C222.871 63.3307 222.719 62.5824 222.524 61.7708C222.361 60.9072 222.178 59.9767 221.975 58.9791C221.772 57.9815 221.576 57.0062 221.386 56.0533C220.886 53.7452 220.378 51.2512 219.863 48.5712L218.527 42.6741L217.509 42.9022L217.65 48.9148L218.414 66.4083Z" fill="white"/>
<path d="M238.041 83.5319C238.13 76.7967 238.191 70.2746 238.223 63.9656C238.162 61.2628 238.106 58.4659 238.056 55.5751C238.052 52.6796 238.01 49.8346 237.932 47.0402C237.844 44.1999 237.737 41.5018 237.61 38.9458C237.475 36.344 237.296 34.0035 237.075 31.9243C237.687 31.9082 238.203 31.8787 238.62 31.8359C239.038 31.793 239.526 31.743 240.083 31.6859C240.733 31.6192 241.522 31.5383 242.45 31.4431C243.37 31.3021 244.289 31.1611 245.209 31.0201C246.128 30.8791 247.117 30.7309 248.176 30.5757C249.459 33.7137 250.65 36.7443 251.749 39.6677C252.776 42.2248 253.816 44.8506 254.87 47.5451C255.97 50.2348 256.919 52.5196 257.717 54.3996C257.721 53.4649 257.722 52.3905 257.719 51.1764C257.707 49.9166 257.708 48.6085 257.725 47.2523C257.741 45.8961 257.734 44.5423 257.703 43.1908C257.71 41.7888 257.722 40.4098 257.738 39.0535C257.799 36.0111 257.866 32.8748 257.938 29.6445L266.23 27.7432C266.036 34.9095 265.956 41.6905 265.989 48.0863C265.966 50.8445 265.952 53.6485 265.947 56.4982C265.979 59.2974 266.016 62.0027 266.059 64.614C266.092 67.1796 266.164 69.5777 266.273 71.8085C266.374 73.9936 266.476 75.8281 266.58 77.3121C266.441 77.3264 265.906 77.498 264.977 77.8269C264.084 78.1052 263.039 78.446 261.839 78.8492C260.687 79.2477 259.511 79.6485 258.312 80.0518C257.159 80.4502 256.304 80.7949 255.745 81.0857C254.743 77.4518 253.753 74.0034 252.777 70.7405C252.357 69.3356 251.909 67.9102 251.434 66.4642C250.996 64.9677 250.548 63.5423 250.091 62.1879C249.634 60.8336 249.195 59.5707 248.774 58.3995C248.353 57.2282 247.964 56.2172 247.606 55.3664C247.639 56.2505 247.652 57.2768 247.646 58.4451C247.64 59.6134 247.648 60.8504 247.669 62.1561C247.691 63.4617 247.725 64.8361 247.774 66.2791C247.813 67.6763 247.82 69.0301 247.795 70.3405C247.798 73.4697 247.782 76.7411 247.746 80.1545L238.041 83.5319Z" fill="white"/>
<path d="M268.6 80.7247L272.526 30.7241L294.414 27.6235C294.196 28.6625 294.026 29.7222 293.906 30.8024C293.766 31.6971 293.631 32.6381 293.501 33.6256C293.413 34.564 293.338 35.4084 293.277 36.1587C292.816 36.2308 292.145 36.3146 291.265 36.41C290.426 36.4563 289.52 36.5298 288.546 36.6303C287.568 36.6844 286.566 36.7398 285.541 36.7964C284.562 36.8505 283.7 36.8982 282.955 36.9394L281.825 49.5353C283.26 49.3626 284.604 49.2183 285.857 49.1023C286.877 48.9992 287.923 48.9181 288.995 48.8588C290.066 48.7996 290.856 48.7326 291.364 48.6578C291.315 49.9676 291.263 51.2541 291.209 52.5174C291.202 53.7782 291.15 55.0647 291.055 56.377C290.594 56.4492 289.83 56.5381 288.763 56.6438C287.738 56.7004 286.692 56.7816 285.625 56.8873C284.418 57.0006 283.095 57.1205 281.656 57.2467L280.633 70.1868L290.668 68.0216L290.808 75.996L268.6 80.7247Z" fill="white"/>
<path d="M321.341 64.2139C320.27 66.7921 319.052 69.0451 317.688 70.973C316.37 72.8538 314.953 74.4555 313.438 75.7784C311.968 77.0541 310.469 78.0034 308.94 78.6264C307.412 79.2493 305.924 79.5685 304.478 79.5839C303.031 79.5993 301.695 79.2869 300.47 78.6466C299.291 78.0058 298.246 77.0369 297.335 75.7399C296.423 74.4429 295.67 72.8409 295.074 70.9339C294.525 69.0263 294.226 66.7895 294.178 64.2233C294.095 59.8374 294.621 55.515 295.754 51.2562C296.887 46.9507 298.518 43.0832 300.647 39.6538C302.776 36.2243 305.315 33.4672 308.263 31.3825C311.256 29.2505 314.573 28.1652 318.213 28.1264C319.333 28.1145 320.41 28.3363 321.446 28.792C322.481 29.2476 323.38 29.8914 324.142 30.7233C324.905 31.5552 325.507 32.5755 325.95 33.7841C326.44 34.9923 326.698 36.3429 326.726 37.8359C326.732 38.1159 326.737 38.4192 326.744 38.7458C326.749 39.0257 326.731 39.3293 326.691 39.6564L317.567 42.2036C316.985 41.0431 316.321 40.4668 315.574 40.4748C314.828 40.4827 314.043 40.9344 313.22 41.8299C312.442 42.6782 311.67 43.8065 310.903 45.2147C310.135 46.5762 309.394 48.1241 308.68 49.8585C307.965 51.5461 307.343 53.2561 306.816 54.9884C306.288 56.7208 305.853 58.3821 305.509 59.9725C305.212 61.5157 305.072 62.7772 305.09 63.757C305.119 65.2501 305.325 66.2979 305.71 66.9005C306.141 67.5026 306.683 67.8001 307.337 67.7932C307.85 67.7877 308.43 67.5949 309.076 67.2146C309.721 66.7878 310.318 66.2681 310.867 65.6555C311.415 64.9963 311.914 64.2677 312.366 63.4695C312.818 62.6713 313.13 61.8747 313.301 61.0795L321.341 64.2139Z" fill="white"/>
<path d="M357.735 44.9729C357.551 47.3925 357.004 49.9616 356.094 52.6802C355.189 55.3522 354.003 58.0136 352.538 60.6642C351.076 63.2683 349.319 65.7677 347.265 68.1625C345.261 70.5125 343.023 72.5735 340.549 74.3456C338.079 76.0711 335.402 77.4387 332.519 78.4483C329.682 79.4598 326.701 79.9058 323.577 79.7862C322.924 79.7613 322.275 79.6897 321.629 79.5717C320.98 79.5002 320.332 79.4054 319.687 79.2874C321.436 72.9143 323.15 66.7031 324.828 60.6539C325.49 58.1126 326.182 55.479 326.905 52.7533C327.631 49.9811 328.331 47.2545 329.003 44.5735C329.676 41.8926 330.316 39.327 330.924 36.8769C331.579 34.4286 332.122 32.2094 332.555 30.2193C334.589 29.9238 336.644 29.6524 338.72 29.4052C340.797 29.158 342.908 29.0754 345.053 29.1575C347.571 29.2539 349.663 29.7305 351.328 30.5876C353.04 31.4464 354.378 32.5943 355.344 34.0313C356.357 35.4701 357.048 37.1299 357.419 39.0107C357.79 40.8916 357.895 42.879 357.735 44.9729ZM341.643 38.8971C340.921 41.6228 340.184 44.2313 339.432 46.7226C338.68 49.2138 337.927 51.7284 337.172 54.2662C336.417 56.804 335.653 59.4581 334.88 62.2286C334.107 64.999 333.338 68.0263 332.573 71.3104C333.749 70.6087 334.898 69.6493 336.02 68.4322C337.192 67.1704 338.308 65.7198 339.369 64.0803C340.429 62.4409 341.404 60.7048 342.292 58.8721C343.227 57.0412 344.042 55.2524 344.737 53.5056C345.431 51.7588 345.977 50.123 346.374 48.5982C346.818 47.0752 347.082 45.7553 347.168 44.6385C347.299 42.9169 346.913 41.5488 346.008 40.5341C345.15 39.5213 343.695 38.9756 341.643 38.8971Z" fill="white"/>
<path d="M393.999 46.3252C393.326 50.0922 392.271 53.6145 390.835 56.892C389.454 60.1278 387.839 63.0856 385.991 65.7654C384.15 68.3993 382.127 70.7364 379.92 72.7768C377.768 74.7755 375.577 76.4671 373.346 77.8517C371.123 79.1903 368.938 80.1823 366.792 80.8276C364.654 81.427 362.679 81.6444 360.866 81.4797C359.333 81.3403 357.988 80.938 356.831 80.2728C355.683 79.5616 354.743 78.6125 354.01 77.4255C353.286 76.1926 352.801 74.6779 352.555 72.8816C352.364 71.0435 352.491 68.8841 352.934 66.4034C353.394 63.8309 354.203 61.15 355.363 58.3609C356.523 55.5719 357.911 52.8268 359.527 50.1259C361.143 47.425 362.99 44.8851 365.068 42.5063C367.147 40.1274 369.334 38.0619 371.631 36.3099C373.936 34.5118 376.306 33.1399 378.742 32.1941C381.179 31.2484 383.605 30.8852 386.022 31.1048C388.113 31.2948 389.755 31.8875 390.946 32.8828C392.193 33.8363 393.065 35.036 393.562 36.4817C394.114 37.8857 394.401 39.4524 394.422 41.1817C394.444 42.911 394.303 44.6255 393.999 46.3252ZM363.641 65.5556C363.551 66.0609 363.55 66.5976 363.637 67.1658C363.724 67.7339 363.894 68.2395 364.145 68.6825C364.397 69.1255 364.726 69.5289 365.133 69.8927C365.595 70.2148 366.105 70.4012 366.663 70.4519C368.754 70.6419 370.74 70.0987 372.622 68.8224C374.503 67.5461 376.162 65.9229 377.601 63.9527C379.039 61.9826 380.247 59.8514 381.223 57.5592C382.246 55.2712 382.93 53.1625 383.275 51.2331C383.373 50.6818 383.433 50.0804 383.455 49.4288C383.524 48.7815 383.491 48.1716 383.357 47.5992C383.27 47.0311 383.027 46.5421 382.628 46.1324C382.283 45.6809 381.739 45.4214 380.996 45.3539C379.508 45.2187 378.072 45.4617 376.685 46.0827C375.299 46.7037 373.984 47.5879 372.74 48.7354C371.551 49.8411 370.444 51.1412 369.422 52.6355C368.407 54.084 367.477 55.5868 366.632 57.144C365.842 58.6594 365.195 60.1646 364.692 61.6595C364.189 63.1543 363.838 64.453 363.641 65.5556Z" fill="white"/>
<path d="M386.284 83.4557C388.714 78.6577 391.079 73.9207 393.38 69.2446C394.355 67.2792 395.355 65.2237 396.38 63.0784C397.405 60.933 398.395 58.8293 399.348 56.7673C400.361 54.6669 401.279 52.6467 402.104 50.7067C402.986 48.7282 403.773 46.9231 404.464 45.2914C403.439 45.0065 402.365 44.8084 401.244 44.6969C400.169 44.592 399.143 44.3071 398.167 43.8424C398.412 43.1292 398.665 42.3003 398.926 41.3557C399.187 40.4111 399.472 39.4698 399.779 38.5317C400.111 37.5037 400.462 36.4082 400.831 35.2452C402.008 35.5046 403.191 35.7415 404.38 35.956C405.569 36.1704 406.764 36.3624 407.965 36.5318C410.322 36.8642 412.599 37.1386 414.795 37.355C417.051 37.5329 419.121 37.6848 421.007 37.8105C422.951 37.8978 424.855 37.9561 426.72 37.9854L424.95 41.5213C424.433 42.5233 423.91 43.5477 423.381 44.5947C422.898 45.6481 422.458 46.5442 422.062 47.2828C420.971 47.4093 419.875 47.465 418.775 47.4501C417.733 47.3966 416.68 47.3882 415.613 47.4247C414.867 48.9084 414.048 50.5688 413.156 52.4059C412.277 54.1979 411.373 56.08 410.444 58.0519C409.574 59.9855 408.691 61.964 407.795 63.9875C406.9 66.0109 406.03 67.9445 405.184 69.788C403.214 74.1368 401.247 78.6496 399.282 83.3263L386.284 83.4557Z" fill="white"/>
<path d="M405.691 85.6086L431.693 40.5006L454.086 42.7615C453.414 43.6669 452.781 44.6028 452.185 45.5691C451.653 46.3599 451.105 47.1946 450.541 48.0732C450.039 48.9164 449.592 49.6762 449.199 50.3525C448.725 50.3111 448.043 50.2315 447.156 50.1135C446.33 49.9602 445.427 49.816 444.448 49.681C443.484 49.5021 442.498 49.319 441.488 49.1316C440.525 48.9527 439.676 48.7952 438.942 48.6589L432.257 59.9894C433.711 60.1657 435.065 60.3469 436.32 60.5331C437.345 60.6766 438.386 60.8463 439.441 61.0422C440.496 61.2381 441.284 61.361 441.805 61.4108C441.176 62.605 440.554 63.7772 439.94 64.9275C439.373 66.0863 438.751 67.2585 438.076 68.4441C437.601 68.4028 436.828 68.3061 435.757 68.154C434.748 67.9667 433.707 67.7969 432.636 67.6449C431.427 67.4673 430.104 67.2684 428.665 67.0482L421.929 78.7205L432.527 79.0726L429.116 86.4457L405.691 85.6086Z" fill="white"/>
</svg>
