<svg width="675" height="147" viewBox="0 0 675 147" fill="none" xmlns="http://www.w3.org/2000/svg">
<path d="M336.592 146.058C236.038 146.058 135.425 146.058 34.8714 146.058C25.4794 146.058 16.6743 142.358 10.0411 129.858C4.87549 119.958 1.58826 108.558 0.531656 95.3585C-0.407551 84.2585 0.00335194 73.3585 0.942559 62.2585C1.82307 51.7585 4.87549 43.5585 8.33882 35.7585C12.3304 26.6585 17.6722 19.9585 24.5401 17.7585C26.3012 17.1585 28.1209 16.1585 29.8819 16.3585C33.9909 16.7585 37.9825 15.1585 42.0329 15.1585C106.662 15.2585 171.233 15.1585 235.862 15.3585C256.994 15.3585 278.067 16.7585 299.2 15.9585C322.973 15.0585 346.806 15.0585 370.579 15.4585C434.093 16.3585 497.548 14.4585 561.062 15.1585C585.306 15.4585 609.549 14.9585 633.792 15.3585C639.31 15.3585 644.887 15.8585 650.404 18.0585C658.446 21.2585 664.61 29.1585 668.425 40.8585C677.113 67.5585 677.407 94.9585 668.015 121.558C662.732 136.658 654.572 144.358 644.124 145.158C619.939 147.258 595.696 145.958 571.511 146.058C493.205 146.258 414.898 146.058 336.651 146.058H336.592ZM663.319 52.0585C663.26 50.3585 662.673 49.0585 662.145 47.6585C656.803 33.6585 648.878 28.1585 639.486 28.1585C439.963 28.1585 240.44 28.1585 40.9176 28.1585C37.1607 28.1585 33.4039 28.0585 29.5884 28.9585C20.9007 31.0585 14.8546 38.8585 10.9803 52.0585C6.75391 64.4585 7.28221 78.0585 7.63441 91.5585C7.75181 96.0585 8.16272 101.058 9.92373 105.058C12.213 116.958 16.6156 125.658 23.6009 130.058C29.2362 133.558 35.0475 133.158 40.9763 133.258C110.125 133.558 179.333 132.258 248.482 133.858C267.208 134.258 285.992 134.058 304.717 133.558C329.019 132.858 353.321 133.158 377.623 133.958C396.936 134.558 416.307 133.658 435.619 133.558C501.775 133.058 567.93 133.158 634.086 133.358C638.019 133.358 641.952 133.258 645.885 132.358C658.446 129.558 666.136 108.458 666.488 89.2585C667.428 77.1585 667.017 65.3585 663.612 54.2585C663.729 53.4585 663.788 52.6585 663.142 52.2585L663.319 52.0585Z" fill="#01120A"/>
<path d="M10.0411 105.058C12.5066 106.758 14.0328 110.758 16.2634 113.158C21.0768 118.458 26.3012 121.058 31.9951 121.058C221.48 121.058 410.965 121.058 600.45 121.058C613.834 121.058 627.218 121.058 640.602 121.058C644.182 121.058 647.528 119.758 650.933 118.558C655.922 116.758 658.153 109.658 661.088 103.658C663.319 99.0584 664.375 93.2584 666.723 88.8584C666.371 108.058 658.623 129.158 646.119 131.958C642.186 132.858 638.312 132.958 634.321 132.958C568.165 132.858 502.01 132.658 435.854 133.158C416.542 133.358 397.171 134.258 377.858 133.558C353.556 132.758 329.254 132.558 304.952 133.158C286.227 133.658 267.443 133.858 248.717 133.458C179.568 131.958 110.36 133.158 41.2111 132.858C35.2823 132.858 29.471 133.258 23.8357 129.658C16.8504 125.258 12.4479 116.558 10.1585 104.658L10.0411 105.058Z" fill="#69F535"/>
<path d="M663.847 54.0584C663.319 53.6584 663.142 53.0584 663.377 52.1584C663.319 50.4584 662.732 49.1584 662.203 47.7584C656.862 33.7584 648.937 28.2584 639.545 28.2584C440.022 28.2584 240.499 28.2584 40.9763 28.2584C37.2195 28.2584 33.4626 28.1584 29.6471 29.0584C20.9594 31.1584 14.9133 38.9584 11.039 52.1584C6.81261 64.5584 7.34092 78.1584 7.69312 91.6584C7.81052 96.1584 8.22142 101.158 9.98244 105.158C12.4479 106.858 13.9741 110.858 16.2047 113.258C21.0181 118.558 26.2425 121.158 31.9364 121.158C221.421 121.158 410.907 121.158 600.392 121.158C613.775 121.158 627.159 121.158 640.543 121.158C644.124 121.158 647.469 119.858 650.874 118.658C655.864 116.858 658.094 109.758 661.029 103.758C663.26 99.1584 664.316 93.3584 666.664 88.9584C667.604 76.8584 667.193 65.0584 663.788 53.9584L663.847 54.0584Z" fill="#69F535"/>
<path d="M663.847 54.0586C663.319 53.6586 663.143 52.9586 663.377 52.0586C664.023 52.3586 663.964 53.1586 663.847 54.0586Z" fill="#A5ABB7"/>
<g clip-path="url(#clip0_71_2)">
<path d="M663.89 12.3066C664.478 16.6476 661.83 19.4292 659.88 22.4637C651.751 35.2338 643.549 47.9196 635.346 60.6054C632.698 64.7357 629.166 66.6744 624.679 65.7893C622.987 65.4522 621.81 64.0192 620.67 62.8391C616.035 57.9924 611.216 53.3564 606.729 48.2989C605.846 47.2874 605.552 46.1495 605.294 44.8851C603.823 38.0154 607.759 31.1035 612.688 29.3755C615.373 28.4483 618.168 28.4905 620.375 31.1878C620.817 31.7357 621.442 32.115 621.92 32.6208C622.877 33.6323 623.943 35.3602 625.01 35.0231C626.003 34.728 626.628 32.7893 627.401 31.5671C633.691 21.7893 639.981 12.0116 646.271 2.19164C648.036 -0.50568 650.537 6.74802e-05 652.892 0.16865C657.158 0.505815 660.432 2.90811 662.86 6.95409C663.853 8.63991 664.037 10.3679 663.926 12.3066H663.89ZM625.709 40.6706C623.833 38.2683 621.552 36.456 619.456 34.3909C615.814 30.7664 613.239 31.1457 610.223 35.5288C609.488 36.5824 608.936 37.8047 608.421 38.9847C607.207 41.8506 607.943 45.2644 610.039 47.3717C614.306 51.6706 618.61 55.9694 622.803 60.3526C626.04 63.7242 629.681 63.4713 632.587 59.1725C636.891 52.7242 641.084 46.1495 645.277 39.6169C650.317 31.7778 655.356 23.9388 660.358 16.0154C661.609 14.0345 661.683 11.8851 660.763 9.48283C659.512 6.27976 657.195 4.67823 654.657 3.5403C651.604 2.14949 649.728 2.82382 648.22 5.18398C643.144 13.0231 638.031 20.82 632.992 28.6591C630.491 32.4943 627.953 36.2874 625.746 40.6284L625.709 40.6706Z" fill="#FEFEFE"/>
<path d="M625.709 40.6707C627.916 36.3718 630.454 32.5787 632.955 28.7013C638.031 20.8622 643.144 13.0653 648.183 5.22623C649.691 2.90822 651.567 2.19175 654.62 3.58255C657.195 4.76263 659.476 6.32202 660.726 9.52508C661.646 11.9274 661.609 14.0347 660.322 16.0576C655.356 23.9389 650.28 31.8201 645.241 39.6592C641.047 46.1917 636.854 52.7665 632.551 59.2147C629.681 63.5136 626.003 63.7665 622.766 60.3948C618.573 56.0117 614.269 51.7128 610.002 47.414C607.906 45.3067 607.17 41.8929 608.384 39.027C608.899 37.8048 609.451 36.5826 610.186 35.5711C613.239 31.1879 615.777 30.8086 619.419 34.4331C621.516 36.4983 623.796 38.2684 625.672 40.7128L625.709 40.6707ZM613.129 42.8201C616.991 46.8661 620.853 50.9121 624.716 55.0002C627.327 57.8239 627.585 57.8239 629.755 54.5366C629.829 54.4101 629.865 54.2837 629.939 54.1994C633.176 49.1419 636.413 44.0423 639.686 39.027C645.204 30.4714 650.758 21.9159 656.276 13.4025C657.747 12.096 656.386 11.4638 655.761 10.7473C653.811 8.47144 652.303 8.51359 650.758 10.8737C649.103 13.3603 647.411 15.8469 645.792 18.3335C639.981 27.2262 634.206 36.119 628.21 44.8009C626.886 46.6975 625.709 46.6132 624.238 45.6439C622.141 44.2531 620.191 42.5672 618.389 40.6707C615.005 37.0883 614.968 37.0883 612.945 40.9235C612.872 41.0921 612.835 41.345 612.761 41.4714C612.209 42.2301 612.761 42.5251 613.203 42.9044L613.129 42.8201Z" fill="black"/>
<path d="M656.312 13.3603C650.795 21.9159 645.241 30.4293 639.723 38.9848C636.449 44.0423 633.213 49.0998 629.976 54.1572C629.902 54.2837 629.865 54.4101 629.792 54.4944C627.585 57.7818 627.364 57.7818 624.752 54.958C620.927 50.8699 617.028 46.8239 613.166 42.7779C615.152 40.9235 616.881 41.7243 618.683 43.3258C620.486 44.9695 622.362 46.5289 624.274 47.9618C626.04 49.2684 628.247 48.299 628.909 45.981C629.056 45.4752 629.277 45.1381 629.534 44.7588C636.597 33.7166 644.726 23.686 652.193 12.981C653.517 11.0844 654.988 11.2109 656.349 13.276L656.312 13.3603Z" fill="white"/>
<path d="M656.312 13.3603C654.951 11.2952 653.48 11.2109 652.156 13.0653C644.689 23.7281 636.56 33.8009 629.498 44.8431C629.24 45.2224 629.019 45.6017 628.872 46.0653C628.21 48.3833 626.003 49.3527 624.238 48.0462C622.325 46.6132 620.449 45.0538 618.647 43.4101C616.881 41.8086 615.152 40.9657 613.129 42.8622C612.651 42.5251 612.136 42.2301 612.688 41.4293C612.798 41.2607 612.798 41.05 612.872 40.8814C614.931 37.004 614.931 37.004 618.315 40.6285C620.118 42.5251 622.067 44.2109 624.164 45.6017C625.635 46.5711 626.812 46.6975 628.137 44.7588C634.169 36.0768 639.944 27.1841 645.719 18.2914C647.337 15.8048 649.029 13.3182 650.685 10.8316C652.266 8.47144 653.738 8.4293 655.687 10.7052C656.312 11.4216 657.673 12.0538 656.202 13.3603H656.312Z" fill="#B4BCCA"/>
</g>
<defs>
<clipPath id="clip0_71_2">
<rect width="59" height="66" fill="white" transform="translate(605)"/>
</clipPath>
</defs>
</svg>
