<svg width="385" height="89" viewBox="0 0 385 89" fill="none" xmlns="http://www.w3.org/2000/svg">
<path opacity="0.5" d="M191.962 89C139.533 89 87.0716 89 34.6431 89C26.0211 89 17.4322 89 8.81016 88.9522C6.95311 88.9522 5.52715 88.164 4.13437 87.3519C0.718717 85.3693 -0.110324 82.7418 0.0223221 79.7799C0.453423 70.2971 0.0886454 60.8143 0.18813 51.3315C0.18813 48.7279 -0.0771628 46.1004 0.0223221 43.4968C0.3871 32.9391 0.154969 22.3814 0.18813 11.8476C0.18813 9.72169 -0.242971 7.57193 0.58607 5.46994C1.77989 2.29308 5.59348 0.119431 10.1698 0.0955448C20.3172 0.0477724 30.4979 0 40.6453 0C87.4033 0 134.161 0 180.919 0C238.72 0 296.521 0 354.321 0.0477724C361.053 0.0477724 367.785 0.238862 374.517 0.0477724C378.828 -0.0716586 384.2 3.17687 384.664 6.28207C385.195 9.84112 384.863 13.4002 384.896 16.9592C384.963 37.6447 384.963 58.3301 384.996 78.9917C384.996 81.1653 385.162 83.3629 383.404 85.2499C381.249 87.5907 378.363 89 374.185 89C321.359 88.9761 268.532 89 215.706 89C207.813 89 199.921 89 192.028 89H191.962ZM192.26 87.3519C252.615 87.3519 312.936 87.3519 373.29 87.3519C378.828 87.3519 382.575 84.3661 382.575 80.6876C382.575 57.0164 382.575 33.369 382.575 9.6978C382.575 8.64681 382.575 7.59581 382.277 6.54482C381.68 4.22786 377.999 1.86312 374.815 1.83924C364.966 1.74369 355.084 1.69592 345.235 1.67203C311.41 1.50483 277.552 1.60038 243.727 1.60038C208.675 1.60038 173.624 1.62426 138.572 1.62426C108.892 1.62426 79.1792 1.60038 49.4995 1.62426C43.663 1.62426 37.8598 1.62426 32.0233 1.79147C24.8604 2.00644 17.6643 1.83924 10.5014 1.86312C9.97082 1.86312 9.44023 1.86312 8.90964 1.98256C4.16753 2.938 2.3768 6.04321 2.34364 8.98121C2.31048 11.3221 2.60893 13.6868 2.64209 16.0276C2.67525 19.3956 2.64209 22.7874 2.60893 26.1554C2.60893 31.7687 2.70842 37.3819 2.31048 42.9952C2.21099 44.6194 2.70842 46.1959 2.67525 47.8202C2.60893 52.263 2.60893 56.7059 2.60893 61.1487C2.60893 63.6567 2.64209 66.1887 2.67525 68.6967C2.67525 70.5599 2.8079 72.423 2.64209 74.2861C2.44312 76.818 2.07834 79.3261 2.70842 81.8341C3.43797 84.6049 5.42767 86.3725 9.40707 87.0891C12.1595 87.5907 14.9782 87.3041 17.7306 87.3041C75.9293 87.328 134.095 87.3041 192.294 87.3041L192.26 87.3519Z" fill="#333840"/>
<path d="M192.26 87.352C134.062 87.352 75.8961 87.352 17.6974 87.352C14.9119 87.352 12.1263 87.6386 9.37386 87.137C5.42762 86.4204 3.40476 84.6528 2.67521 81.882C2.01197 79.3979 2.37675 76.8659 2.60888 74.334C2.77469 72.4709 2.64204 70.6077 2.64204 68.7446C2.64204 66.2366 2.57572 63.7046 2.57572 61.1966C2.57572 56.7537 2.57572 52.3109 2.64204 47.8681C2.64204 46.2438 2.17778 44.6673 2.27727 43.0431C2.67521 37.4298 2.54256 31.8165 2.57572 26.2033C2.57572 22.8353 2.64204 19.4435 2.60888 16.0755C2.60888 13.7108 2.27727 11.37 2.31043 9.02911C2.34359 6.0911 4.16748 2.9859 8.87643 2.03045C9.44018 1.91102 9.9376 1.91102 10.4682 1.91102C17.6311 1.91102 24.8272 2.07822 31.9901 1.83936C37.8265 1.64827 43.6298 1.67216 49.4663 1.67216C79.146 1.67216 108.859 1.67216 138.538 1.67216C173.59 1.67216 208.642 1.67216 243.694 1.64827C277.519 1.64827 311.377 1.55273 345.202 1.71993C355.051 1.7677 364.9 1.81547 374.782 1.88713C377.999 1.91102 381.646 4.29964 382.243 6.59272C382.509 7.64371 382.542 8.6947 382.542 9.7457C382.542 33.4169 382.542 57.0643 382.542 80.7355C382.542 84.414 378.795 87.3997 373.257 87.3997C312.902 87.3997 252.581 87.3997 192.227 87.3997L192.26 87.352ZM8.27952 5.90002C8.14688 5.97167 8.04739 6.04333 7.91474 6.11499C7.351 6.64049 6.9199 7.18987 6.9199 7.90646C6.98622 15.0007 6.98622 22.0949 7.01938 29.1891C7.01938 29.619 6.9199 30.049 6.9199 30.4789C6.9199 35.8055 6.9199 41.1561 6.9199 46.4827C6.9199 50.8777 6.98622 55.2728 7.01938 59.6917C6.98622 66.8815 6.9199 74.0474 6.9199 81.2371C6.9199 82.5986 8.81011 84.0318 10.5345 83.984C15.3761 83.8646 20.2177 84.2707 25.0593 84.199C26.8832 84.1751 28.7071 84.0318 30.4978 84.0318C102.956 84.0318 175.447 83.9601 247.906 84.0318C285.61 84.0557 323.282 83.769 360.987 84.1751C364.999 84.2229 369.012 83.8646 373.024 84.0318C376.672 84.199 378.198 82.312 378.198 80.21C378.198 76.8182 377.733 73.4502 377.866 70.0345C377.965 67.2159 377.866 64.3973 377.8 61.5788C377.8 53.5052 377.866 45.4317 377.866 37.3581C377.866 34.7784 377.833 32.2226 377.8 29.6429C377.8 28.7591 377.866 27.8992 377.866 27.0154C377.866 22.2143 377.866 17.4132 377.866 12.612C377.866 11.2266 378.032 9.81735 378.198 8.43195C378.397 6.83158 375.943 4.82514 373.688 4.87291C369.111 4.96845 364.535 4.89679 359.959 4.89679C247.574 4.89679 135.189 4.89679 22.8043 4.89679C18.9576 4.89679 15.0777 4.94457 11.2309 4.99234C9.93761 4.75348 8.90959 5.01623 8.2132 5.87613L8.27952 5.90002Z" fill="black"/>
<path d="M7.05253 59.7156C7.01937 55.3205 6.95305 50.9255 6.95305 46.5065C6.95305 41.1799 6.95305 35.8294 6.95305 30.5028C6.95305 30.0728 7.01937 29.6429 7.05253 29.2129C7.58312 29.189 7.58312 28.9024 7.61628 28.6158C7.9479 25.7016 8.21319 22.7875 8.61113 19.8734C9.07539 16.4338 10.1697 13.0897 11.4962 9.79342C11.6952 9.33959 11.9936 8.95741 12.6237 8.86186C14.4807 8.55134 16.2715 8.02585 18.2612 8.00196C72.7126 7.88253 127.197 8.16916 181.649 7.85864C212.655 7.69144 243.694 7.83476 274.7 7.83476C307.165 7.83476 339.598 7.83476 372.063 7.81087C374.55 7.81087 375.213 8.16916 375.677 9.86508C376.341 12.2298 376.307 14.6662 376.606 17.0548C376.971 20.0406 376.971 23.0742 377.402 26.0599C377.568 27.2781 377.302 28.5202 377.899 29.6906C377.899 32.2703 377.966 34.8262 377.966 37.4059C377.966 45.4794 377.932 53.553 377.899 61.6265C377.634 61.6743 377.369 61.7698 377.335 62.0087C377.103 63.6091 376.805 65.2094 376.672 66.8337C376.407 70.2972 375.777 73.7129 374.384 77.0809C373.456 79.3501 369.642 81.2371 366.458 81.2371C259.877 81.1654 153.295 81.2132 46.747 81.1415C38.3571 81.1415 29.9672 81.5476 21.5773 80.8549C18.8912 80.6399 16.172 80.5205 13.4859 80.21C11.0651 79.9233 10.7335 79.6367 10.2692 77.893C8.74378 72.232 8.24635 66.4754 7.9479 60.7188C7.9479 60.265 8.11371 59.7156 7.05253 59.7156Z" fill="#007EE0"/>
<path d="M377.866 29.6905C377.302 28.5201 377.568 27.2541 377.369 26.0598C376.937 23.074 376.937 20.0644 376.573 17.0547C376.274 14.6661 376.307 12.2297 375.644 9.86496C375.18 8.16904 374.484 7.81075 372.03 7.81075C339.564 7.81075 307.132 7.83463 274.667 7.83463C243.661 7.83463 212.622 7.69131 181.615 7.85852C127.164 8.14515 72.6794 7.8824 18.228 8.00184C16.2715 8.00184 14.4807 8.55122 12.5905 8.86174C11.9604 8.95728 11.662 9.33946 11.463 9.7933C10.1034 13.0896 9.04222 16.4337 8.57796 19.8733C8.18002 22.7874 7.91473 25.7015 7.58311 28.6156C7.58311 28.9023 7.58311 29.1889 7.01936 29.2128C7.01936 22.1186 6.95304 15.0244 6.91988 7.93018C6.91988 7.21359 7.35098 6.66421 7.91473 6.13871C8.04737 6.06705 8.14686 5.99539 8.2795 5.92374C9.24119 4.7772 10.4018 4.9444 11.2972 5.03995C15.144 5.01606 19.0239 4.9444 22.8706 4.9444C135.255 4.9444 247.64 4.9444 360.025 4.9444C364.601 4.9444 369.178 5.01606 373.754 4.92051C376.009 4.87274 378.463 6.87918 378.264 8.47956C378.098 9.86496 377.965 11.2742 377.932 12.6596C377.899 17.4608 377.932 22.2619 377.932 27.063C377.932 27.9468 377.899 28.8067 377.866 29.6905Z" fill="#78B8EF"/>
<path d="M7.05252 59.7156C8.1137 59.7156 7.91473 60.265 7.94789 60.7188C8.24634 66.4754 8.74377 72.2081 10.2692 77.893C10.7335 79.6367 11.0651 79.9233 13.4859 80.2099C16.172 80.5205 18.8912 80.616 21.5773 80.8549C29.9672 81.5476 38.3571 81.1415 46.747 81.1415C153.329 81.1893 259.91 81.1654 366.458 81.237C369.642 81.237 373.455 79.35 374.384 77.0809C375.777 73.7129 376.407 70.2972 376.672 66.8337C376.805 65.2333 377.103 63.609 377.335 62.0087C377.369 61.7698 377.601 61.6742 377.899 61.6265C377.899 64.445 378.032 67.2636 377.965 70.0822C377.866 73.474 378.297 76.8659 378.297 80.2577C378.297 82.3836 376.772 84.2467 373.124 84.0795C369.111 83.8884 365.099 84.2706 361.086 84.2228C323.381 83.7929 285.71 84.1034 248.005 84.0795C175.547 84.0078 103.055 84.0795 30.5973 84.0795C28.7734 84.0795 26.9495 84.2228 25.1588 84.2467C20.3172 84.3184 15.4756 83.9123 10.634 84.0317C8.87641 84.0795 7.01936 82.6463 7.01936 81.2848C7.01936 74.0951 7.08569 66.9292 7.11885 59.7395L7.05252 59.7156Z" fill="#0058C1"/>
</svg>
