<svg width="60" height="60" viewBox="0 0 60 60" fill="none" xmlns="http://www.w3.org/2000/svg">
<path d="M44.4744 30.2012C48.9496 34.6811 53.2214 39.3239 57.9 43.478C60.6665 45.9623 60.5038 49.3834 58.551 51.9491C56.5168 54.6371 54.2385 57.1214 51.3093 58.9541C48.9089 60.461 45.6949 60.4203 43.7421 58.3025C39.3889 53.6189 34.751 49.1797 30.113 44.5369C25.5157 49.1797 20.7557 53.6189 16.4026 58.4247C14.4904 60.5424 10.0966 60.2574 8.22515 58.669C5.8248 56.6327 3.5872 54.5149 1.63437 52.0306C-0.765968 49.0168 -0.35913 46.166 2.85489 42.7042C6.92327 38.3465 10.9103 33.8666 15.06 29.3866C11.1137 25.4362 6.39438 20.7526 1.67506 16.0691C-0.196395 14.1956 -0.603233 11.1819 0.983435 9.0641C3.22104 5.96888 5.94686 3.28093 8.95745 1.00024C11.0323 -0.58809 14.0836 -0.221551 15.9551 1.65187C20.6744 6.37615 25.353 11.1004 30.0317 15.8247C34.1407 12.2408 37.3954 7.88303 41.3011 4.21764C42.5623 3.03657 43.8641 1.8555 45.166 0.755886C46.5899 -0.425184 49.4785 -0.180825 51.5534 1.36678C54.2792 3.40311 56.7609 5.76525 58.7137 8.53465C60.3411 10.8153 60.4631 14.3993 58.1441 16.5578C53.5062 20.8748 49.153 25.4769 44.6778 29.9568C44.6371 29.9975 44.5964 30.0383 44.4337 30.2419L44.4744 30.2012ZM38.0057 29.631C38.2091 29.5495 38.3718 29.4681 38.3311 29.183C38.738 28.2463 39.3889 27.5132 40.1212 26.8209C44.9219 22.0151 49.7226 17.2094 54.564 12.4037C53.0587 11.0597 52.245 9.18628 50.577 8.12739C49.6819 7.35359 48.8276 6.57978 47.9325 5.76525C42.7657 10.6117 38.087 15.9469 32.6761 20.5897C31.3742 21.7301 30.0316 22.5853 28.4857 21.4042C26.9397 20.2232 25.5564 18.8792 24.1732 17.5352C20.2269 13.6255 16.3212 9.675 12.4156 5.76525C11.724 6.33542 11.1137 6.82414 10.5034 7.31286C8.5913 8.73829 7.24874 10.6524 5.74344 12.4851C10.5034 17.2501 15.2634 22.0151 20.0641 26.7801C21.2846 28.0019 22.2204 29.3052 21.8135 31.1786C20.5116 32.7262 19.2504 34.3553 17.8672 35.8214C14.2057 39.5683 10.5034 43.2744 6.76053 46.9398C5.8248 47.8765 5.66207 48.4467 6.92327 49.0576C8.02173 50.6459 9.32361 52.0306 10.8289 53.2117C12.0087 54.1484 12.7004 54.4335 13.9209 53.2117C18.0706 48.8947 22.3424 44.6998 26.5735 40.4643C29.5028 37.532 30.8046 37.5319 33.7746 40.5457C38.0464 44.822 42.3588 49.0576 46.5899 53.4153C47.4443 54.2706 48.1766 54.4335 48.9089 53.6597C50.4549 52.0713 52.245 50.7681 53.4248 48.8539C54.564 48.0801 54.0758 47.4285 53.3028 46.6954C49.1937 42.6635 45.0846 38.6316 41.1383 34.4775C39.8364 33.0928 38.2091 31.7895 38.087 29.631H38.0464H38.0057Z" fill="black"/>
<path d="M41.0976 34.4368C39.7958 33.0521 38.1684 31.7489 38.0464 29.5904H38.0057C38.1277 29.4275 38.2091 29.3053 38.3311 29.1424C38.738 28.2057 39.3889 27.4726 40.1212 26.7802C44.9219 21.9745 49.7226 17.1688 54.564 12.363C53.0587 11.0191 52.245 9.14564 50.577 8.08675C49.6819 7.31294 48.8276 6.53914 47.9325 5.72461C42.7657 10.5711 38.087 15.9062 32.6761 20.5491C31.3742 21.6894 30.0317 22.5447 28.4857 21.3636C26.9397 20.1825 25.5564 18.8386 24.1732 17.4946C20.2269 13.5848 16.3212 9.63436 12.4156 5.72461C11.724 6.29478 11.1137 6.7835 10.5034 7.27222C8.5913 8.69765 7.24874 10.6118 5.74344 12.4445C10.5034 17.2095 15.2634 21.9745 20.0641 26.7395C21.2846 27.9613 22.2204 29.2645 21.8135 31.138C20.5116 32.6856 19.2505 34.3146 17.8672 35.7808C14.2057 39.5276 10.5034 43.2337 6.76053 46.8991C5.82481 47.8358 5.66207 48.406 6.92327 49.0169C8.02173 50.6053 9.32361 51.99 10.8289 53.171C12.0087 54.1077 12.7004 54.3928 13.9209 53.171C18.0706 48.854 22.3424 44.6592 26.5735 40.4236C29.5028 37.4913 30.8046 37.4913 33.7746 40.5051C38.0464 44.7814 42.3588 49.0169 46.59 53.3747C47.4443 54.2299 48.1766 54.3928 48.9089 53.619C50.4549 52.0307 52.245 50.7274 53.4248 48.8133C54.564 48.0395 54.0758 47.3879 53.3028 46.6548C49.1937 42.6229 45.0847 38.5909 41.1383 34.4368H41.0976Z" fill="#FEFEFE"/>
<path d="M38.0057 29.6309C38.1277 29.4679 38.2091 29.3458 38.3311 29.1829C38.3718 29.4679 38.2091 29.5494 38.0057 29.6309Z" fill="#B4BBCA"/>
</svg>
