<svg width="558" height="223" viewBox="0 0 558 223" fill="none" xmlns="http://www.w3.org/2000/svg">
<path opacity="0.5" d="M555.654 87.5024C550.835 60.9146 539.175 39.2575 521.01 23.0302C511.421 14.4797 500.146 8.30087 485.595 3.68234C477.644 1.18584 469.068 0 458.66 0H458.564C342.296 0.0624125 224.054 0 109.714 0H89.5252C84.8995 0 80.6112 1.18584 75.8892 2.62133C65.9152 5.67954 57.8203 9.29947 50.4964 14.1052C39.8479 21.033 31.3675 29.0218 24.4773 38.6334C9.87764 59.0423 2.60192 81.1987 2.16826 106.289C2.16826 106.663 2.16826 107.1 2.16826 107.662L0 102.981L2.55373 124.263C2.6501 126.635 3.80651 136.247 4.24016 138.868C7.13118 156.156 14.3105 172.134 26.1637 187.737C34.5958 198.846 45.2444 207.647 57.8685 213.95C65.5779 217.757 74.8292 221.877 84.9477 222.938H85.0923H85.2368C90.9225 222.938 96.6563 222.938 102.342 222.938C115.785 222.938 129.662 222.813 143.298 222.813C150.767 222.813 158.38 222.813 165.752 222.938C169.125 222.938 172.546 222.938 175.918 223H175.967H176.015C176.593 223 177.171 223 177.701 222.938C178.906 222.938 180.062 222.813 181.17 222.813C246.17 222.813 311.122 222.813 376.121 222.813C377.808 222.813 379.591 222.813 381.277 222.938C382.096 222.938 382.915 222.938 383.734 223H383.831C387.493 223 391.203 223 394.865 222.938C402.863 222.938 411.199 222.813 419.342 222.813C432.255 222.813 445.361 222.813 458.082 222.938C463.575 222.938 469.068 222.938 474.561 223H474.85H475.139C487.329 220.191 497.978 216.072 507.614 210.33C518.889 203.652 529.249 193.479 539.319 179.249C541.488 176.128 543.511 172.82 545.294 169.263C545.294 169.263 549.101 161.898 548.667 161.711C550.112 158.091 551.317 154.284 552.329 150.414C553.967 144.048 561.821 111.094 555.702 87.6272L555.654 87.5024Z" fill="#333840"/>
<path d="M547.366 165.955L547.173 165.58L547.559 165.393C547.559 165.58 547.462 165.768 547.366 165.955Z" fill="#505A6D"/>
<path d="M5.30019 106.351C5.73384 80.949 13.6841 59.7287 26.7901 41.3795C33.9694 31.3935 42.4979 23.8415 51.8937 17.7251C59.7959 12.6073 68.0834 9.17459 76.6119 6.61568C80.8521 5.30501 85.1404 4.05676 89.5252 4.05676C212.538 4.05676 335.551 4.05676 458.564 4.05676C467.429 4.05676 476.151 4.86813 484.824 7.67669C497.11 11.5463 508.771 17.101 519.179 26.4005C536.332 41.6915 547.8 62.2252 552.57 88.6257C558.255 110.096 551.317 140.803 549.245 148.979C546.643 159.152 542.355 168.639 536.862 176.315C528.141 188.673 518.167 199.283 506.169 206.461C496.002 212.515 485.402 216.322 474.464 218.818C456.058 218.756 437.652 218.631 419.246 218.631C407.393 218.631 395.588 218.756 383.734 218.818C381.181 218.756 378.627 218.631 376.025 218.631C311.025 218.631 246.074 218.631 181.074 218.631C179.291 218.631 177.557 218.756 175.774 218.818C164.884 218.756 153.995 218.631 143.154 218.631C123.784 218.631 104.414 218.756 85.0923 218.818C75.9856 217.882 67.3607 214.325 58.8804 210.081C47.3645 204.339 36.9086 196.163 28.2838 184.803C18.2616 171.634 10.3113 156.531 7.17935 137.932C6.69751 134.936 5.58929 125.012 5.5411 123.826C5.63747 123.702 5.20382 117.585 5.10745 115.151C5.49292 113.716 5.10745 107.974 5.15564 106.351H5.30019ZM19.8035 68.841C17.8279 69.5275 17.8761 72.024 17.1534 73.834C14.2142 83.071 12.4314 92.6202 11.5159 102.544C10.5522 112.655 11.3713 122.89 12.5277 132.751C13.7805 143.174 17.9243 152.599 22.5017 161.399C24.5255 167.827 28.862 172.134 31.5121 178.063C32.0421 179.249 33.0058 180.372 33.9694 180.934C35.945 182.057 37.3423 184.055 39.0287 185.615C43.4134 189.734 47.8463 193.791 52.2792 197.785C55.363 200.594 59.0731 201.218 62.5423 202.778C68.4689 205.462 74.3955 207.959 80.7076 209.082C87.0678 210.205 93.3798 211.204 99.7883 211.204C217.501 211.204 335.262 211.204 452.974 211.204C459.864 211.204 466.707 211.204 473.597 210.268C485.546 208.707 496.821 204.151 507.374 197.036C517.637 190.046 526.695 180.684 533.682 168.451C539.078 159.089 543.463 149.041 545.294 137.432C545.487 136.371 545.631 135.31 545.824 134.249C546.258 133.812 546.402 133.188 546.306 132.502C548.426 121.767 548.715 111.032 547.751 100.047C546.691 87.9392 543.752 76.705 539.223 66.2196C536.525 59.916 533.585 53.7996 529.393 48.9314C528.574 47.6831 527.852 46.2476 526.936 45.1242C512.77 27.2742 467.911 12.0456 465.743 12.4825C464.297 12.7945 95.2108 11.7959 93.7653 12.4825C91.5971 12.6073 89.3806 12.7321 87.2123 12.8569C86.2808 12.8569 84.9638 13.1898 83.2613 13.8555C61.6268 18.0372 42.8352 29.5211 28.2838 51.1158C24.7664 56.3585 21.1526 61.7259 19.6589 68.7786H19.7553L19.8035 68.841Z" fill="#010001"/>
<path d="M5.49292 122.578C5.63747 122.89 5.73384 123.764 5.63747 123.889C5.58929 123.452 5.5411 123.015 5.49292 122.578Z" fill="#4A515E"/>
<path d="M545.872 134.312C545.68 135.373 545.535 136.434 545.342 137.495C542.933 138.369 542.644 141.489 541.825 143.799C538.597 153.285 533.441 161.087 527.852 168.077C519.901 178.063 510.602 185.615 500.339 191.419C487.329 198.722 473.741 202.279 459.816 202.342C340.273 202.591 220.777 202.466 101.234 202.529C95.789 202.529 90.3925 201.343 84.9959 200.844C81.7676 200.532 78.3466 200.407 75.0701 199.158C69.9626 197.286 64.9997 195.164 60.1332 192.48C47.3645 185.428 35.2222 177.314 25.8264 163.521C24.9591 162.273 23.9954 161.149 22.5018 161.524C17.8761 152.724 13.7805 143.299 12.5277 132.876C11.3232 122.953 10.5522 112.78 11.5159 102.669C12.4314 92.8075 14.2142 83.196 17.1534 73.9589C19.2734 73.3972 19.7071 71.3376 19.8035 68.9659L19.7071 68.9035C21.249 69.3404 21.9235 67.9673 22.7909 66.5942C25.0555 62.9743 27.4165 59.4792 29.9702 55.6096C30.2593 56.7955 30.3557 57.1699 30.4039 57.5444C31.0784 62.9743 32.6203 63.9729 35.9932 60.9771C36.6677 60.4154 37.2459 59.6664 37.776 58.9175C41.0524 54.3614 40.3779 51.8025 35.5113 50.1173C35.1259 49.9925 34.9331 49.7429 35.1259 48.9315C36.1859 46.8719 37.776 45.1243 39.366 43.4392C40.3779 42.3782 41.3897 41.6292 42.498 43.8137C44.4735 47.8081 47.3645 47.1839 50.2073 45.6236C54.6402 43.1271 58.6876 39.7568 62.3496 35.7C64.4215 33.4532 67.0716 31.3312 67.698 27.8985C68.2762 24.7778 69.6253 23.7792 71.5045 23.2175C80.9967 20.4714 90.5852 17.9125 100.366 17.9125C222.078 17.85 343.79 17.9125 465.454 17.7252C471.284 17.7252 476.873 18.599 482.511 20.3465C497.833 25.0275 511.855 33.2035 524.382 45.6236C525.828 47.0591 527.225 49.0563 529.393 48.9315C533.585 53.7997 536.573 59.9785 539.223 66.2198C543.704 76.7675 546.643 87.9393 547.751 100.047C548.715 111.094 548.426 121.829 546.306 132.502C545.872 132.939 545.68 133.563 545.824 134.249L545.872 134.312Z" fill="#E86E00"/>
<path d="M22.5499 161.399C24.0436 161.024 25.0073 162.148 25.8746 163.396C35.2222 177.189 47.4127 185.365 60.1813 192.355C65.0479 195.039 70.059 197.161 75.1183 199.034C78.3947 200.219 81.8158 200.407 85.0441 200.719C90.4406 201.218 95.8372 202.404 101.282 202.404C220.826 202.341 340.321 202.466 459.864 202.217C473.79 202.217 487.377 198.597 500.387 191.294C510.698 185.552 519.998 178.001 527.9 167.952C533.489 160.9 538.596 153.16 541.873 143.674C542.644 141.364 542.933 138.306 545.39 137.37C543.559 148.979 539.175 159.027 533.778 168.389C526.792 180.559 517.733 189.984 507.47 196.974C496.966 204.089 485.691 208.645 473.693 210.205C466.803 211.142 459.961 211.142 453.071 211.142C335.358 211.142 217.597 211.142 99.8846 211.142C93.4762 211.142 87.1642 210.143 80.8039 209.02C74.4919 207.896 68.5653 205.4 62.6387 202.716C59.2177 201.156 55.4593 200.469 52.3756 197.723C47.9427 193.729 43.5098 189.672 39.1251 185.552C37.4387 183.992 35.9932 181.995 34.0658 180.872C33.1021 180.31 32.1385 179.186 31.6084 178.001C28.9583 172.134 24.67 167.765 22.5981 161.336L22.5499 161.399Z" fill="#C94300"/>
<path d="M529.442 48.869C527.273 49.0562 525.876 47.059 524.431 45.5611C511.903 33.141 497.93 24.9026 482.559 20.284C476.921 18.5989 471.332 17.6627 465.502 17.6627C343.79 17.7875 222.078 17.7251 100.415 17.85C90.6334 17.85 81.093 20.4089 71.5527 23.155C69.6735 23.7167 68.3244 24.7153 67.7462 27.836C67.1198 31.2686 64.4697 33.3907 62.3978 35.6375C58.7358 39.6319 54.6884 43.0646 50.2555 45.5611C47.4127 47.1838 44.5698 47.7456 42.5461 43.7512C41.4379 41.5667 40.4261 42.3157 39.4142 43.3767C37.8241 45.0618 36.2341 46.8094 35.174 48.869C34.9813 49.6179 35.174 49.8676 35.5595 50.0548C40.4261 51.74 41.1006 54.2989 37.8241 58.855C37.2941 59.6039 36.6677 60.3529 36.0413 60.9146C32.7167 63.9104 31.1266 62.9118 30.452 57.4819C30.4039 57.1074 30.2593 56.6706 30.0184 55.5471C27.4647 59.4167 25.1037 62.9118 22.839 66.5317C22.0199 67.8424 21.3453 69.2779 19.7553 68.841C21.249 61.8508 24.8146 56.4209 28.3801 51.1782C42.9316 29.5835 61.7232 18.0996 83.3577 13.918C83.3577 13.918 85.815 12.8569 87.3087 12.9194C89.477 12.7945 91.6934 12.6697 93.8617 12.5449C95.6445 12.6073 97.3791 12.1704 99.1619 12.1704C219.621 12.1704 340.08 12.1704 460.587 12.1704C462.37 12.1704 464.105 12.6073 465.887 12.5449C468.056 12.6697 470.272 12.7945 472.44 12.9194C487.474 15.0414 512.915 27.3367 527.032 45.1866C527.948 46.3101 528.671 47.7456 529.49 48.9938L529.442 48.869Z" fill="#F9923E"/>
<path d="M19.8517 68.8411C19.7553 71.2127 19.3216 73.2724 17.2016 73.8341C17.9243 72.0241 17.8761 69.5276 19.8517 68.8411Z" fill="#7D89A2"/>
<path d="M545.872 134.312C545.728 133.563 545.872 133.001 546.354 132.564C546.45 133.251 546.258 133.875 545.872 134.312Z" fill="#4A515E"/>
</svg>
