<svg width="80" height="77" viewBox="0 0 80 77" fill="none" xmlns="http://www.w3.org/2000/svg">
<path d="M69.2246 45.3266C69.2246 53.3054 69.0126 61.235 69.2776 69.1153C69.4896 74.3852 67.2635 75.321 62.0163 75.9613C59.3132 76.306 56.5041 76.4538 53.7479 75.6165C51.7869 75.0255 49.8258 76.109 47.8647 76.0598C42.0875 76.0105 36.2572 76.306 30.48 75.9613C26.5048 75.715 22.5827 76.2568 18.6075 76.0598C13.6783 75.8135 9.75616 73.9419 10.1272 68.2287C10.5512 61.826 10.2332 55.374 10.2332 48.922C10.2332 47.74 10.0212 46.5579 10.9222 45.2774C7.21206 46.1147 3.97893 45.8192 1.80584 43.0611C-0.897268 39.7119 -0.526253 34.9345 2.65388 31.9302C10.2332 24.7886 17.7595 17.5979 25.6038 10.7026C28.8369 7.84603 32.0171 4.98943 35.1972 2.13282C38.2183 -0.576025 41.5575 -0.773032 44.4726 1.93582C55.815 12.3772 67.1045 22.8678 78.2879 33.457C80.673 35.7225 80.196 38.8747 79.083 41.5835C78.0759 44.1446 75.5318 45.3759 72.6697 45.6714C71.5567 45.7699 70.3906 45.9177 69.1716 45.2774L69.2246 45.3266ZM69.2246 38.2836C70.1786 38.3329 71.1327 39.6627 71.9807 38.4314C72.8817 37.1509 71.2917 36.8061 70.6556 36.2151C63.5003 29.4676 56.3451 22.7693 49.1368 16.1696C45.9566 13.2637 43.4655 9.7176 39.8084 7.20576C29.314 16.9576 18.9255 26.611 8.53712 36.3136C8.00709 36.8061 6.68204 37.1016 7.47707 38.3821C8.43111 39.909 9.22614 38.1359 10.0742 38.3329C11.5052 38.5299 13.0423 38.6284 14.4204 39.0224C15.8514 39.4657 17.6005 39.9582 17.4945 41.8298C16.8585 50.3503 18.8195 58.8216 17.6535 67.3422C17.5475 68.0317 17.2295 69.5585 18.6075 69.657C20.3566 69.8048 22.2647 70.1988 23.9607 69.3615C24.3318 69.1645 23.9607 68.8198 23.9607 68.5242C23.9607 62.7618 23.8017 56.9501 23.9607 51.1876C24.0667 47.4937 25.7098 44.2431 29.632 42.9626C36.2572 40.8447 43.0415 40.9925 49.6668 42.9626C53.2709 43.9968 55.444 47.0997 55.444 50.6951C55.444 56.3098 55.603 61.9738 55.391 67.5885C55.285 70.3466 56.9811 69.8048 58.6771 69.854C60.4262 69.854 61.9633 70.2481 61.8573 67.5392C61.5923 59.4619 61.8573 51.3846 61.7513 43.3073C61.7513 41.1402 62.7583 39.7119 64.8784 39.1209C66.2565 38.7269 67.7405 38.6284 69.2246 38.4314V38.2836ZM48.1297 59.6589C48.1297 57.0486 48.0767 54.4382 48.1297 51.8771C48.1827 50.3996 47.8117 49.4638 46.0626 49.1683C41.7165 48.4295 37.4233 48.528 33.1301 49.2175C32.0171 49.4146 31.7521 50.0548 31.7521 50.9414C31.7521 56.6053 31.9641 62.2693 31.275 67.9332C31.116 69.2138 31.5931 69.8048 33.1301 69.7555C37.4763 69.657 41.8755 69.657 46.2746 69.7555C47.8117 69.7555 48.2357 69.263 48.1827 67.9332C48.0767 65.1751 48.1827 62.417 48.1827 59.6589H48.1297Z" fill="black"/>
<path d="M48.1297 59.6096C48.1297 62.3677 48.0767 65.1258 48.1297 67.8839C48.1297 69.2137 47.7587 69.7554 46.2216 69.7062C41.8755 69.6077 37.4763 69.6077 33.0771 69.7062C31.487 69.7062 31.063 69.1644 31.222 67.8839C31.9111 62.2199 31.7521 56.556 31.6991 50.892C31.6991 50.0055 31.9641 49.3159 33.0771 49.1682C37.3703 48.4294 41.6635 48.3802 46.0096 49.1189C47.8117 49.4145 48.1297 50.3502 48.0767 51.8278C47.9707 54.4381 48.0767 57.0485 48.0767 59.6096H48.1297Z" fill="white"/>
<path d="M70.7087 36.2151C63.5534 29.4676 56.3981 22.7694 49.1898 16.1696C46.0097 13.2638 43.5186 9.71765 39.8614 7.20581C29.367 16.9577 18.9786 26.611 8.59014 36.3136C8.06012 36.8061 6.73506 37.1017 7.5301 38.3822C8.48413 39.909 9.27917 38.1359 10.1272 38.3329C11.5583 38.53 13.0953 38.6285 14.4734 39.0225C15.9044 39.4657 17.6535 39.9583 17.5475 41.8298C16.9115 50.3504 18.8726 58.8217 17.7065 67.3423C17.6005 68.0318 17.2825 69.5586 18.6605 69.6571C20.4096 69.8048 22.3177 70.1989 24.0138 69.3616C24.3848 69.1646 24.0138 68.8198 24.0138 68.5243C24.0138 62.7618 23.8548 56.9501 24.0138 51.1877C24.1198 47.4938 25.7628 44.2432 29.685 42.9626C36.3103 40.8448 43.0945 40.9925 49.7198 42.9626C53.324 43.9969 55.497 47.0998 55.497 50.6951C55.497 56.3099 55.656 61.9738 55.444 67.5885C55.338 70.3466 57.0341 69.8048 58.7302 69.8541C60.4792 69.8541 62.0163 70.2481 61.9103 67.5393C61.6453 59.462 61.9103 51.3847 61.8043 43.3074C61.8043 41.1403 62.8113 39.712 64.9314 39.121C66.3095 38.727 67.7935 38.6285 69.2776 38.4315C70.2316 38.4807 71.1857 39.8105 72.0337 38.5792C72.9347 37.2987 71.3447 36.9539 70.7087 36.3629V36.2151Z" fill="#FF0048"/>
</svg>
