<svg width="519" height="714" viewBox="0 0 519 714" fill="none" xmlns="http://www.w3.org/2000/svg">
<path d="M259.311 713.953C197.295 713.953 135.245 713.905 73.2289 714C64.9051 714 56.822 712.296 48.8766 709.077C40.3808 705.668 32.6417 700.177 25.5562 692.933C19.5369 686.779 14.8934 678.873 11.0755 670.068C6.32884 659.179 3.37079 647.344 1.47902 634.988C0.171975 626.419 -0.103193 617.708 0.068787 608.997C0.103183 606.725 0.068787 604.405 0.068787 602.133C0.068787 438.569 0.068787 274.958 0.068787 111.394C0.068787 -52.1699 0.137579 105.098 0.068787 101.926C-0.275172 88.0547 1.71979 74.7045 5.05619 61.6857C8.01424 50.2291 12.3825 39.8614 18.1954 30.6772C22.6669 23.6234 28.1359 18.4632 33.9144 13.729C40.8967 8.00076 48.5326 4.87625 56.3061 2.1778C58.989 1.23097 61.8095 0.852243 64.5955 0.520854C72.541 -0.378628 80.452 0.142125 88.3975 0.142125C208.68 0.0947836 328.963 0.142125 449.245 0.142125C455.608 0.142125 461.765 1.89375 467.888 4.16613C473.391 6.24914 478.688 8.94759 483.71 12.7349C487.872 15.8594 491.793 19.41 495.439 23.6234C503.143 32.5235 508.372 43.7907 512.327 56.3361C515.01 64.9049 516.764 73.8524 517.968 82.9892C518.553 87.534 518.794 92.2208 518.794 96.9075C518.794 151.208 518.794 205.508 518.759 259.809C518.759 288.734 518.69 317.66 518.794 346.585C518.794 351.509 519.069 356.479 519.034 361.403C519.034 364.669 518.69 367.936 518.69 371.25C518.69 454.002 518.69 536.755 518.69 619.507C518.69 627.318 517.555 634.94 516.111 642.468C514.46 650.989 512.258 659.274 509.094 666.99C505.482 675.654 501.32 683.654 495.68 690.14C490.967 695.584 485.808 700.034 480.27 703.68C474.148 707.656 467.681 710.071 461.077 712.059C454.611 714 448.041 713.905 441.506 713.905C380.797 713.905 320.088 713.905 259.38 713.905L259.311 713.953ZM513.875 357.237C513.875 289.444 513.875 221.652 513.875 153.859C513.875 143.775 513.909 133.692 514.013 123.608C514.116 111.631 514.701 99.606 513.669 87.6287C513.084 80.7642 512.155 74.0417 510.539 67.5087C507.202 53.8271 502.387 41.3763 494.785 31.2926C489.798 24.6649 483.985 19.694 477.656 15.7174C467.44 9.27898 456.709 6.15446 445.53 6.39116C438.17 6.53319 430.809 6.72255 423.414 6.72255C310.63 6.72255 197.845 6.72255 85.0955 6.81723C79.1106 6.81723 73.1601 5.6337 67.1752 6.67521C63.3229 7.33799 59.4361 7.8114 55.6526 8.94759C48.9798 10.9359 42.7541 14.6285 36.666 18.8892C28.927 24.3335 22.7013 32.1921 17.6107 41.6604C13.7584 48.8089 11.1099 56.9516 8.87414 65.3783C7.01676 72.3848 5.8129 79.628 5.22817 86.9659C4.88422 91.3686 4.26509 95.724 4.60905 100.221C4.91861 104.293 4.84982 108.459 4.84982 112.577C4.84982 277.893 4.84982 443.208 4.84982 608.571C4.84982 612.643 4.33388 616.619 4.74663 620.738C5.26257 626.04 5.43455 631.484 6.36324 636.692C8.80535 650.563 12.5889 663.582 19.1241 674.944C23.63 682.755 28.8926 689.288 35.187 694.164C47.6039 703.822 60.984 708.367 75.2239 707.751C81.3463 707.467 87.4688 707.42 93.5913 707.42C170.741 707.42 247.891 707.42 325.041 707.42C402.191 707.42 409.518 707.42 451.79 707.372C455.574 707.372 459.323 706.284 463.003 705.242C467.372 703.964 471.534 701.833 475.661 699.514C482.643 695.584 489.007 690.282 494.476 683.181C498.741 677.642 502.215 671.156 505.001 664.008C511.054 648.527 514.15 632.005 514.116 614.442C514.116 601.517 513.841 588.593 513.841 575.669C513.841 502.906 513.841 430.142 513.841 357.379L513.875 357.237Z" fill="black"/>
<path d="M513.875 357.237C513.875 430 513.875 502.764 513.875 575.527C513.875 588.451 514.15 601.375 514.15 614.3C514.15 631.863 511.055 648.385 505.035 663.866C502.249 671.014 498.775 677.453 494.51 683.039C489.007 690.14 482.678 695.442 475.696 699.372C471.568 701.691 467.406 703.869 463.038 705.1C459.357 706.189 455.608 707.23 451.825 707.23C409.587 707.325 367.348 707.278 325.076 707.278C247.926 707.278 170.776 707.278 93.6257 707.278C87.5032 707.278 81.3807 707.325 75.2583 707.609C61.0184 708.224 47.6383 703.68 35.2214 694.022C28.927 689.146 23.6644 682.613 19.1585 674.802C12.6233 663.44 8.83975 650.374 6.39764 636.55C5.46895 631.342 5.29697 625.945 4.78103 620.596C4.36828 616.477 4.88422 612.501 4.88422 608.429C4.88422 443.114 4.88422 277.798 4.88422 112.435C4.88422 108.317 4.95301 104.151 4.64345 100.079C4.29949 95.582 4.91861 91.1792 5.26257 86.8238C5.81291 79.486 7.05116 72.2428 8.90854 65.2363C11.1443 56.8569 13.7928 48.6668 17.6451 41.5183C22.7357 32.0501 28.9614 24.1914 36.7004 18.7472C42.7885 14.4865 48.9798 10.7939 55.687 8.80554C59.4705 7.66935 63.3573 7.24328 67.2096 6.53317C73.1945 5.44432 79.145 6.67519 85.1299 6.67519C197.914 6.58051 310.698 6.58051 423.448 6.58051C430.809 6.58051 438.17 6.39114 445.565 6.24912C456.709 6.01241 467.475 9.13693 477.691 15.5753C484.019 19.552 489.832 24.5228 494.82 31.1506C502.421 41.2343 507.237 53.685 510.573 67.3666C512.155 73.947 513.084 80.6221 513.703 87.4866C514.735 99.4639 514.15 111.489 514.047 123.466C513.978 133.55 513.944 143.633 513.909 153.717C513.909 221.51 513.909 289.302 513.909 357.095L513.875 357.237ZM152.408 699.182C163.243 699.372 176.417 699.324 189.59 699.514C215.25 699.892 240.909 699.561 266.568 699.561C292.537 699.561 318.472 699.656 344.441 699.23C366.626 698.898 388.846 699.135 411.066 699.23C421.866 699.23 432.701 699.466 443.501 699.656C448.832 699.75 454.026 698.851 459.22 697.241C468.369 694.448 477.14 690.235 485.051 683.086C488.766 679.725 491.827 675.37 494.613 670.683C498.569 664.055 501.114 656.339 503.247 648.385C506.17 637.307 508.337 625.945 508.337 614.11C508.303 579.267 508.647 544.424 508.096 509.581C507.959 500.207 508.268 490.834 508.268 481.46C508.303 397.572 508.75 313.73 508.096 229.842C507.993 214.74 508.131 199.591 508.268 184.441C508.544 156.226 508.337 128.011 508.406 99.748C508.406 95.8187 508.131 91.8894 507.615 88.0547C505.895 74.8939 503.109 62.2538 498.259 50.5131C495.095 42.8439 490.83 36.5948 485.739 31.482C479.548 25.2803 472.497 21.3983 465.205 18.5578C457.741 15.67 450.174 13.7764 442.331 14.1078C436.794 14.2971 431.256 14.1551 425.718 14.2024C421.419 14.2024 417.119 14.4865 412.854 14.4865C387.195 14.4865 361.535 14.7705 335.911 14.2971C311.627 13.8237 287.344 14.0604 263.06 14.1551C231.45 14.2971 199.84 14.0131 168.23 14.4865C146.011 14.8179 123.791 14.9599 101.571 14.2498C91.9403 13.9184 82.3438 14.1551 72.713 14.1551C69.1702 14.1551 65.6962 15.0072 62.2566 15.8594C55.7902 17.469 49.5645 19.9781 43.5452 23.6233C38.0075 27.0319 32.7793 31.1033 28.3766 36.9262C23.4236 43.4593 19.984 51.3179 17.3355 59.8867C12.9673 73.947 10.5939 88.5281 10.422 103.819C10.3532 111.678 10.7659 119.537 10.7659 127.395C10.5939 202.194 11.2131 276.993 10.4564 351.793C10.422 356.811 10.7315 361.876 10.6971 366.847C10.5595 445.244 11.2131 523.641 10.422 601.991C10.3188 610.418 10.3876 618.797 11.5226 627.082C13.3456 640.29 16.2693 653.025 21.3255 664.623C23.7676 670.257 26.8976 675.038 30.5436 679.299C34.7055 684.175 39.4865 687.536 44.5083 690.424C53.9328 695.868 63.7356 699.182 74.02 699.324C79.4546 699.419 84.8547 699.324 90.2893 699.088C99.3354 698.709 108.416 698.898 117.496 698.898C128.366 698.898 139.269 698.898 152.477 698.898L152.408 699.182Z" fill="#E86E00"/>
<path d="M152.408 699.182C139.2 699.182 128.297 699.182 117.428 699.182C108.347 699.182 99.2666 698.993 90.2205 699.372C84.7859 699.608 79.3514 699.703 73.9512 699.608C63.7012 699.419 53.8984 696.152 44.4395 690.708C39.4521 687.82 34.6711 684.506 30.4748 679.583C26.8288 675.322 23.6988 670.493 21.2567 664.907C16.2005 653.309 13.2424 640.574 11.4538 627.366C10.3188 619.081 10.2844 610.654 10.3532 602.275C11.1443 523.878 10.4907 445.481 10.6283 367.131C10.6283 362.113 10.3188 357.095 10.3876 352.077C11.1443 277.277 10.5251 202.478 10.6971 127.679C10.6971 119.821 10.2844 111.962 10.3532 104.103C10.4907 88.8121 12.8985 74.1837 17.2667 60.1707C19.9152 51.5546 23.3548 43.7433 28.3078 37.2102C32.7449 31.3399 37.9387 27.2686 43.4764 23.9073C49.4613 20.2147 55.7214 17.753 62.1878 16.1434C65.6618 15.2912 69.1358 14.4391 72.6442 14.4391C82.275 14.4391 91.9059 14.2497 101.502 14.5338C123.722 15.2439 145.942 15.1019 168.162 14.7705C199.771 14.2971 231.381 14.5338 262.991 14.4391C287.275 14.3444 311.558 14.1077 335.842 14.5811C361.501 15.0545 387.16 14.7705 412.785 14.7705C417.085 14.7705 421.35 14.4864 425.649 14.4864C431.187 14.4864 436.725 14.5811 442.263 14.3918C450.071 14.1077 457.672 15.954 465.136 18.8418C472.428 21.6823 479.479 25.5169 485.67 31.766C490.761 36.8788 495.026 43.1279 498.19 50.7971C503.04 62.4904 505.826 75.1779 507.546 88.3387C508.062 92.1734 508.337 96.0553 508.337 100.032C508.303 128.247 508.475 156.463 508.2 184.725C508.062 199.875 507.925 214.976 508.028 230.126C508.647 314.014 508.234 397.855 508.2 481.744C508.2 491.118 507.89 500.491 508.028 509.865C508.612 544.708 508.234 579.551 508.268 614.394C508.268 626.229 506.136 637.639 503.178 648.669C501.045 656.622 498.5 664.339 494.545 670.967C491.758 675.654 488.697 680.009 484.982 683.37C477.071 690.471 468.3 694.685 459.151 697.525C453.992 699.088 448.764 700.034 443.432 699.94C432.632 699.75 421.797 699.561 410.997 699.514C388.777 699.419 366.592 699.182 344.372 699.514C318.403 699.94 292.468 699.845 266.5 699.845C240.84 699.845 215.181 700.129 189.521 699.798C176.348 699.608 163.174 699.656 152.34 699.466L152.408 699.182ZM449.555 693.028C450.036 693.028 451.618 692.555 451.962 692.555C452.203 692.555 452.41 692.649 452.65 692.602C461.628 690.614 470.295 687.11 478.344 681.098C483.779 677.027 488.491 671.772 491.999 664.718C496.505 655.676 499.429 645.639 501.458 635.13C502.765 628.407 503.522 621.543 503.831 614.583C503.9 607.34 503.797 600.097 503.625 592.854C503.419 583.007 503.763 573.16 503.763 563.36C503.831 530.364 503.763 497.319 503.659 464.323C503.487 390.423 503.144 316.476 503.831 242.576C503.969 228.847 503.831 215.166 503.831 201.437C503.831 195.425 503.831 189.46 503.831 183.447C503.866 177.624 503.728 171.754 503.831 165.931C503.9 161.102 503.831 156.321 503.763 151.492C503.694 149.93 503.522 148.367 503.522 146.805C503.522 137.716 503.522 128.673 503.522 119.584C503.522 118.4 503.453 117.217 503.522 116.033C504.141 108.411 504.072 100.789 503.419 93.2149C502.593 83.6993 500.873 74.4204 498.19 65.5676C495.783 57.6616 492.962 50.0397 488.628 43.696C484.019 36.9735 478.378 32.5234 472.29 28.9729C463.107 23.6706 453.545 20.7828 443.604 20.4041C440.577 20.3094 437.585 20.9722 434.524 20.9248C413.129 20.5935 391.701 21.3036 370.306 20.4988C363.668 20.2621 357.03 20.7828 350.426 20.7828C288.066 20.7355 225.706 21.4456 163.346 20.4988C153.922 20.3568 144.463 20.3568 135.038 20.8302C127.643 21.2089 120.248 20.9248 112.887 20.9248C98.4755 20.9248 84.0636 20.7355 69.6861 21.0195C64.4579 21.1142 59.3674 22.8185 54.3799 25.0909C51.3187 26.5111 48.2575 27.9787 45.2994 29.7303C37.3196 34.4171 30.578 41.1869 25.8657 51.4126C23.2172 57.1409 21.1535 63.2479 19.5025 69.639C17.6451 76.8348 16.3725 84.22 15.5469 91.7473C15.2374 94.5404 14.7902 97.3809 14.7902 100.174C14.7902 103.583 14.9966 106.991 15.0998 110.352C15.375 119.347 15.203 128.342 15.2374 137.29C15.2374 140.745 15.1686 144.154 15.1686 147.61C15.1686 298.77 15.1686 449.883 15.1686 601.044C15.1686 604.026 15.3062 607.009 14.8934 609.991C14.6527 611.79 14.6183 613.779 15.2374 615.578C14.859 618.466 15.5126 621.211 15.8221 624.052C17.2323 636.455 19.8464 648.243 24.3179 659.226C26.0721 663.534 28.1702 667.606 30.6468 671.156C33.9144 675.843 37.8699 679.299 42.0318 682.329C47.0192 685.927 52.3162 688.341 57.7163 690.329C60.7776 691.466 63.8732 692.507 67.072 692.649C69.7205 693.312 72.369 693.738 75.0519 693.691C77.7348 693.691 80.3833 693.123 83.1005 693.17C103.325 693.501 123.516 692.839 143.741 693.549C152.821 693.88 161.936 693.312 171.017 693.312C233.445 693.312 295.874 692.649 358.268 693.596C365.113 693.691 371.992 693.501 378.871 693.312C391.185 692.933 403.499 693.359 415.812 693.123C427.06 692.886 438.342 693.975 449.589 693.123L449.555 693.028Z" fill="#6D3100"/>
<path d="M503.797 151.492C503.797 156.321 503.9 161.102 503.866 165.931C503.797 171.754 503.935 177.624 503.866 183.447C503.831 189.46 503.866 195.425 503.866 201.437C503.866 215.166 503.969 228.848 503.866 242.577C503.178 316.476 503.487 390.423 503.694 464.323C503.763 497.32 503.866 530.364 503.797 563.361C503.797 573.208 503.453 583.055 503.659 592.854C503.797 600.097 503.9 607.341 503.866 614.584C503.247 614.678 503.281 615.388 503.178 616.004C502.49 619.507 501.905 623.01 501.114 626.419C497.09 644.125 490.589 659.653 480.477 672.245C472.565 682.14 463.451 688.673 453.029 691.703C452.581 691.845 452.1 691.703 451.997 692.602C451.653 692.602 450.449 694.212 415.812 693.123C403.499 693.359 391.185 692.933 378.871 693.312C371.992 693.502 365.147 693.691 358.268 693.596C295.839 692.649 233.411 693.312 171.016 693.312C161.936 693.312 152.821 693.833 143.741 693.549C123.516 692.839 103.325 693.501 83.1005 693.17C80.4176 693.17 77.7348 693.644 75.0519 693.691C72.369 693.691 69.7205 693.312 67.072 692.649C67.0032 691.939 66.6249 691.892 66.2121 691.75C62.1878 690.235 58.2667 688.436 54.4143 686.258C44.6803 680.672 36.3909 672.387 29.8557 661.025C22.5637 648.338 18.161 633.804 16.1661 617.898C16.0629 617.045 16.0973 615.957 15.2374 615.625C14.6183 613.826 14.6527 611.838 14.8934 610.039C15.3062 607.056 15.1686 604.074 15.1686 601.091C15.1686 449.931 15.1686 298.818 15.1686 147.657C15.1686 144.202 15.203 140.793 15.2374 137.337C15.7189 137.195 15.8565 136.769 15.8565 136.154C15.8565 131.609 16.4068 127.111 16.51 122.567C16.6476 116.033 17.6795 109.69 18.0579 103.204C18.4018 97.3811 19.3649 91.6528 19.984 85.8771C20.5344 80.5749 21.2567 75.4147 23.2172 70.6333C25.7969 64.3369 28.583 58.2299 31.4723 52.2175C35.0494 44.785 40.1744 40.0982 45.6778 36.0742C48.9798 33.6598 52.7633 32.6183 56.3749 31.1981C64.6987 27.8368 73.1601 26.606 81.8623 26.606C203.727 26.748 325.592 26.7006 447.456 26.7006C449.004 26.7006 450.552 26.89 452.031 27.3634C462.281 30.5353 472.118 35.1747 480.545 44.2642C484.466 48.4776 488.422 52.5963 491.277 58.3246C494.235 64.2422 495.611 71.1067 496.952 77.9238C498.603 86.2559 499.463 94.7773 500.117 103.346C500.598 109.548 501.114 115.797 501.492 121.998C501.664 124.602 501.63 127.159 501.836 129.762C502.284 135.538 502.593 141.314 502.421 147.137C502.387 148.746 502.146 150.829 503.763 151.681L503.797 151.492Z" fill="#FF9E55"/>
<path d="M503.797 151.492C502.18 150.64 502.421 148.557 502.456 146.947C502.628 141.124 502.284 135.349 501.871 129.573C501.664 127.017 501.699 124.413 501.527 121.809C501.148 115.56 500.598 109.358 500.151 103.157C499.497 94.5878 498.638 86.0664 496.987 77.7343C495.611 70.9172 494.269 64.1001 491.311 58.1351C488.456 52.4068 484.501 48.2881 480.58 44.0747C472.118 34.9852 462.316 30.3458 452.066 27.1739C450.587 26.7005 449.039 26.5111 447.491 26.5111C325.626 26.5111 203.761 26.6058 81.8967 26.4165C73.1945 26.4165 64.7331 27.6473 56.4093 31.0086C52.7977 32.4761 49.0142 33.4703 45.7122 35.8847C40.2088 39.9087 35.0838 44.5955 31.5066 52.028C28.6174 58.0877 25.8313 64.1474 23.2516 70.4438C21.2911 75.2252 20.5687 80.3854 20.0184 85.6876C19.3993 91.4633 18.4706 97.2389 18.0922 103.015C17.7139 109.5 16.6476 115.844 16.5444 122.377C16.4756 126.922 15.9253 131.419 15.8909 135.964C15.8909 136.579 15.7533 137.053 15.2718 137.148C15.2718 128.153 15.4094 119.158 15.1342 110.21C15.031 106.849 14.859 103.393 14.8246 100.032C14.8246 97.2389 15.2718 94.3984 15.5813 91.6053C16.4068 84.078 17.6795 76.6928 19.5369 69.497C21.1879 63.1059 23.2172 56.9989 25.9001 51.2706C30.6468 41.0922 37.354 34.2751 45.3338 29.5883C48.3263 27.8367 51.3531 26.3691 54.4143 24.9489C59.4017 22.6765 64.4923 20.9722 69.7205 20.8775C84.1324 20.5935 98.5443 20.7829 112.922 20.7829C120.317 20.7829 127.712 21.0669 135.073 20.6882C144.497 20.2148 153.956 20.2148 163.381 20.3568C225.74 21.3036 288.1 20.5935 350.46 20.6408C357.098 20.6408 363.737 20.1201 370.341 20.3568C391.735 21.1616 413.164 20.4988 434.558 20.7829C437.585 20.7829 440.612 20.1674 443.639 20.2621C453.579 20.6408 463.141 23.4813 472.325 28.8309C478.413 32.3814 484.054 36.8315 488.663 43.554C492.997 49.8977 495.852 57.5196 498.225 65.4256C500.908 74.2784 502.593 83.5573 503.453 93.0729C504.107 100.647 504.175 108.269 503.556 115.891C503.453 117.075 503.556 118.258 503.556 119.442C503.556 128.531 503.556 137.574 503.556 146.663C503.556 148.225 503.728 149.788 503.797 151.35V151.492Z" fill="#EA813B"/>
<path d="M451.962 692.602C452.066 691.75 452.547 691.844 452.994 691.702C463.416 688.672 472.531 682.139 480.442 672.245C490.52 659.652 497.055 644.124 501.08 626.419C501.871 622.963 502.456 619.46 503.143 616.004C503.247 615.388 503.212 614.678 503.831 614.583C503.522 621.543 502.731 628.407 501.458 635.13C499.429 645.639 496.505 655.676 491.999 664.718C488.491 671.819 483.779 677.027 478.344 681.098C470.295 687.11 461.662 690.613 452.65 692.602C452.444 692.649 452.203 692.602 451.962 692.554V692.602Z" fill="#EA813B"/>
<path d="M15.2374 615.53C16.0973 615.862 16.0629 616.951 16.1661 617.803C18.161 633.71 22.5637 648.243 29.8557 660.931C36.3909 672.293 44.6803 680.577 54.4143 686.164C58.2667 688.389 62.1878 690.188 66.2121 691.655C66.6249 691.797 67.0032 691.845 67.072 692.555C63.8732 692.413 60.7776 691.324 57.7164 690.235C52.3162 688.247 46.9848 685.832 42.0318 682.234C37.8699 679.252 33.9488 675.749 30.6468 671.062C28.1359 667.511 26.0721 663.44 24.3179 659.132C19.8464 648.149 17.198 636.361 15.8221 623.957C15.5126 621.117 14.859 618.371 15.2374 615.483V615.53Z" fill="#EA813B"/>
</svg>
