<svg width="130" height="120" viewBox="0 0 130 120" fill="none" xmlns="http://www.w3.org/2000/svg">
<path d="M23.8309 24.3953C33.2861 24.3953 41.7254 23.2232 50.2429 23.4576C53.603 23.5358 52.8216 20.4882 52.9778 18.3784C53.5248 12.7522 54.8532 7.59484 59.3073 3.53146C64.3866 -1.07891 68.3718 -0.766346 73.0603 2.1249C81.2652 7.28227 88.6105 13.768 96.034 20.0975C101.191 24.4735 106.036 29.2401 110.881 33.9286C116.429 39.2423 121.821 44.9467 126.353 51.2761C132.683 60.028 129.791 64.4821 125.103 70.4209C120.414 76.2815 115.413 82.064 109.943 87.1433C99.0816 97.2236 88.1417 107.226 76.0297 116.056C65.3243 123.87 57.2757 117.384 54.2281 108.32C53.2123 105.194 53.056 101.912 52.4309 98.7083C51.962 96.4422 51.1024 96.4422 49.4615 96.4422C41.7254 96.4422 33.9112 96.1296 26.1752 96.5203C11.4064 97.3017 5.38944 89.6438 2.42004 77.4537C0.700922 69.9521 -0.62749 62.216 0.310213 54.48C1.32606 46.4314 2.42004 38.2265 6.95227 31.2718C11.0938 25.0986 17.3451 22.8325 23.7528 24.3953H23.8309ZM101.973 78.7039C102.285 78.4695 102.598 78.157 102.911 77.9225C103.145 77.6881 103.301 77.5318 103.536 77.2974C107.208 73.7029 111.037 70.1865 114.476 66.3575C115.96 64.7166 117.601 63.2319 117.757 60.4969C117.992 56.9805 115.882 55.027 113.85 52.9953C104.708 43.7745 95.7996 34.2412 85.8756 25.8019C81.2652 21.8167 76.5767 17.9096 71.7319 14.315C66.7308 10.5642 65.0898 11.4238 63.9177 17.7533C63.7614 18.3784 63.9177 19.0036 63.9958 19.7068L63.8396 22.8325C62.6674 23.3014 63.1363 24.3172 63.0581 25.1768C62.8237 32.2095 60.792 34.1631 53.7593 34.5538C43.2883 35.1789 32.7391 35.4133 22.2681 35.3352C16.9544 35.3352 14.8446 37.3669 14.2976 43.0713C12.5003 45.8062 12.8911 48.9319 12.4222 51.9013C10.9375 61.5909 11.9534 71.046 14.6102 80.2668C15.2353 82.611 16.9544 85.0334 20.002 84.9553C28.6757 84.6427 37.1932 86.2837 45.8669 85.8149C48.4456 85.6586 51.1024 85.5023 53.603 85.8149C59.3073 86.5963 62.98 86.5963 63.1363 95.27C63.1363 99.0208 63.527 102.85 65.2461 106.366C66.1838 108.242 66.809 109.179 69.0751 107.538C80.9526 99.0208 92.0488 89.6438 101.895 78.7821L101.973 78.7039Z" fill="black"/>
<path d="M113.85 53.0735C104.708 43.8528 95.7995 34.3194 85.8755 25.8801C81.2651 21.8949 76.5766 17.9878 71.7318 14.3933C66.7307 10.6424 65.0897 11.502 63.9176 17.8315C63.7613 18.4566 63.9176 19.0818 63.9958 19.785C63.9958 20.8009 63.9176 21.8167 63.8395 22.9107C62.6673 23.3796 63.1362 24.3954 63.058 25.255C62.8236 32.2878 60.7919 34.2413 53.7592 34.632C43.2882 35.2571 32.739 35.4916 22.268 35.4134C16.9543 35.4134 14.8445 37.4451 14.2975 43.1495C12.5002 45.8844 12.891 49.0101 12.4221 51.9795C10.9374 61.6691 11.9533 71.1243 14.6101 80.345C15.2352 82.6893 16.9543 85.1117 20.0019 85.0335C28.6756 84.721 37.1931 86.3619 45.8668 85.8931C48.4455 85.7368 51.1023 85.5805 53.6029 85.8931C59.3072 86.6745 62.9799 86.6745 63.1362 95.3483C63.1362 99.0991 63.5269 102.928 65.246 106.444C66.1837 108.32 66.8089 109.258 69.075 107.617C80.9525 99.0991 92.0487 89.722 101.895 78.8603C102.207 78.6259 102.52 78.3133 102.832 78.0789C103.067 77.8445 103.223 77.6882 103.457 77.4538C107.13 73.8592 110.959 70.3428 114.397 66.5139C115.882 64.8729 117.523 63.3882 117.679 60.6533C117.914 57.1369 115.804 55.1833 113.772 53.1516L113.85 53.0735Z" fill="#FF0048"/>
</svg>
