<svg width="193" height="69" viewBox="0 0 193 69" fill="none" xmlns="http://www.w3.org/2000/svg">
<g clip-path="url(#clip0_21_68)">
<path d="M189.537 22.8553C188.718 22.6965 188.514 22.2872 188.087 21.9697C184.147 19.0124 178.654 17.1578 171.643 16.3809C170.995 16.3057 170.278 16.3391 169.613 16.3391C120.791 16.3391 71.9699 16.3391 23.1484 16.3391C18.7985 16.3391 14.9433 17.0242 11.3781 18.2021C9.92809 18.6783 8.47811 19.1711 7.0452 19.664C6.56756 19.8228 6.48227 19.6807 6.43109 19.4969C7.07931 18.72 8.444 18.2355 9.67221 17.7343C12.8622 16.4394 16.5468 15.629 20.6579 15.2698C21.9032 15.1612 23.1143 15.1696 24.3596 15.1529C25.656 15.1362 26.9695 15.1779 28.283 15.1779C73.9487 15.1779 119.597 15.1779 165.263 15.1779C165.945 15.1779 166.628 15.1863 167.31 15.1779C172.82 15.0359 177.784 15.8295 182.151 17.4252C185.511 18.6532 188.019 20.2405 189.401 22.212C189.554 22.4376 189.537 22.6464 189.588 22.8636L189.537 22.8553Z" fill="white"/>
<path d="M2.49057 49.4043C2.54174 49.4711 2.60998 49.538 2.66115 49.5964C2.52468 49.5463 2.43939 49.4878 2.49057 49.4043Z" fill="#4A515E"/>
<path d="M108.646 59.7306C108.646 59.7221 108.663 59.705 108.68 59.6965C108.594 59.705 108.577 59.7306 108.646 59.7306Z" fill="#010001"/>
<path d="M190.475 26.8569C190.629 26.2554 190.39 24.9856 190.083 24.0332C190.339 25.0273 190.475 26.3389 190.475 26.8569Z" fill="#5E697E"/>
<path d="M2.43939 48.8696C2.43939 49.0534 2.47372 49.2289 2.49088 49.4126C2.49088 49.2289 2.45655 49.0534 2.43939 48.8696Z" fill="#5E697E"/>
<path d="M189.556 22.8722C189.556 22.8637 189.538 22.8552 189.52 22.8552C189.52 22.8552 189.538 22.8637 189.556 22.8722Z" fill="#5E697E"/>
<path d="M4.72523 52.754C4.36701 52.4449 4.04289 52.1358 3.7529 51.8184C4.04289 52.1358 4.38406 52.4449 4.72523 52.754Z" fill="#5E697E"/>
<path d="M188.599 52.5036C189.384 51.7434 189.947 50.9414 190.1 50.0642C189.947 50.933 189.384 51.7434 188.599 52.5036Z" fill="#4A515E"/>
<path d="M4.72522 52.7542C4.74228 52.7876 4.75934 52.821 4.79345 52.8544C4.7764 52.821 4.75934 52.7876 4.72522 52.7542Z" fill="#4A515E"/>
<path d="M192.3 23.3902C192.13 22.9892 192.044 22.5715 191.789 22.1705C190.458 20.0069 187.814 18.2525 184.351 16.824C179.95 15.0112 174.781 14.0922 169.033 14.0254C165.621 13.9836 162.226 14.0254 158.814 14.0254C138.088 14.0254 117.345 14.0254 96.6191 14.0254C75.4836 14.0254 54.3652 14.0254 33.2297 14.0254C30.6197 14.0254 28.0098 14.0839 25.3998 14.0505C17.8088 13.9335 11.3607 15.195 6.20902 17.91C2.16615 20.0403 -0.000279879 22.5966 -0.000279879 25.5456C-0.000279879 33.2229 -0.000279879 40.9086 -0.000279879 48.5859C-0.000279879 48.8616 -0.0343969 49.1456 0.0508957 49.4213C1.00617 52.0778 3.13849 54.417 7.24959 56.33C11.9748 58.5271 17.6041 59.6967 23.9669 59.7134C43.1236 59.7552 62.5533 59.7552 81.6247 59.7468C83.2964 60.8328 85.6676 62.37 86.7764 63.0968C89.5569 64.9096 92.3374 66.714 95.135 68.5185C96.1415 69.1701 97.0456 69.1785 98.0691 68.5436C99.0585 67.9337 100.014 67.2988 100.969 66.6723C104.449 64.4 107.946 62.1361 111.426 59.8554C111.494 59.8136 111.545 59.7719 111.614 59.7301C130.719 59.7301 149.671 59.7301 168.777 59.7301C169.34 59.7301 169.92 59.7552 170.482 59.7134C177.101 59.2456 182.884 58.0092 187.285 55.4445C190.765 53.4228 192.761 51.0921 192.812 48.4439C192.897 42.9052 192.932 37.3665 192.812 31.8361C192.744 29.0208 193.494 26.1888 192.283 23.3902H192.3ZM190.475 37.6087C190.475 41.1926 190.475 44.7681 190.475 48.352C190.475 48.5023 190.475 48.6444 190.475 48.7864C190.441 49.2208 190.356 49.6468 190.1 50.0729C189.946 50.9417 189.383 51.752 188.599 52.5123C188.343 52.7629 188.053 53.0135 187.763 53.2558C184.334 56.0627 179.216 57.7084 172.768 58.4269C171.37 58.5773 169.971 58.6107 168.555 58.6107C150.115 58.6107 131.862 58.6023 113.422 58.594C112.466 58.594 111.494 58.594 110.539 58.594C109.976 58.9699 109.413 59.3375 108.748 59.6633C108.731 59.6633 108.697 59.6633 108.679 59.6633C108.253 59.9222 108.117 60.0643 107.81 60.2731C107.758 60.3149 107.724 60.3567 107.673 60.3901C107.537 60.507 107.4 60.624 107.127 60.6908C106.496 61.2923 105.524 61.7768 104.722 62.3115C102.214 63.9656 99.6385 65.5946 97.1309 67.2403C96.7044 67.516 96.585 67.4743 96.2097 67.2236C92.3716 64.7258 88.4993 62.2363 84.6441 59.7385C84.3882 59.5714 84.1323 59.4127 83.8935 59.2456C83.5864 59.0451 83.1088 58.8864 82.9894 58.6107C82.9723 58.6023 82.9553 58.594 82.9382 58.5856C81.9829 58.5856 80.9424 58.5856 79.97 58.5856C64.9244 58.5856 49.7082 58.5856 34.6626 58.5856C31.0292 58.5856 27.3957 58.6608 23.7622 58.594C15.54 58.4436 9.33073 56.5639 5.01492 53.1472C4.91257 53.0636 4.8614 52.9634 4.79316 52.8631C4.7761 52.8297 4.75905 52.7963 4.72493 52.7629C4.3667 52.4538 4.04259 52.1447 3.75259 51.8272C3.10437 51.1338 2.66085 50.407 2.67791 49.6051C2.54144 49.5549 2.45615 49.4965 2.50732 49.4129C2.50732 49.2291 2.4732 49.0537 2.45615 48.8699C2.43909 48.6861 2.42203 48.5107 2.42203 48.3269C2.42203 40.5827 2.45615 32.8386 2.38791 25.0861C2.37085 23.0143 3.872 21.26 6.1749 19.6059C6.20902 19.5808 6.24314 19.5641 6.29431 19.5474C6.34549 19.5307 6.3796 19.514 6.43078 19.4973C7.079 18.7203 8.44368 18.2358 9.6719 17.7346C12.8618 16.4397 16.5465 15.6294 20.6576 15.2701C21.9028 15.1615 23.114 15.1699 24.3593 15.1532C25.6557 15.1365 26.9692 15.1783 28.2827 15.1783C73.9484 15.1783 119.597 15.1783 165.263 15.1783C165.945 15.1783 166.627 15.1866 167.31 15.1783C172.819 15.0362 177.784 15.8299 182.151 17.4255C185.511 18.6535 188.019 20.2408 189.4 22.2123C189.554 22.4379 189.537 22.6467 189.588 22.8639C189.588 22.8639 189.605 22.8723 189.622 22.8806C189.827 23.0227 189.997 23.4821 190.151 24.0418C190.458 24.9942 190.714 26.2724 190.543 26.8655C190.543 30.4494 190.543 34.0249 190.543 37.6087H190.475Z" fill="black"/>
<path d="M80.7209 57.2568C79.8339 57.2568 78.9297 57.2568 78.0427 57.2568C78.0427 57.2568 78.0427 57.2568 78.0257 57.2568C59.1248 57.2067 40.0534 57.474 21.1526 57.1065C19.9414 57.0814 18.8156 56.9644 17.6897 56.764C13.2204 55.9453 9.34808 54.6671 5.90226 53.0631C5.57815 52.9128 5.25403 52.7457 4.74228 52.7624C4.75934 52.7958 4.7764 52.8292 4.81051 52.8626C4.86169 52.9629 4.91286 53.0631 5.03227 53.1467C9.34808 56.5635 15.5574 58.4431 23.7796 58.5935C27.413 58.6603 31.0465 58.5851 34.68 58.5851C49.7256 58.5851 64.9418 58.5851 79.9874 58.5851C80.9768 58.5851 81.9662 58.5851 82.9556 58.5851C82.1709 58.1591 81.4203 57.7247 80.755 57.2568H80.7209Z" fill="#DBDCDD"/>
<path d="M188.923 50.8244C187.251 52.4952 184.948 53.907 181.929 55.0432C180.257 55.6781 178.483 56.2545 176.487 56.5469C173.229 57.0231 169.835 57.2236 166.457 57.2403C155.778 57.2821 145.1 57.257 134.421 57.257C127.99 57.257 121.73 57.257 115.281 57.2654C114.394 57.2654 113.507 57.2654 112.637 57.2654C112.262 57.541 111.784 57.7749 111.375 58.0339C111.085 58.2177 110.812 58.4015 110.539 58.5853C111.494 58.5853 112.467 58.5853 113.422 58.5853C131.862 58.5853 150.115 58.5853 168.555 58.602C169.971 58.602 171.387 58.5686 172.769 58.4182C179.217 57.6998 184.334 56.054 187.763 53.2471C188.053 53.0048 188.343 52.7542 188.599 52.5036C189.384 51.7434 189.947 50.9414 190.1 50.0642C189.281 50.1561 189.213 50.5487 188.923 50.8244Z" fill="#DBDCDD"/>
<path d="M84.7979 59.4959C84.252 59.1784 83.8767 58.7607 82.9897 58.6104C83.1091 58.886 83.5697 59.0448 83.8938 59.2453C84.1497 59.4123 84.4055 59.5711 84.6444 59.7381C84.832 59.7381 85.0196 59.7381 85.2073 59.7381C85.0708 59.6546 84.9514 59.5794 84.8149 59.4959H84.7979Z" fill="#494D61"/>
<path d="M90.4442 62.7707C90.2225 62.6872 90.0007 62.6036 89.7789 62.5117C90.0007 62.5953 90.4442 62.7707 90.4442 62.7707Z" fill="#494D61"/>
<path d="M106.496 60.8826C104.808 61.9603 102.743 62.8709 100.799 63.8232C99.5705 64.4164 98.4276 65.0429 97.0971 65.5859C96.5 65.895 96.2782 65.5442 95.92 65.4189C95.613 65.3186 90.4954 62.8709 90.4613 62.7623C90.4613 62.7623 89.3525 62.236 89.2843 62.1775C88.9943 62.094 88.7725 61.9854 88.619 61.8434C88.4655 61.8016 88.3631 61.7431 88.3119 61.6679C88.2949 61.6429 88.2778 61.6178 88.2778 61.5927C88.1584 61.5343 88.056 61.4841 87.9366 61.4257C87.4249 61.0998 86.9131 60.774 86.3843 60.4482C85.992 60.206 85.5996 59.9637 85.2073 59.7214C85.0196 59.7214 84.832 59.7214 84.6443 59.7214C88.4996 62.2193 92.3719 64.7088 96.21 67.2066C96.5853 67.4572 96.7047 67.499 97.1312 67.2233C99.6388 65.5692 102.215 63.9486 104.722 62.2945C105.541 61.7598 106.496 61.2753 107.127 60.6738C106.855 60.6905 106.65 60.7657 106.496 60.8659V60.8826Z" fill="#DBDCDD"/>
<path d="M190.475 37.6001C190.475 34.0162 190.475 30.4407 190.475 26.8569C190.475 26.3389 190.339 25.019 190.083 24.0332C189.895 23.4484 189.691 22.9806 189.554 22.872C189.554 22.872 189.537 22.8553 189.52 22.8553C188.701 22.6966 188.497 22.2872 188.087 21.9698C184.147 19.0125 178.654 17.1579 171.643 16.381C170.995 16.3058 170.278 16.3392 169.613 16.3392C120.791 16.3392 71.9699 16.3392 23.1484 16.3392C18.7985 16.3392 14.9433 17.0242 11.378 18.2021C9.92807 18.6783 8.47809 19.1712 7.04518 19.6641C6.56754 19.8228 6.48225 19.6808 6.43107 19.497C6.3799 19.5137 6.34578 19.5304 6.29461 19.5471C6.24343 19.5638 6.20931 19.5805 6.1752 19.6056C3.8723 21.2597 2.37115 23.0224 2.38821 25.0858C2.45644 32.83 2.42232 40.5741 2.42232 48.3266C2.42232 48.5104 2.42232 48.6859 2.45644 48.8696C2.49056 49.0534 2.49056 49.2289 2.50761 49.4127C2.55879 49.4795 2.62702 49.5463 2.6782 49.6048C2.66114 50.4068 3.10466 51.1252 3.75289 51.827C4.04288 52.1444 4.38405 52.4535 4.72522 52.7626C5.23698 52.7459 5.54403 52.913 5.8852 53.0634C9.33102 54.6673 13.2033 55.9455 17.6726 56.7642C18.7985 56.973 19.9244 57.0816 21.1355 57.1067C40.0363 57.4743 59.1078 57.1986 78.0086 57.2571C78.0086 57.2571 78.0086 57.2571 78.0257 57.2571C78.9127 57.2571 79.8168 57.2571 80.7038 57.2571C81.3862 57.7249 82.1368 58.1593 82.9044 58.5853C82.9214 58.5937 82.9385 58.602 82.9556 58.6104C83.8426 58.7608 84.2179 59.1785 84.7638 59.4959C84.9002 59.5711 85.0367 59.6546 85.1561 59.7382C85.5485 59.9805 85.9408 60.2227 86.3331 60.465C86.8449 60.7908 88.2437 61.6596 88.2608 61.6847C88.3119 61.7599 89.3696 62.3029 89.4207 62.353C89.5572 62.3697 90.666 63.038 90.666 63.038C90.8707 63.0547 95.5277 65.6361 95.8347 65.7364C96.2271 65.7948 96.6365 65.9703 97.0459 65.5943C98.3765 65.0513 99.5364 64.4248 100.748 63.8316C102.709 62.8793 104.756 61.9687 106.445 60.891C106.599 60.7908 106.803 60.7073 107.076 60.6989C107.332 60.6321 107.486 60.5151 107.622 60.3982C107.673 60.3564 108.543 59.7131 108.629 59.7048C109.328 59.3623 109.908 58.9863 110.488 58.5937C110.761 58.4099 111.034 58.2261 111.324 58.0423C111.733 57.7834 112.211 57.5411 112.586 57.2738C113.473 57.2738 114.36 57.2738 115.23 57.2738C121.661 57.2738 127.922 57.2654 134.353 57.2654C145.031 57.2654 155.71 57.2905 166.389 57.2487C169.766 57.2403 173.161 57.0398 176.419 56.5553C178.432 56.2629 180.189 55.6781 181.861 55.0516C184.88 53.9155 187.183 52.5036 188.855 50.8328C189.145 50.5488 189.213 50.1645 190.032 50.0726C190.288 49.6466 190.373 49.2205 190.407 48.7861C190.407 48.6441 190.407 48.4937 190.407 48.3517C190.407 44.7678 190.407 41.1923 190.407 37.6085L190.475 37.6001Z" fill="white"/>
<path d="M42.5 44.12C42.26 44.4267 42 44.7467 41.72 45.08C41.4533 45.4267 41.22 45.72 41.02 45.96C40.7533 45.5867 40.4733 45.2067 40.18 44.82C39.9 44.4333 39.6267 44.04 39.36 43.64L39.26 43.48C38.6467 44 38.0267 44.4 37.4 44.68C36.7867 44.9467 36.1933 45.08 35.62 45.08C35.18 45.08 34.78 45 34.42 44.84C34.06 44.6667 33.7467 44.42 33.48 44.1C33.2133 43.7667 33 43.3467 32.84 42.84C32.6933 42.32 32.62 41.7 32.62 40.98C32.62 40.2333 32.7133 39.4467 32.9 38.62C33.0867 37.7933 33.34 36.9733 33.66 36.16C33.98 35.3467 34.3733 34.5733 34.84 33.84C35.3067 33.1067 35.82 32.46 36.38 31.9C36.94 31.3267 37.54 30.8733 38.18 30.54C38.82 30.2067 39.4867 30.04 40.18 30.04C40.78 30.04 41.2733 30.1667 41.66 30.42C42.06 30.66 42.3667 30.98 42.58 31.38C42.8067 31.7667 42.9667 32.2067 43.06 32.7C43.1533 33.1933 43.2 33.6867 43.2 34.18C43.2 35.4867 43.04 36.6933 42.72 37.8C42.4 38.8933 41.9867 39.88 41.48 40.76L43.38 43C43.0867 43.3867 42.7933 43.76 42.5 44.12ZM35.6 40.46C35.6 40.6067 35.6267 40.76 35.68 40.92C35.7333 41.08 35.8067 41.22 35.9 41.34C35.9933 41.46 36.1067 41.5667 36.24 41.66C36.3867 41.74 36.54 41.78 36.7 41.78C37.1667 41.78 37.5933 41.6533 37.98 41.4L37.18 40.08C37.74 39.6533 38.1667 39.32 38.46 39.08C38.7667 38.84 38.9867 38.6667 39.12 38.56C39.28 38.4267 39.3733 38.3467 39.4 38.32L39.84 38.82C40.0133 38.3267 40.1533 37.82 40.26 37.3C40.3667 36.78 40.42 36.3 40.42 35.86C40.42 35.7 40.4067 35.5267 40.38 35.34C40.3667 35.1533 40.3267 34.98 40.26 34.82C40.2067 34.66 40.1133 34.5267 39.98 34.42C39.86 34.3 39.6933 34.24 39.48 34.24C39.0533 34.24 38.66 34.3467 38.3 34.56C37.94 34.7733 37.6133 35.06 37.32 35.42C37.04 35.7667 36.7933 36.1667 36.58 36.62C36.3667 37.06 36.18 37.5133 36.02 37.98C35.8733 38.4333 35.7667 38.88 35.7 39.32C35.6333 39.76 35.6 40.14 35.6 40.46ZM50.7106 41.1C50.524 41.86 50.2573 42.5067 49.9106 43.04C49.5773 43.5733 49.1773 44.0133 48.7106 44.36C48.2573 44.7067 47.7706 44.96 47.2506 45.12C46.7306 45.28 46.2106 45.36 45.6906 45.36C45.384 45.36 45.0706 45.3067 44.7506 45.2C44.4306 45.1067 44.144 44.96 43.8906 44.76C43.6373 44.56 43.424 44.3067 43.2506 44C43.0906 43.6933 43.0106 43.3333 43.0106 42.92C43.0106 42.8667 43.0106 42.8133 43.0106 42.76C43.0106 42.7067 43.0173 42.6533 43.0306 42.6C43.084 42.0533 43.1706 41.3933 43.2906 40.62C43.4106 39.8467 43.5373 39.04 43.6706 38.2C43.804 37.36 43.9506 36.52 44.1106 35.68C44.2706 34.8267 44.4106 34.0533 44.5306 33.36C44.664 32.6667 44.7773 32.0933 44.8706 31.64C44.964 31.1733 45.024 30.8867 45.0506 30.78C45.3306 30.7533 45.664 30.72 46.0506 30.68C46.4373 30.64 46.7973 30.6067 47.1306 30.58C47.544 30.54 47.9506 30.5 48.3506 30.46C48.004 32.0733 47.6973 33.5333 47.4306 34.84C47.3106 35.4 47.1906 35.96 47.0706 36.52C46.964 37.08 46.8573 37.5933 46.7506 38.06C46.6573 38.5267 46.5706 38.9333 46.4906 39.28C46.424 39.6133 46.364 39.8867 46.3106 40.1C46.2706 40.3133 46.2173 40.5867 46.1506 40.92C46.0973 41.24 46.0706 41.5333 46.0706 41.8C46.0706 42.0133 46.124 42.1933 46.2306 42.34C46.3373 42.4733 46.4706 42.54 46.6306 42.54C46.8573 42.54 47.044 42.4533 47.1906 42.28C47.3373 42.0933 47.4573 41.8733 47.5506 41.62C47.6573 41.3667 47.7306 41.1133 47.7706 40.86C47.824 40.5933 47.8706 40.3867 47.9106 40.24C47.9906 39.8533 48.0773 39.4267 48.1706 38.96C48.2773 38.48 48.3773 37.9867 48.4706 37.48C48.5773 36.96 48.6773 36.4333 48.7706 35.9C48.8773 35.3667 48.9773 34.8467 49.0706 34.34C49.2973 33.1667 49.5173 31.9533 49.7306 30.7L52.7706 30.5C52.7706 30.5 52.7373 30.6733 52.6706 31.02C52.604 31.3667 52.5173 31.8267 52.4106 32.4C52.304 32.9733 52.184 33.6267 52.0506 34.36C51.9306 35.0933 51.7906 35.86 51.6306 36.66C51.4706 37.4467 51.3106 38.2267 51.1506 39C51.004 39.76 50.8573 40.46 50.7106 41.1ZM50.9295 45.02L53.5495 30.8L59.8695 30.26C59.7762 30.5533 59.6962 30.8533 59.6295 31.16C59.5629 31.4133 59.4962 31.68 59.4295 31.96C59.3762 32.2267 59.3295 32.4667 59.2895 32.68C59.1562 32.6933 58.9629 32.7067 58.7095 32.72C58.4695 32.72 58.2095 32.7267 57.9295 32.74C57.6495 32.74 57.3629 32.74 57.0695 32.74C56.7895 32.74 56.5429 32.74 56.3295 32.74L55.6295 36.32C56.0429 36.2933 56.4295 36.2733 56.7895 36.26C57.0829 36.2467 57.3829 36.24 57.6895 36.24C57.9962 36.24 58.2229 36.2333 58.3695 36.22C58.3162 36.5933 58.2629 36.96 58.2095 37.32C58.1695 37.68 58.1162 38.0467 58.0495 38.42C57.9162 38.4333 57.6962 38.4467 57.3895 38.46C57.0962 38.46 56.7962 38.4667 56.4895 38.48C56.1429 38.4933 55.7629 38.5067 55.3495 38.52L54.6695 42.2L57.5895 41.74L57.3895 44.02L50.9295 45.02ZM66.4459 40.06C66.4459 40.8067 66.2993 41.4867 66.0059 42.1C65.7259 42.7 65.3393 43.22 64.8459 43.66C64.3659 44.1 63.7926 44.44 63.1259 44.68C62.4726 44.92 61.7659 45.04 61.0059 45.04C60.4726 45.04 59.9393 44.9 59.4059 44.62C58.8726 44.3267 58.3593 43.8667 57.8659 43.24L59.3459 40.34C59.4393 40.5133 59.5793 40.6933 59.7659 40.88C59.9526 41.0533 60.1593 41.2067 60.3859 41.34C60.6259 41.4733 60.8593 41.5867 61.0859 41.68C61.3259 41.76 61.5393 41.8 61.7259 41.8C61.8859 41.8 62.0526 41.7733 62.2259 41.72C62.3993 41.6667 62.5593 41.5867 62.7059 41.48C62.8526 41.3733 62.9659 41.2533 63.0459 41.12C63.1393 40.9733 63.1859 40.8067 63.1859 40.62C63.1859 40.3 63.0793 40.0067 62.8659 39.74C62.6659 39.46 62.4126 39.2 62.1059 38.96C61.7993 38.7067 61.4659 38.4533 61.1059 38.2C60.7459 37.9467 60.4126 37.68 60.1059 37.4C59.8126 37.12 59.5593 36.8067 59.3459 36.46C59.1326 36.1133 59.0259 35.7267 59.0259 35.3C59.0259 34.6067 59.2326 33.96 59.6459 33.36C60.0593 32.76 60.5726 32.2467 61.1859 31.82C61.8126 31.38 62.4926 31.0333 63.2259 30.78C63.9593 30.5267 64.6526 30.4 65.3059 30.4C65.6659 30.4 66.0059 30.4467 66.3259 30.54C66.6459 30.62 66.9193 30.76 67.1459 30.96C67.3859 31.1467 67.5726 31.3867 67.7059 31.68C67.8526 31.9733 67.9259 32.34 67.9259 32.78C67.9259 32.9667 67.9059 33.1533 67.8659 33.34C67.8393 33.5267 67.8126 33.7267 67.7859 33.94L64.8859 34.78C64.9126 34.6733 64.9326 34.5667 64.9459 34.46C64.9726 34.3533 64.9859 34.2467 64.9859 34.14C64.9859 33.74 64.9126 33.4533 64.7659 33.28C64.6326 33.0933 64.4526 33 64.2259 33C64.1193 33 63.9859 33.04 63.8259 33.12C63.6793 33.2 63.5259 33.3067 63.3659 33.44C63.2193 33.56 63.0926 33.7067 62.9859 33.88C62.8793 34.0533 62.8259 34.24 62.8259 34.44C62.8259 34.76 62.9126 35.0267 63.0859 35.24C63.2726 35.4533 63.4993 35.6533 63.7659 35.84C64.0326 36.0267 64.3193 36.22 64.6259 36.42C64.9459 36.6067 65.2393 36.8533 65.5059 37.16C65.7726 37.4667 65.9926 37.8533 66.1659 38.32C66.3526 38.7733 66.4459 39.3533 66.4459 40.06ZM67.9797 45.02C68.2864 43.5533 68.5797 42.1067 68.8597 40.68C68.9797 40.08 69.0997 39.4533 69.2197 38.8C69.3397 38.1467 69.453 37.5067 69.5597 36.88C69.6797 36.24 69.7797 35.6267 69.8597 35.04C69.953 34.44 70.033 33.8933 70.0997 33.4C69.793 33.36 69.4797 33.3467 69.1597 33.36C68.853 33.3733 68.5464 33.3333 68.2397 33.24C68.253 33.0267 68.2597 32.78 68.2597 32.5C68.2597 32.22 68.2664 31.94 68.2797 31.66C68.293 31.3533 68.3064 31.0267 68.3197 30.68C68.6664 30.7067 69.013 30.7267 69.3597 30.74C69.7064 30.7533 70.053 30.76 70.3997 30.76C71.0797 30.76 71.733 30.7467 72.3597 30.72C72.9997 30.68 73.5864 30.64 74.1197 30.6C74.6664 30.5467 75.1997 30.4867 75.7197 30.42L75.4997 31.5C75.433 31.8067 75.3664 32.12 75.2997 32.44C75.2464 32.76 75.193 33.0333 75.1397 33.26C74.8464 33.34 74.5464 33.4 74.2397 33.44C73.9464 33.4667 73.653 33.5067 73.3597 33.56C73.2664 34.0133 73.1664 34.52 73.0597 35.08C72.953 35.6267 72.8464 36.2 72.7397 36.8C72.6464 37.3867 72.553 37.9867 72.4597 38.6C72.3664 39.2133 72.273 39.8 72.1797 40.36C71.9664 41.68 71.7664 43.0467 71.5797 44.46L67.9797 45.02ZM76.4881 44.6C76.3681 44.6 76.1348 44.62 75.7881 44.66C75.4415 44.6867 75.0815 44.7267 74.7081 44.78C74.3348 44.82 73.9948 44.86 73.6881 44.9C73.3948 44.94 73.2348 44.9667 73.2081 44.98C73.3681 44.4067 73.5281 43.7733 73.6881 43.08C73.8481 42.3733 74.0081 41.64 74.1681 40.88C74.3415 40.1067 74.5015 39.3267 74.6481 38.54C74.8081 37.7533 74.9615 36.9933 75.1081 36.26C75.4415 34.5533 75.7681 32.8 76.0881 31L79.2081 30.5C78.8615 32.2867 78.5148 34.04 78.1681 35.76C78.0215 36.4933 77.8681 37.2533 77.7081 38.04C77.5615 38.8267 77.4148 39.6067 77.2681 40.38C77.1348 41.1533 76.9948 41.9067 76.8481 42.64C76.7148 43.36 76.5948 44.0133 76.4881 44.6ZM88.532 34.18C88.532 35.2733 88.412 36.3067 88.172 37.28C87.9454 38.24 87.6387 39.1267 87.252 39.94C86.8654 40.74 86.412 41.46 85.892 42.1C85.3854 42.7267 84.852 43.2667 84.292 43.72C83.732 44.16 83.1654 44.5 82.592 44.74C82.0187 44.9667 81.472 45.08 80.952 45.08C80.512 45.08 80.112 45 79.752 44.84C79.392 44.6667 79.0787 44.42 78.812 44.1C78.5454 43.7667 78.332 43.3467 78.172 42.84C78.0254 42.32 77.952 41.7 77.952 40.98C77.952 40.2333 78.0454 39.4467 78.232 38.62C78.4187 37.7933 78.672 36.9733 78.992 36.16C79.312 35.3467 79.7054 34.5733 80.172 33.84C80.6387 33.1067 81.152 32.46 81.712 31.9C82.272 31.3267 82.872 30.8733 83.512 30.54C84.152 30.2067 84.8187 30.04 85.512 30.04C86.112 30.04 86.6054 30.1667 86.992 30.42C87.392 30.66 87.6987 30.98 87.912 31.38C88.1387 31.7667 88.2987 32.2067 88.392 32.7C88.4854 33.1933 88.532 33.6867 88.532 34.18ZM80.932 40.46C80.932 40.6067 80.9587 40.76 81.012 40.92C81.0654 41.08 81.1387 41.22 81.232 41.34C81.3254 41.46 81.4387 41.5667 81.572 41.66C81.7187 41.74 81.872 41.78 82.032 41.78C82.632 41.78 83.1654 41.5733 83.632 41.16C84.0987 40.7467 84.4854 40.24 84.792 39.64C85.0987 39.04 85.332 38.4 85.492 37.72C85.6654 37.04 85.752 36.42 85.752 35.86C85.752 35.7 85.7387 35.5267 85.712 35.34C85.6987 35.1533 85.6587 34.98 85.592 34.82C85.5387 34.66 85.4454 34.5267 85.312 34.42C85.192 34.3 85.0254 34.24 84.812 34.24C84.3854 34.24 83.992 34.3467 83.632 34.56C83.272 34.7733 82.9454 35.06 82.652 35.42C82.372 35.7667 82.1254 36.1667 81.912 36.62C81.6987 37.06 81.512 37.5133 81.352 37.98C81.2054 38.4333 81.0987 38.88 81.032 39.32C80.9654 39.76 80.932 40.14 80.932 40.46ZM87.3153 45.1C87.6886 43.22 88.0486 41.3867 88.3953 39.6C88.5286 38.8533 88.6686 38.0733 88.8153 37.26C88.9753 36.4333 89.122 35.6267 89.2553 34.84C89.3886 34.04 89.5086 33.2733 89.6153 32.54C89.7353 31.7933 89.8286 31.1133 89.8953 30.5C90.3086 30.4733 90.7086 30.4467 91.0953 30.42C91.442 30.3933 91.7953 30.3733 92.1553 30.36C92.5153 30.3333 92.8353 30.3067 93.1153 30.28C93.2886 31.3067 93.442 32.2867 93.5753 33.22C93.642 33.62 93.7086 34.04 93.7753 34.48C93.8553 34.9067 93.9286 35.32 93.9953 35.72C94.062 36.12 94.1286 36.5067 94.1953 36.88C94.262 37.24 94.3286 37.56 94.3953 37.84C94.4486 37.56 94.5086 37.24 94.5753 36.88C94.642 36.5067 94.7153 36.12 94.7953 35.72C94.8753 35.3067 94.9553 34.8867 95.0353 34.46C95.1286 34.0333 95.2153 33.62 95.2953 33.22C95.4953 32.2867 95.702 31.3133 95.9153 30.3L98.3553 30C97.902 32 97.502 33.8933 97.1553 35.68C96.9953 36.4533 96.8353 37.2333 96.6753 38.02C96.5286 38.8067 96.3886 39.5667 96.2553 40.3C96.122 41.0333 96.0086 41.7133 95.9153 42.34C95.822 42.9533 95.7486 43.4733 95.6953 43.9C95.6553 43.9 95.4953 43.9333 95.2153 44C94.9486 44.0533 94.6353 44.12 94.2753 44.2C93.9286 44.28 93.5753 44.3667 93.2153 44.46C92.8686 44.54 92.6086 44.6067 92.4353 44.66C92.342 43.58 92.242 42.5533 92.1353 41.58C92.0953 41.1667 92.0486 40.74 91.9953 40.3C91.942 39.86 91.8886 39.44 91.8353 39.04C91.7953 38.64 91.7486 38.2667 91.6953 37.92C91.6553 37.56 91.6153 37.26 91.5753 37.02C91.5353 37.26 91.482 37.5533 91.4153 37.9C91.3486 38.2467 91.282 38.62 91.2153 39.02C91.1486 39.4067 91.082 39.8133 91.0153 40.24C90.9486 40.6533 90.8753 41.06 90.7953 41.46C90.622 42.4067 90.4353 43.3933 90.2353 44.42L87.3153 45.1ZM109.024 40.06C109.024 40.8067 108.877 41.4867 108.584 42.1C108.304 42.7 107.917 43.22 107.424 43.66C106.944 44.1 106.371 44.44 105.704 44.68C105.051 44.92 104.344 45.04 103.584 45.04C103.051 45.04 102.517 44.9 101.984 44.62C101.451 44.3267 100.937 43.8667 100.444 43.24L101.924 40.34C102.017 40.5133 102.157 40.6933 102.344 40.88C102.531 41.0533 102.737 41.2067 102.964 41.34C103.204 41.4733 103.437 41.5867 103.664 41.68C103.904 41.76 104.117 41.8 104.304 41.8C104.464 41.8 104.631 41.7733 104.804 41.72C104.977 41.6667 105.137 41.5867 105.284 41.48C105.431 41.3733 105.544 41.2533 105.624 41.12C105.717 40.9733 105.764 40.8067 105.764 40.62C105.764 40.3 105.657 40.0067 105.444 39.74C105.244 39.46 104.991 39.2 104.684 38.96C104.377 38.7067 104.044 38.4533 103.684 38.2C103.324 37.9467 102.991 37.68 102.684 37.4C102.391 37.12 102.137 36.8067 101.924 36.46C101.711 36.1133 101.604 35.7267 101.604 35.3C101.604 34.6067 101.811 33.96 102.224 33.36C102.637 32.76 103.151 32.2467 103.764 31.82C104.391 31.38 105.071 31.0333 105.804 30.78C106.537 30.5267 107.231 30.4 107.884 30.4C108.244 30.4 108.584 30.4467 108.904 30.54C109.224 30.62 109.497 30.76 109.724 30.96C109.964 31.1467 110.151 31.3867 110.284 31.68C110.431 31.9733 110.504 32.34 110.504 32.78C110.504 32.9667 110.484 33.1533 110.444 33.34C110.417 33.5267 110.391 33.7267 110.364 33.94L107.464 34.78C107.491 34.6733 107.511 34.5667 107.524 34.46C107.551 34.3533 107.564 34.2467 107.564 34.14C107.564 33.74 107.491 33.4533 107.344 33.28C107.211 33.0933 107.031 33 106.804 33C106.697 33 106.564 33.04 106.404 33.12C106.257 33.2 106.104 33.3067 105.944 33.44C105.797 33.56 105.671 33.7067 105.564 33.88C105.457 34.0533 105.404 34.24 105.404 34.44C105.404 34.76 105.491 35.0267 105.664 35.24C105.851 35.4533 106.077 35.6533 106.344 35.84C106.611 36.0267 106.897 36.22 107.204 36.42C107.524 36.6067 107.817 36.8533 108.084 37.16C108.351 37.4667 108.571 37.8533 108.744 38.32C108.931 38.7733 109.024 39.3533 109.024 40.06ZM117.078 41.1C116.891 41.86 116.624 42.5067 116.278 43.04C115.944 43.5733 115.544 44.0133 115.078 44.36C114.624 44.7067 114.138 44.96 113.618 45.12C113.098 45.28 112.578 45.36 112.058 45.36C111.751 45.36 111.438 45.3067 111.118 45.2C110.798 45.1067 110.511 44.96 110.258 44.76C110.004 44.56 109.791 44.3067 109.618 44C109.458 43.6933 109.378 43.3333 109.378 42.92C109.378 42.8667 109.378 42.8133 109.378 42.76C109.378 42.7067 109.384 42.6533 109.398 42.6C109.451 42.0533 109.538 41.3933 109.658 40.62C109.778 39.8467 109.904 39.04 110.038 38.2C110.171 37.36 110.318 36.52 110.478 35.68C110.638 34.8267 110.778 34.0533 110.898 33.36C111.031 32.6667 111.144 32.0933 111.238 31.64C111.331 31.1733 111.391 30.8867 111.418 30.78C111.698 30.7533 112.031 30.72 112.418 30.68C112.804 30.64 113.164 30.6067 113.498 30.58C113.911 30.54 114.318 30.5 114.718 30.46C114.371 32.0733 114.064 33.5333 113.798 34.84C113.678 35.4 113.558 35.96 113.438 36.52C113.331 37.08 113.224 37.5933 113.118 38.06C113.024 38.5267 112.938 38.9333 112.858 39.28C112.791 39.6133 112.731 39.8867 112.678 40.1C112.638 40.3133 112.584 40.5867 112.518 40.92C112.464 41.24 112.438 41.5333 112.438 41.8C112.438 42.0133 112.491 42.1933 112.598 42.34C112.704 42.4733 112.838 42.54 112.998 42.54C113.224 42.54 113.411 42.4533 113.558 42.28C113.704 42.0933 113.824 41.8733 113.918 41.62C114.024 41.3667 114.098 41.1133 114.138 40.86C114.191 40.5933 114.238 40.3867 114.278 40.24C114.358 39.8533 114.444 39.4267 114.538 38.96C114.644 38.48 114.744 37.9867 114.838 37.48C114.944 36.96 115.044 36.4333 115.138 35.9C115.244 35.3667 115.344 34.8467 115.438 34.34C115.664 33.1667 115.884 31.9533 116.098 30.7L119.138 30.5C119.138 30.5 119.104 30.6733 119.038 31.02C118.971 31.3667 118.884 31.8267 118.778 32.4C118.671 32.9733 118.551 33.6267 118.418 34.36C118.298 35.0933 118.158 35.86 117.998 36.66C117.838 37.4467 117.678 38.2267 117.518 39C117.371 39.76 117.224 40.46 117.078 41.1ZM120.297 44.6C120.177 44.6 119.943 44.62 119.597 44.66C119.25 44.6867 118.89 44.7267 118.517 44.78C118.143 44.82 117.803 44.86 117.497 44.9C117.203 44.94 117.043 44.9667 117.017 44.98C117.177 44.4067 117.337 43.7733 117.497 43.08C117.657 42.3733 117.817 41.64 117.977 40.88C118.15 40.1067 118.31 39.3267 118.457 38.54C118.617 37.7533 118.77 36.9933 118.917 36.26C119.25 34.5533 119.577 32.8 119.897 31L123.017 30.5C122.67 32.2867 122.323 34.04 121.977 35.76C121.83 36.4933 121.677 37.2533 121.517 38.04C121.37 38.8267 121.223 39.6067 121.077 40.38C120.943 41.1533 120.803 41.9067 120.657 42.64C120.523 43.36 120.403 44.0133 120.297 44.6ZM122.321 45.18C122.494 43.3133 122.654 41.48 122.801 39.68C122.867 38.9333 122.927 38.1467 122.981 37.32C123.047 36.4933 123.101 35.68 123.141 34.88C123.194 34.0667 123.234 33.2867 123.261 32.54C123.287 31.78 123.307 31.0867 123.321 30.46C123.641 30.46 123.981 30.4533 124.341 30.44C124.714 30.4267 125.047 30.4133 125.341 30.4C125.647 30.3867 125.907 30.3733 126.121 30.36C126.334 30.3333 126.441 30.32 126.441 30.32C126.294 31.8667 126.167 33.14 126.061 34.14C125.954 35.1267 125.867 35.9333 125.801 36.56C125.747 37.1733 125.694 37.7667 125.641 38.34C125.601 38.9133 125.554 39.4467 125.501 39.94C125.447 40.4333 125.401 40.8533 125.361 41.2H125.721L127.961 30.56C128.321 30.5467 128.687 30.5267 129.061 30.5C129.394 30.4733 129.741 30.4533 130.101 30.44C130.474 30.4267 130.814 30.4 131.121 30.36C130.934 30.9467 130.741 31.5933 130.541 32.3C130.354 33.0067 130.154 33.74 129.941 34.5C129.741 35.26 129.541 36.0333 129.341 36.82C129.154 37.6067 128.967 38.3667 128.781 39.1C128.354 40.82 127.927 42.5867 127.501 44.4L122.321 45.18ZM135.942 44.6C135.609 44.6533 135.242 44.7133 134.842 44.78C134.442 44.8467 134.082 44.9067 133.762 44.96C133.815 44.52 133.869 44.0867 133.922 43.66C133.962 43.2867 133.995 42.9133 134.022 42.54C134.062 42.1667 134.095 41.8467 134.122 41.58H132.382L131.582 44.46C131.289 44.5 130.942 44.5467 130.542 44.6C130.142 44.64 129.769 44.68 129.422 44.72C128.995 44.7733 128.575 44.8267 128.162 44.88C128.695 43.1067 129.222 41.36 129.742 39.64C129.955 38.92 130.175 38.1667 130.402 37.38C130.642 36.5933 130.875 35.8133 131.102 35.04C131.342 34.2533 131.569 33.5 131.782 32.78C131.995 32.06 132.182 31.4 132.342 30.8C133.249 30.7333 134.169 30.6533 135.102 30.56C136.049 30.4667 136.969 30.34 137.862 30.18C137.822 30.6067 137.775 31.14 137.722 31.78C137.682 32.4067 137.642 33.0933 137.602 33.84C137.562 34.5867 137.522 35.3667 137.482 36.18C137.442 36.9933 137.402 37.7933 137.362 38.58C137.295 40.42 137.222 42.3733 137.142 44.44C136.742 44.5067 136.342 44.56 135.942 44.6ZM132.862 39.58C132.915 39.58 133.009 39.58 133.142 39.58C133.289 39.5667 133.435 39.56 133.582 39.56C133.742 39.5467 133.889 39.54 134.022 39.54C134.155 39.5267 134.249 39.5133 134.302 39.5C134.302 39.42 134.309 39.2867 134.322 39.1C134.349 38.9 134.369 38.68 134.382 38.44C134.409 38.1867 134.435 37.9133 134.462 37.62C134.489 37.3267 134.515 37.04 134.542 36.76C134.595 36.08 134.662 35.3467 134.742 34.56L134.862 32.82L134.562 32.84L134.102 34.56L132.862 39.58ZM137.354 45.1C137.728 43.22 138.088 41.3867 138.434 39.6C138.568 38.8533 138.708 38.0733 138.854 37.26C139.014 36.4333 139.161 35.6267 139.294 34.84C139.428 34.04 139.548 33.2733 139.654 32.54C139.774 31.7933 139.868 31.1133 139.934 30.5C140.348 30.4733 140.748 30.4467 141.134 30.42C141.481 30.3933 141.834 30.3733 142.194 30.36C142.554 30.3333 142.874 30.3067 143.154 30.28C143.328 31.3067 143.481 32.2867 143.614 33.22C143.681 33.62 143.748 34.04 143.814 34.48C143.894 34.9067 143.968 35.32 144.034 35.72C144.101 36.12 144.168 36.5067 144.234 36.88C144.301 37.24 144.368 37.56 144.434 37.84C144.488 37.56 144.548 37.24 144.614 36.88C144.681 36.5067 144.754 36.12 144.834 35.72C144.914 35.3067 144.994 34.8867 145.074 34.46C145.168 34.0333 145.254 33.62 145.334 33.22C145.534 32.2867 145.741 31.3133 145.954 30.3L148.394 30C147.941 32 147.541 33.8933 147.194 35.68C147.034 36.4533 146.874 37.2333 146.714 38.02C146.568 38.8067 146.428 39.5667 146.294 40.3C146.161 41.0333 146.048 41.7133 145.954 42.34C145.861 42.9533 145.788 43.4733 145.734 43.9C145.694 43.9 145.534 43.9333 145.254 44C144.988 44.0533 144.674 44.12 144.314 44.2C143.968 44.28 143.614 44.3667 143.254 44.46C142.908 44.54 142.648 44.6067 142.474 44.66C142.381 43.58 142.281 42.5533 142.174 41.58C142.134 41.1667 142.088 40.74 142.034 40.3C141.981 39.86 141.928 39.44 141.874 39.04C141.834 38.64 141.788 38.2667 141.734 37.92C141.694 37.56 141.654 37.26 141.614 37.02C141.574 37.26 141.521 37.5533 141.454 37.9C141.388 38.2467 141.321 38.62 141.254 39.02C141.188 39.4067 141.121 39.8133 141.054 40.24C140.988 40.6533 140.914 41.06 140.834 41.46C140.661 42.4067 140.474 43.3933 140.274 44.42L137.354 45.1ZM148.097 45.02C148.404 43.5533 148.697 42.1067 148.977 40.68C149.097 40.08 149.217 39.4533 149.337 38.8C149.457 38.1467 149.57 37.5067 149.677 36.88C149.797 36.24 149.897 35.6267 149.977 35.04C150.07 34.44 150.15 33.8933 150.217 33.4C149.91 33.36 149.597 33.3467 149.277 33.36C148.97 33.3733 148.664 33.3333 148.357 33.24C148.37 33.0267 148.377 32.78 148.377 32.5C148.377 32.22 148.384 31.94 148.397 31.66C148.41 31.3533 148.424 31.0267 148.437 30.68C148.784 30.7067 149.13 30.7267 149.477 30.74C149.824 30.7533 150.17 30.76 150.517 30.76C151.197 30.76 151.85 30.7467 152.477 30.72C153.117 30.68 153.704 30.64 154.237 30.6C154.784 30.5467 155.317 30.4867 155.837 30.42L155.617 31.5C155.55 31.8067 155.484 32.12 155.417 32.44C155.364 32.76 155.31 33.0333 155.257 33.26C154.964 33.34 154.664 33.4 154.357 33.44C154.064 33.4667 153.77 33.5067 153.477 33.56C153.384 34.0133 153.284 34.52 153.177 35.08C153.07 35.6267 152.964 36.2 152.857 36.8C152.764 37.3867 152.67 37.9867 152.577 38.6C152.484 39.2133 152.39 39.8 152.297 40.36C152.084 41.68 151.884 43.0467 151.697 44.46L148.097 45.02ZM153.703 45.02L156.323 30.8L162.643 30.26C162.55 30.5533 162.47 30.8533 162.403 31.16C162.336 31.4133 162.27 31.68 162.203 31.96C162.15 32.2267 162.103 32.4667 162.063 32.68C161.93 32.6933 161.736 32.7067 161.483 32.72C161.243 32.72 160.983 32.7267 160.703 32.74C160.423 32.74 160.136 32.74 159.843 32.74C159.563 32.74 159.316 32.74 159.103 32.74L158.403 36.32C158.816 36.2933 159.203 36.2733 159.563 36.26C159.856 36.2467 160.156 36.24 160.463 36.24C160.77 36.24 160.996 36.2333 161.143 36.22C161.09 36.5933 161.036 36.96 160.983 37.32C160.943 37.68 160.89 38.0467 160.823 38.42C160.69 38.4333 160.47 38.4467 160.163 38.46C159.87 38.46 159.57 38.4667 159.263 38.48C158.916 38.4933 158.536 38.5067 158.123 38.52L157.443 42.2L160.363 41.74L160.163 44.02L153.703 45.02Z" fill="black"/>
</g>
<defs>
<clipPath id="clip0_21_68">
<rect width="193" height="69" fill="white"/>
</clipPath>
</defs>
</svg>
