<svg width="675" height="132" viewBox="0 0 675 132" fill="none" xmlns="http://www.w3.org/2000/svg">
<path d="M336.592 131.058C236.038 131.058 135.425 131.058 34.8714 131.058C25.4794 131.058 16.6743 127.358 10.0411 114.858C4.87549 104.958 1.58826 93.5585 0.531656 80.3585C-0.407551 69.2585 0.00335194 58.3585 0.942559 47.2585C1.82307 36.7585 4.87549 28.5585 8.33882 20.7585C12.3304 11.6585 17.6722 4.95846 24.5401 2.75846C26.3012 2.15846 28.1209 1.15846 29.8819 1.35846C33.9909 1.75846 37.9825 0.158455 42.0329 0.158455C106.662 0.258455 171.233 0.158455 235.862 0.358455C256.994 0.358455 278.067 1.75846 299.2 0.958455C322.973 0.0584553 346.806 0.0584552 370.579 0.458455C434.093 1.35846 497.548 -0.541545 561.062 0.158455C585.306 0.458455 609.549 -0.0415448 633.792 0.358455C639.31 0.358455 644.887 0.858455 650.404 3.05846C658.446 6.25846 664.61 14.1585 668.425 25.8585C677.113 52.5585 677.407 79.9585 668.015 106.558C662.732 121.658 654.572 129.358 644.124 130.158C619.939 132.258 595.696 130.958 571.511 131.058C493.205 131.258 414.898 131.058 336.651 131.058H336.592ZM663.319 37.0585C663.26 35.3585 662.673 34.0585 662.145 32.6585C656.803 18.6585 648.878 13.1585 639.486 13.1585C439.963 13.1585 240.44 13.1585 40.9176 13.1585C37.1607 13.1585 33.4039 13.0585 29.5884 13.9585C20.9007 16.0585 14.8546 23.8585 10.9803 37.0585C6.75391 49.4585 7.28221 63.0585 7.63441 76.5585C7.75181 81.0585 8.16272 86.0585 9.92373 90.0585C12.213 101.958 16.6156 110.658 23.6009 115.058C29.2362 118.558 35.0475 118.158 40.9763 118.258C110.125 118.558 179.333 117.258 248.482 118.858C267.208 119.258 285.992 119.058 304.717 118.558C329.019 117.858 353.321 118.158 377.623 118.958C396.936 119.558 416.307 118.658 435.619 118.558C501.775 118.058 567.93 118.158 634.086 118.358C638.019 118.358 641.952 118.258 645.885 117.358C658.446 114.558 666.136 93.4585 666.488 74.2585C667.428 62.1585 667.017 50.3585 663.612 39.2585C663.729 38.4585 663.788 37.6585 663.142 37.2585L663.319 37.0585Z" fill="#01120A"/>
<path d="M10.0411 90.0584C12.5066 91.7584 14.0328 95.7584 16.2634 98.1584C21.0768 103.458 26.3012 106.058 31.9951 106.058C221.48 106.058 410.965 106.058 600.45 106.058C613.834 106.058 627.218 106.058 640.602 106.058C644.182 106.058 647.528 104.758 650.933 103.558C655.922 101.758 658.153 94.6584 661.088 88.6584C663.319 84.0584 664.375 78.2584 666.723 73.8584C666.371 93.0584 658.623 114.158 646.119 116.958C642.186 117.858 638.312 117.958 634.321 117.958C568.165 117.858 502.01 117.658 435.854 118.158C416.542 118.358 397.171 119.258 377.858 118.558C353.556 117.758 329.254 117.558 304.952 118.158C286.227 118.658 267.443 118.858 248.717 118.458C179.568 116.958 110.36 118.158 41.2111 117.858C35.2823 117.858 29.471 118.258 23.8357 114.658C16.8504 110.258 12.4479 101.558 10.1585 89.6584L10.0411 90.0584Z" fill="#FBA900"/>
<path d="M663.847 39.0584C663.319 38.6584 663.142 38.0584 663.377 37.1584C663.319 35.4584 662.732 34.1584 662.203 32.7584C656.862 18.7584 648.937 13.2584 639.545 13.2584C440.022 13.2584 240.499 13.2584 40.9763 13.2584C37.2195 13.2584 33.4626 13.1584 29.6471 14.0584C20.9594 16.1584 14.9133 23.9584 11.039 37.1584C6.81261 49.5584 7.34092 63.1584 7.69312 76.6584C7.81052 81.1584 8.22142 86.1584 9.98244 90.1584C12.4479 91.8584 13.9741 95.8584 16.2047 98.2584C21.0181 103.558 26.2425 106.158 31.9364 106.158C221.421 106.158 410.907 106.158 600.392 106.158C613.775 106.158 627.159 106.158 640.543 106.158C644.123 106.158 647.469 104.858 650.874 103.658C655.864 101.858 658.094 94.7584 661.029 88.7584C663.26 84.1584 664.316 78.3584 666.664 73.9584C667.604 61.8584 667.193 50.0584 663.788 38.9584L663.847 39.0584Z" fill="#FBA900"/>
<path d="M663.847 39.0586C663.319 38.6586 663.143 37.9586 663.377 37.0586C664.023 37.3586 663.964 38.1586 663.847 39.0586Z" fill="#A5ABB7"/>
</svg>
