<svg width="631" height="521" viewBox="0 0 631 521" fill="none" xmlns="http://www.w3.org/2000/svg">
<path d="M315.205 520.969C239.815 520.969 164.383 520.939 88.9935 521C78.8746 521 69.0484 519.897 59.3895 517.814C49.0615 515.609 39.6535 512.055 31.0399 507.369C23.7225 503.386 18.0777 498.271 13.4364 492.573C7.66609 485.528 4.07012 477.87 1.77038 469.875C0.18146 464.33 -0.153048 458.694 0.0560197 453.058C0.0978333 451.587 0.0560197 450.086 0.0560197 448.616C0.0560197 342.782 0.0560197 236.917 0.0560197 131.083C0.0560197 25.2484 0.139647 127.009 0.0560197 124.956C-0.362116 115.981 2.06307 107.343 6.11899 98.9189C9.71495 91.5059 15.0253 84.7974 22.0918 78.8548C27.5275 74.2906 34.1759 70.9517 41.2006 67.8885C49.6887 64.182 58.9713 62.1602 68.4212 60.4142C71.6826 59.8016 75.1114 59.5565 78.4983 59.3421C88.1572 58.7601 97.7743 59.097 107.433 59.097C253.655 59.0664 399.877 59.097 546.099 59.097C553.835 59.097 561.319 60.2304 568.762 61.7008C575.452 63.0486 581.892 64.7946 587.996 67.2452C593.056 69.2669 597.823 71.5643 602.255 74.2906C611.621 80.0494 617.977 87.3399 622.785 95.4574C626.047 101.002 628.179 106.791 629.643 112.703C630.354 115.644 630.646 118.677 630.646 121.709C630.646 156.844 630.646 191.98 630.604 227.115C630.604 245.831 630.521 264.547 630.646 283.263C630.646 286.449 630.981 289.666 630.939 292.851C630.939 294.965 630.521 297.079 630.521 299.223C630.521 352.768 630.521 406.313 630.521 459.858C630.521 464.912 629.141 469.844 627.385 474.715C625.378 480.229 622.702 485.589 618.855 490.582C614.464 496.188 609.405 501.365 602.548 505.561C596.819 509.084 590.547 511.964 583.815 514.322C576.372 516.895 568.511 518.458 560.483 519.744C552.622 521 544.636 520.939 536.691 520.939C462.89 520.939 389.089 520.939 315.288 520.939L315.205 520.969ZM624.667 290.156C624.667 246.29 624.667 202.425 624.667 158.56C624.667 152.035 624.709 145.51 624.834 138.986C624.96 131.236 625.67 123.455 624.416 115.705C623.705 111.264 622.576 106.914 620.611 102.687C616.555 93.8339 610.701 85.7777 601.46 79.253C595.397 74.9645 588.331 71.7481 580.637 69.175C568.219 65.009 555.173 62.9873 541.583 63.1405C532.635 63.2324 523.687 63.3549 514.697 63.3549C377.591 63.3549 240.484 63.3549 103.419 63.4162C96.1436 63.4162 88.9098 62.6504 81.6343 63.3243C76.9512 63.7531 72.2262 64.0594 67.6267 64.7946C59.5149 66.0812 51.9466 68.4705 44.5456 71.2274C35.1376 74.7501 27.5693 79.835 21.3809 85.9615C16.6978 90.5869 13.4782 95.8557 10.7603 101.308C8.50236 105.842 7.03888 110.528 6.32805 115.276C5.90992 118.125 5.15727 120.943 5.57541 123.854C5.95173 126.488 5.8681 129.184 5.8681 131.849C5.8681 238.816 5.8681 345.784 5.8681 452.782C5.8681 455.416 5.2409 457.99 5.74266 460.655C6.36987 464.085 6.57893 467.608 7.7079 470.978C10.6767 479.953 15.2762 488.377 23.2207 495.728C28.6983 500.783 35.0958 505.01 42.7477 508.165C57.8424 514.414 74.1078 517.355 91.4186 516.957C98.8615 516.773 106.304 516.742 113.747 516.742C207.535 516.742 301.323 516.742 395.111 516.742C488.898 516.742 497.805 516.742 549.193 516.711C553.793 516.711 558.351 516.007 562.825 515.333C568.135 514.506 573.194 513.128 578.212 511.627C586.7 509.084 594.436 505.653 601.084 501.058C606.269 497.474 610.492 493.278 613.879 488.652C621.238 478.636 625.001 467.945 624.96 456.581C624.96 448.218 624.625 439.855 624.625 431.493C624.625 384.411 624.625 337.329 624.625 290.248L624.667 290.156Z" fill="black"/>
<path d="M624.667 290.156C624.667 337.237 624.667 384.319 624.667 431.401C624.667 439.763 625.001 448.126 625.001 456.489C625.001 467.853 621.238 478.544 613.921 488.561C610.534 493.186 606.311 497.352 601.126 500.967C594.436 505.561 586.742 508.992 578.254 511.535C573.236 513.036 568.177 514.445 562.867 515.241C558.392 515.946 553.835 516.62 549.235 516.62C497.888 516.681 446.541 516.65 395.152 516.65C301.365 516.65 207.577 516.65 113.789 516.65C106.346 516.65 98.9033 516.681 91.4604 516.865C74.1496 517.263 57.8842 514.322 42.7895 508.073C35.1376 504.918 28.7401 500.691 23.2625 495.637C15.318 488.285 10.7185 479.83 7.7497 470.886C6.62073 467.516 6.41166 464.024 5.78446 460.563C5.2827 457.898 5.9099 455.325 5.9099 452.69C5.9099 345.723 5.9099 238.755 5.9099 131.757C5.9099 129.092 5.99353 126.396 5.61721 123.762C5.19907 120.852 5.95172 118.003 6.36985 115.185C7.03887 110.437 8.54416 105.75 10.8021 101.216C13.52 95.7944 16.7396 90.495 21.4227 85.8696C27.6111 79.7431 35.1794 74.6582 44.5874 71.1355C51.9884 68.3786 59.5149 65.9893 67.6685 64.7027C72.268 63.9675 76.993 63.6918 81.6761 63.2324C88.9516 62.5278 96.1854 63.3243 103.461 63.3243C240.568 63.263 377.674 63.263 514.739 63.263C523.687 63.263 532.635 63.1405 541.625 63.0486C555.173 62.8954 568.26 64.9171 580.679 69.0831C588.373 71.6562 595.439 74.8726 601.502 79.1611C610.743 85.6858 616.597 93.742 620.653 102.595C622.576 106.853 623.705 111.172 624.458 115.613C625.712 123.363 625.001 131.144 624.876 138.894C624.792 145.419 624.751 151.943 624.709 158.468C624.709 202.333 624.709 246.199 624.709 290.064L624.667 290.156ZM185.248 511.412C198.42 511.535 214.434 511.504 230.449 511.627C261.642 511.872 292.835 511.657 324.027 511.657C355.597 511.657 387.124 511.718 418.693 511.443C445.663 511.228 472.675 511.382 499.686 511.443C512.816 511.443 525.987 511.596 539.116 511.718C545.598 511.78 551.911 511.198 558.225 510.156C569.348 508.349 580.01 505.623 589.627 500.997C594.143 498.822 597.865 496.004 601.251 492.972C606.06 488.683 609.154 483.69 611.747 478.544C615.301 471.376 617.935 464.024 617.935 456.366C617.893 433.821 618.311 411.275 617.642 388.73C617.475 382.665 617.851 376.6 617.851 370.535C617.893 316.254 618.437 262.005 617.642 207.724C617.517 197.953 617.684 188.15 617.851 178.348C618.186 160.091 617.935 141.835 618.019 123.547C618.019 121.005 617.684 118.462 617.057 115.981C614.966 107.465 611.579 99.2865 605.684 91.6897C601.837 86.7273 596.652 82.6838 590.463 79.3755C582.937 75.3627 574.365 72.8509 565.501 71.0129C556.427 69.1444 547.228 67.9191 537.695 68.1335C530.963 68.256 524.231 68.1642 517.499 68.1948C512.272 68.1948 507.045 68.3786 501.861 68.3786C470.668 68.3786 439.475 68.5624 408.324 68.256C378.803 67.9497 349.283 68.1029 319.763 68.1642C281.336 68.256 242.909 68.0723 204.482 68.3786C177.471 68.593 150.459 68.6849 123.448 68.2254C111.74 68.011 100.074 68.1642 88.3662 68.1642C84.0594 68.1642 79.8363 68.7155 75.6549 69.2669C67.794 70.3084 60.2257 71.9319 52.9083 74.2906C46.1764 76.4961 39.8207 79.1305 34.4686 82.8982C28.4474 87.1255 24.2661 92.2104 21.0464 97.7549C15.7361 106.853 12.851 116.287 12.6419 126.182C12.5583 131.266 13.06 136.351 13.06 141.436C12.851 189.835 13.6036 238.234 12.6837 286.633C12.6419 289.88 13.0182 293.158 12.9764 296.374C12.8091 347.101 13.6036 397.828 12.6419 448.524C12.5164 453.977 12.6001 459.399 13.9799 464.759C16.196 473.306 19.7502 481.546 25.8968 489.051C28.8655 492.696 32.6706 495.79 37.1028 498.547C42.1623 501.702 47.9743 503.877 54.0791 505.745C65.536 509.268 77.4529 511.412 89.9552 511.504C96.5617 511.565 103.126 511.504 109.733 511.351C120.73 511.106 131.769 511.228 142.807 511.228C156.021 511.228 169.275 511.228 185.332 511.228L185.248 511.412Z" fill="#007EE0"/>
<path d="M185.248 511.412C169.192 511.412 155.937 511.412 142.724 511.412C131.685 511.412 120.646 511.29 109.649 511.535C103.043 511.688 96.4363 511.749 89.8716 511.688C77.4111 511.565 65.4942 509.452 53.9955 505.929C47.9325 504.06 42.1205 501.916 37.0192 498.73C32.587 495.974 28.7819 492.849 25.8132 489.234C19.6666 481.73 16.0706 473.489 13.8963 464.943C12.5165 459.582 12.4746 454.13 12.5583 448.708C13.52 397.981 12.7255 347.254 12.8928 296.558C12.8928 293.311 12.5165 290.064 12.6001 286.817C13.52 238.418 12.7673 190.019 12.9764 141.62C12.9764 136.535 12.4746 131.45 12.5583 126.365C12.7255 116.471 15.6525 107.006 20.9628 97.9387C24.1824 92.3636 28.3638 87.3093 34.385 83.082C39.7789 79.2836 46.0928 76.6493 52.8247 74.4744C60.1003 72.0851 67.7104 70.4922 75.5713 69.4507C79.7945 68.8993 84.0176 68.3479 88.2826 68.3479C99.9904 68.3479 111.698 68.2254 123.364 68.4092C150.376 68.8687 177.387 68.7768 204.399 68.5624C242.826 68.256 281.252 68.4092 319.679 68.3479C349.199 68.2867 378.72 68.1335 408.24 68.4398C439.433 68.7462 470.626 68.5624 501.777 68.5624C507.004 68.5624 512.189 68.3786 517.415 68.3786C524.147 68.3786 530.879 68.4398 537.611 68.3173C547.103 68.1335 556.344 69.3282 565.417 71.1967C574.282 73.0347 582.853 75.5159 590.38 79.5593C596.568 82.8676 601.753 86.9111 605.6 91.8735C611.496 99.4396 614.883 107.649 616.973 116.165C617.6 118.646 617.935 121.158 617.935 123.731C617.893 141.988 618.102 160.245 617.768 178.532C617.6 188.334 617.433 198.106 617.559 207.908C618.311 262.189 617.81 316.438 617.768 370.718C617.768 376.784 617.391 382.849 617.559 388.914C618.27 411.459 617.81 434.005 617.851 456.55C617.851 464.208 615.259 471.59 611.663 478.728C609.071 483.874 605.976 488.867 601.168 493.155C597.781 496.188 594.059 499.006 589.544 501.181C579.926 505.776 569.264 508.502 558.142 510.34C551.87 511.351 545.514 511.964 539.033 511.902C525.903 511.78 512.732 511.657 499.603 511.627C472.591 511.565 445.621 511.412 418.61 511.627C387.041 511.902 355.513 511.841 323.944 511.841C292.751 511.841 261.558 512.025 230.365 511.81C214.351 511.688 198.336 511.718 185.165 511.596L185.248 511.412ZM546.476 507.43C547.061 507.43 548.984 507.124 549.403 507.124C549.695 507.124 549.946 507.185 550.239 507.154C561.152 505.868 571.689 503.601 581.474 499.711C588.08 497.076 593.809 493.676 598.074 489.112C603.551 483.261 607.105 476.767 609.572 469.967C611.161 465.617 612.081 461.175 612.457 456.672C612.541 451.986 612.416 447.299 612.207 442.612C611.956 436.241 612.374 429.869 612.374 423.528C612.457 402.178 612.374 380.796 612.248 359.446C612.039 311.629 611.621 263.781 612.457 215.965C612.625 207.081 612.457 198.228 612.457 189.345C612.457 185.455 612.457 181.595 612.457 177.705C612.499 173.937 612.332 170.139 612.457 166.371C612.541 163.247 612.457 160.153 612.374 157.028C612.29 156.017 612.081 155.006 612.081 153.996C612.081 148.114 612.081 142.263 612.081 136.382C612.081 135.616 611.997 134.85 612.081 134.085C612.834 129.153 612.75 124.221 611.956 119.32C610.952 113.163 608.861 107.159 605.6 101.431C602.673 96.3151 599.244 91.3834 593.976 87.2786C588.373 82.9289 581.515 80.0494 574.114 77.752C562.95 74.3212 551.326 72.4527 539.242 72.2076C535.562 72.1463 531.925 72.5752 528.203 72.5446C502.195 72.3301 476.145 72.7896 450.137 72.2689C442.067 72.1157 433.997 72.4527 425.969 72.4527C350.161 72.422 274.353 72.8815 198.545 72.2689C187.088 72.177 175.589 72.177 164.132 72.4833C155.143 72.7283 146.153 72.5446 137.205 72.5446C119.685 72.5446 102.165 72.422 84.6867 72.6058C78.331 72.6671 72.1426 73.7698 66.0796 75.2402C62.3582 76.1592 58.6368 77.1088 55.0409 78.2421C45.3401 81.2747 37.1446 85.6551 31.4162 92.2717C28.1965 95.9782 25.6877 99.9297 23.6807 104.065C21.4228 108.721 19.8756 113.5 18.8721 118.37C18.4958 120.178 17.9522 122.016 17.9522 123.823C17.9522 126.028 18.2031 128.234 18.3285 130.409C18.6631 136.229 18.454 142.049 18.4958 147.839C18.4958 150.075 18.4122 152.28 18.4122 154.516C18.4122 252.325 18.4122 350.103 18.4122 447.912C18.4122 449.841 18.5794 451.771 18.0777 453.701C17.785 454.865 17.7432 456.152 18.4958 457.316C18.0359 459.184 18.8303 460.961 19.2066 462.799C20.921 470.824 24.0988 478.452 29.5346 485.559C31.6671 488.346 34.2177 490.98 37.2283 493.278C41.2006 496.31 46.0091 498.547 51.0686 500.507C57.1315 502.835 63.5708 504.397 70.1355 505.684C73.857 506.419 77.6202 507.093 81.5088 507.185C84.7285 507.614 87.9481 507.889 91.2096 507.859C94.471 507.859 97.6907 507.491 100.994 507.522C125.58 507.736 150.125 507.307 174.711 507.767C185.75 507.981 196.831 507.614 207.869 507.614C283.761 507.614 359.653 507.185 435.502 507.798C443.823 507.859 452.186 507.736 460.549 507.614C475.518 507.369 490.487 507.644 505.457 507.491C519.13 507.338 532.844 508.043 546.517 507.491L546.476 507.43Z" fill="#00265E"/>
<path d="M612.416 157.028C612.416 160.153 612.541 163.247 612.499 166.371C612.416 170.139 612.583 173.937 612.499 177.705C612.457 181.595 612.499 185.455 612.499 189.345C612.499 198.229 612.625 207.081 612.499 215.965C611.663 263.781 612.039 311.629 612.29 359.446C612.374 380.796 612.499 402.178 612.416 423.528C612.416 429.9 611.997 436.271 612.248 442.612C612.416 447.299 612.541 451.986 612.499 456.672C611.747 456.734 611.788 457.193 611.663 457.591C610.827 459.858 610.116 462.125 609.154 464.33C604.262 475.787 596.359 485.834 584.066 493.982C574.449 500.385 563.368 504.612 550.699 506.572C550.155 506.664 549.57 506.572 549.444 507.154C549.026 507.154 547.563 508.196 505.457 507.491C490.487 507.644 475.518 507.369 460.549 507.614C452.186 507.736 443.865 507.859 435.502 507.798C359.611 507.185 283.719 507.614 207.869 507.614C196.831 507.614 185.75 507.951 174.711 507.767C150.125 507.307 125.58 507.736 100.994 507.522C97.7325 507.522 94.471 507.828 91.2096 507.859C87.9481 507.859 84.7285 507.614 81.5088 507.185C81.4252 506.725 80.9653 506.695 80.4635 506.603C75.5713 505.623 70.8046 504.459 66.1214 503.05C54.2882 499.435 44.2111 494.074 36.2666 486.723C27.4021 478.513 22.0499 469.109 19.6248 458.817C19.4993 458.265 19.5411 457.561 18.4958 457.346C17.7431 456.182 17.785 454.896 18.0777 453.732C18.5794 451.802 18.4122 449.872 18.4122 447.942C18.4122 350.134 18.4122 252.356 18.4122 154.547C18.4122 152.311 18.454 150.105 18.4958 147.869C19.0812 147.777 19.2484 147.502 19.2484 147.103C19.2484 144.163 19.9175 141.253 20.0429 138.312C20.2101 134.085 21.4646 129.98 21.9245 125.783C22.3426 122.016 23.5134 118.309 24.2661 114.572C24.9351 111.141 25.8132 107.802 28.1965 104.708C31.3326 100.634 34.7195 96.6828 38.2318 92.7925C42.5804 87.9832 48.8106 84.9506 55.5008 82.3469C59.5149 80.7847 64.1144 80.1107 68.5048 79.1918C78.6237 77.0169 88.9098 76.2205 99.4887 76.2205C247.634 76.3124 395.78 76.2817 543.925 76.2817C545.807 76.2817 547.688 76.4043 549.486 76.7106C561.947 78.7629 573.905 81.7649 584.15 87.6463C588.916 90.3725 593.725 93.0375 597.195 96.744C600.792 100.573 602.464 105.015 604.095 109.426C606.102 114.817 607.147 120.331 607.942 125.875C608.527 129.888 609.154 133.932 609.614 137.944C609.823 139.629 609.781 141.283 610.032 142.968C610.576 146.705 610.952 150.442 610.743 154.21C610.701 155.252 610.409 156.599 612.374 157.151L612.416 157.028Z" fill="#005C9B"/>
<path d="M612.416 157.028C610.45 156.477 610.743 155.129 610.785 154.088C610.994 150.32 610.576 146.583 610.074 142.846C609.823 141.191 609.865 139.507 609.656 137.822C609.196 133.778 608.527 129.766 607.983 125.753C607.189 120.208 606.144 114.695 604.136 109.303C602.464 104.892 600.833 100.481 597.237 96.6215C593.767 92.915 588.958 90.25 584.191 87.5238C573.905 81.6424 561.988 78.6404 549.528 76.5881C547.73 76.2818 545.848 76.1592 543.967 76.1592C395.821 76.1592 247.676 76.2205 99.5305 76.098C88.9516 76.098 78.6655 76.8944 68.5466 79.0693C64.1562 80.0189 59.5567 80.6622 55.5426 82.2244C48.8524 84.8281 42.6222 87.8607 38.2736 92.67C34.7613 96.5909 31.3744 100.512 28.2383 104.586C25.855 107.68 24.9769 111.019 24.3079 114.449C23.5552 118.187 22.4263 121.924 21.9663 125.661C21.5064 129.857 20.2101 133.962 20.0847 138.189C20.0011 141.13 19.3321 144.04 19.2902 146.981C19.2902 147.379 19.123 147.685 18.5376 147.747C18.5376 141.927 18.7048 136.106 18.3703 130.317C18.2449 128.142 18.0358 125.906 17.994 123.731C17.994 121.924 18.5376 120.086 18.9139 118.279C19.9174 113.408 21.4645 108.629 23.7225 103.973C25.7295 99.8379 28.1965 95.8864 31.458 92.1799C37.2283 85.594 45.3819 81.1829 55.0826 78.1503C58.7204 77.0169 62.4 76.0673 66.1214 75.1484C72.1844 73.678 78.3728 72.5753 84.7285 72.514C102.248 72.3302 119.768 72.4527 137.246 72.4527C146.236 72.4527 155.226 72.6365 164.174 72.3915C175.631 72.0852 187.13 72.0852 198.587 72.177C274.395 72.7897 350.203 72.3302 426.011 72.3608C434.081 72.3608 442.151 72.0239 450.179 72.177C476.187 72.6978 502.237 72.2689 528.245 72.4527C531.924 72.4527 535.604 72.0545 539.284 72.1158C551.368 72.3608 562.992 74.1988 574.156 77.6602C581.557 79.9576 588.415 82.8371 594.018 87.1868C599.286 91.2915 602.757 96.2233 605.642 101.339C608.903 107.067 610.952 113.071 611.997 119.228C612.792 124.129 612.876 129.061 612.123 133.993C611.997 134.759 612.123 135.524 612.123 136.29C612.123 142.172 612.123 148.022 612.123 153.904C612.123 154.915 612.332 155.925 612.416 156.936V157.028Z" fill="#00507C"/>
<path d="M549.403 507.154C549.528 506.603 550.113 506.664 550.657 506.572C563.327 504.612 574.407 500.385 584.024 493.982C596.276 485.834 604.22 475.787 609.112 464.33C610.074 462.094 610.785 459.827 611.621 457.591C611.747 457.193 611.705 456.734 612.457 456.672C612.081 461.175 611.119 465.617 609.572 469.967C607.105 476.767 603.551 483.261 598.074 489.112C593.809 493.707 588.08 497.076 581.474 499.711C571.689 503.601 561.194 505.868 550.239 507.154C549.988 507.185 549.695 507.154 549.403 507.124V507.154Z" fill="#00507C"/>
<path d="M18.4958 457.285C19.5411 457.499 19.4993 458.204 19.6248 458.755C22.0499 469.048 27.4021 478.452 36.2665 486.661C44.2111 494.013 54.2882 499.374 66.1214 502.988C70.8045 504.428 75.5713 505.592 80.4635 506.542C80.9652 506.634 81.4252 506.664 81.5088 507.124C77.6202 507.032 73.8569 506.327 70.1355 505.623C63.5708 504.336 57.0897 502.774 51.0685 500.446C46.0091 498.516 41.2424 496.249 37.2283 493.217C34.1759 490.919 31.6671 488.285 29.5346 485.497C24.0988 478.391 20.8792 470.763 19.2066 462.738C18.8303 460.9 18.0358 459.123 18.4958 457.254V457.285Z" fill="#00507C"/>
<path d="M106.048 102.825C106.048 94.7902 106.048 86.7555 106.048 78.7208C106.048 68.5218 105.901 58.3228 106.122 48.1534C106.195 43.9433 106.306 39.7332 106.453 35.4935C106.527 32.6769 109.288 30.4237 112.123 29.89C120.958 28.289 129.904 26.9845 138.666 25.2056C145.109 23.901 151.257 22.0332 157.442 20.1654C159.467 19.5427 161.529 18.9201 163.59 18.4161C172.978 16.0739 182.477 13.9689 192.049 12.19C200.479 10.6186 208.947 9.13618 217.415 7.77236C222.679 6.91256 227.981 6.34924 233.282 5.66733C237.7 5.07436 242.081 4.33315 246.499 3.94773C249.849 3.65124 253.162 3.20652 256.512 2.96933C260.194 2.7025 263.876 2.16883 267.557 1.84269C270.613 1.57586 273.668 1.42762 276.761 1.22008C282.762 0.834652 288.8 0.389927 294.8 0.182389C296.126 0.15274 297.451 0.00449887 298.776 0.00449887C308.569 0.0341472 318.399 -0.0547978 328.192 0.0637955C334.009 0.123092 339.862 0.360279 345.679 0.656762C351.312 0.953245 356.982 1.30903 362.614 1.84269C368.21 2.37636 373.806 2.93968 379.365 3.503C384.114 4.00702 388.864 4.54069 393.576 5.07436C398.951 5.66733 404.252 6.52713 409.591 7.32763C415.481 8.21708 421.372 9.10653 427.262 10.0849C431.385 10.7668 435.435 11.6563 439.558 12.3678C450.382 14.2653 460.948 16.7854 471.44 19.5427C476.263 20.8176 480.939 22.4186 485.762 23.6639C492.573 25.4428 499.604 26.5694 506.599 27.8146C510.98 28.6151 515.472 29.0302 519.779 30.0975C521.914 30.6312 524.639 33.3885 524.565 35.2267C524.307 41.275 524.97 47.2936 524.933 53.3418C524.933 78.0389 524.933 102.736 524.933 127.433C524.933 129.835 524.418 132.117 521.767 133.807C519.742 135.082 517.349 135.201 515.251 134.786C512.232 134.193 509.176 133.926 506.157 133.422C494.34 131.465 482.596 129.182 471.183 126.01C463.047 123.757 454.947 121.414 446.811 119.22C437.828 116.819 428.735 114.803 419.531 113.054C411.026 111.453 402.522 110 393.907 108.814C386.802 107.835 379.66 106.916 372.518 106.145C367.584 105.612 362.651 105.108 357.718 104.693C352.196 104.218 346.71 103.803 341.151 103.477C336.623 103.21 332.058 103.151 327.529 102.884C320.313 102.439 313.134 102.706 305.919 102.677C300.949 102.677 295.979 102.973 291.008 103.24C286.811 103.447 282.615 103.774 278.418 104.129C273.521 104.544 268.698 105.197 263.802 105.553C259.789 105.819 255.85 106.442 251.874 106.798C247.971 107.154 244.069 107.717 240.203 108.28C235.344 108.992 230.558 109.881 225.698 110.593C218.409 111.66 211.193 113.054 204.051 114.566C195.546 116.345 187.115 118.331 178.795 120.673C171.285 122.778 163.775 124.854 156.227 126.929C151.147 128.352 145.882 129.271 140.728 130.457C134.985 131.791 129.131 132.562 123.314 133.6C120.443 134.133 117.461 134.43 114.516 134.815C110.576 135.349 107.447 133.481 106.416 130.072C106.122 129.123 106.048 128.115 106.048 127.137C106.048 119.013 106.048 110.86 106.048 102.736V102.825ZM110.908 123.075C110.908 125.002 110.797 126.929 110.834 128.826C110.871 130.487 112.454 131.347 114.442 130.931C115.141 130.783 115.841 130.576 116.54 130.487C124.861 129.538 133.034 128.085 141.17 126.395C144.888 125.624 148.607 124.794 152.288 123.846C155.197 123.104 158.215 122.541 161.087 121.741C167.014 120.11 172.831 118.242 178.758 116.552C189.582 113.498 200.59 111.037 211.782 108.932C219.366 107.509 226.95 106.145 234.607 105.078C241.786 104.07 248.965 102.914 256.218 102.321C261.556 101.876 266.858 101.105 272.233 100.601C277.534 100.127 282.835 99.7118 288.174 99.4153C294.8 99.0299 301.427 98.7038 308.054 98.5259C317.884 98.2294 327.75 98.7038 337.543 99.1485C339.494 99.2374 341.445 99.2671 343.36 99.4153C349.14 99.8601 354.92 100.364 360.7 100.868C365.081 101.254 369.499 101.58 373.88 102.113C379.733 102.795 385.55 103.655 391.404 104.396C398.73 105.315 405.983 106.531 413.235 107.865C418.831 108.873 424.39 109.97 429.913 111.126C438.086 112.816 446.185 114.714 454.1 117.086C464.593 120.199 475.048 123.46 485.946 125.624C493.309 127.107 500.672 128.619 508.182 129.657C510.759 130.012 513.41 130.161 515.913 130.991C517.57 131.554 520.147 130.101 520.184 128.797C520.184 126.781 520.147 124.765 520.11 122.749C520.11 122.067 520.184 121.385 520.184 120.673C520.184 97.5475 520.184 74.4218 520.184 51.2961C520.184 50.4659 520.147 49.6358 520.11 48.8056C520.331 44.8624 520.037 40.9192 520.479 36.9463C520.773 34.278 518.896 33.4775 516.245 33.1513C511.937 32.6177 507.704 31.8468 503.433 31.1352C493.382 29.4453 483.663 26.9548 473.907 24.4347C462.31 21.4402 450.64 18.6236 438.748 16.3704C431.091 14.9176 423.396 13.6131 415.665 12.4271C410.032 11.5673 404.363 10.7965 398.693 9.99598C393.613 9.28442 388.532 8.60251 383.415 8.03919C379.255 7.56482 375.058 7.0608 370.861 6.76432C365.817 6.40854 360.847 5.75627 355.803 5.3412C351.607 5.01506 347.373 4.74823 343.176 4.4814C338.279 4.12562 333.346 3.94773 328.413 3.88843C322.154 3.79948 315.896 3.82913 309.674 3.88843C306.397 3.91808 303.121 3.94773 299.807 4.09597C293.77 4.3628 287.695 4.54069 281.657 5.04471C278.123 5.3412 274.515 5.37084 270.981 5.66733C265.238 6.17135 259.531 6.82361 253.825 7.41658C248.229 8.00955 242.633 8.51357 237.074 9.22513C230.042 10.1146 223.047 11.0633 216.089 12.19C207.548 13.5538 199.044 14.9769 190.576 16.6372C180.378 18.6533 170.254 20.9955 160.277 23.6342C154.976 25.0277 149.601 26.2729 144.336 27.7553C140.912 28.7041 137.231 29.0302 133.807 29.9493C130.346 30.8684 126.738 30.987 123.278 31.9061C120.48 32.6473 117.424 32.7955 114.479 33.1513C111.975 33.4478 110.503 34.6634 110.503 36.7388C110.503 38.1026 110.834 39.4664 110.834 40.8006C110.871 49.9619 110.908 59.1233 110.908 68.3142C110.908 68.5514 110.834 68.7886 110.834 69.0554C110.834 79.9364 110.834 90.7877 110.834 101.669C110.834 108.784 110.908 115.929 110.908 123.045V123.075Z" fill="black"/>
<path d="M520.11 48.8352C520.11 49.6654 520.184 50.4955 520.184 51.3257C520.184 74.4514 520.184 97.577 520.184 120.703C520.184 121.385 520.11 122.067 520.11 122.778C519.08 122.956 518.785 123.697 518.159 124.231C517.239 125.002 516.576 126.336 514.846 126.01C512.49 125.535 510.097 125.802 507.74 125.535C501.887 124.883 496.07 124.112 490.364 122.808C480.644 120.614 471.256 117.649 461.648 115.188C455.352 113.587 449.204 111.66 442.909 110.029C436.539 108.369 430.06 107.005 423.47 105.968C415.702 104.752 408.118 102.854 400.35 101.609C392.876 100.423 385.403 99.3559 377.856 98.5554C371.929 97.9328 366.001 97.4288 360.074 96.9544C354.257 96.5097 348.404 96.1836 342.587 95.8871C338.022 95.6499 333.457 95.3534 328.891 95.3238C319.577 95.2645 310.3 95.0866 300.985 95.472C293.659 95.7685 286.37 95.9464 279.043 96.4208C274.442 96.7172 269.803 96.9248 265.201 97.3695C259.09 97.9921 253.015 98.5554 246.94 99.3263C237.921 100.453 228.938 101.757 220.028 103.418C209.315 105.404 198.86 108.073 188.478 111.037C181.63 112.994 174.635 114.566 167.64 116.167C154.902 119.072 142.422 122.66 129.389 124.765C125.045 125.476 120.701 126.336 116.283 126.603C115.031 126.692 114.258 126.277 113.522 125.476C112.712 124.646 112.233 123.579 111.018 123.015C111.018 115.9 110.945 108.754 110.945 101.639C110.945 90.7579 110.945 79.9066 110.945 69.0257C110.945 68.7885 110.981 68.5513 111.018 68.2845C111.644 67.2468 111.497 66.0609 111.607 64.9935C112.233 58.6192 112.601 52.2448 113.19 45.9C113.485 42.7276 114 39.5553 115.546 36.5608C115.878 35.9085 116.32 35.6121 117.203 35.4638C122.173 34.6337 127.18 34.1 132.113 33.2698C139.292 32.0543 146.398 30.5718 153.282 28.5261C164.216 25.2648 175.15 21.9738 186.6 19.9577C201.473 17.319 216.457 15.0361 231.478 13.0793C243.038 11.5673 254.598 10.2627 266.232 9.10645C274.957 8.24665 283.682 7.38684 292.444 7.2386C303.894 7.03106 315.343 6.91247 326.793 7.38684C333.935 7.68333 341.077 7.89087 348.183 8.27629C354.22 8.60243 360.221 9.0175 366.222 9.46223C374.727 10.0848 383.194 10.915 391.625 11.923C403.627 13.3758 415.555 15.0954 427.336 17.4673C432.195 18.4457 437.276 18.4753 442.099 19.513C449.241 21.0251 456.383 22.5668 463.415 24.4346C475.601 27.6959 488.081 30.0678 500.341 33.2105C504.758 34.3372 509.287 35.1377 513.704 36.4126C517.055 37.3613 518.417 39.2588 518.822 41.8975C519.19 44.2101 519.742 46.5226 520.184 48.8352H520.11Z" fill="#00437F"/>
<path d="M110.945 123.075C112.159 123.668 112.638 124.705 113.448 125.535C114.184 126.306 114.957 126.721 116.209 126.662C120.664 126.395 124.971 125.506 129.315 124.824C142.311 122.719 154.828 119.131 167.567 116.226C174.561 114.625 181.556 113.054 188.404 111.097C198.786 108.132 209.242 105.493 219.955 103.477C228.864 101.817 237.847 100.512 246.867 99.3856C252.941 98.6148 259.053 98.0515 265.127 97.4288C269.729 96.9545 274.368 96.7766 278.97 96.4801C286.259 96.0057 293.586 95.8278 300.912 95.5314C310.226 95.1459 319.54 95.3238 328.818 95.3831C333.383 95.3831 337.948 95.7092 342.513 95.9464C348.33 96.2429 354.184 96.569 360 97.0138C365.928 97.4881 371.892 97.9922 377.782 98.6148C385.329 99.4153 392.803 100.453 400.276 101.669C408.044 102.914 415.628 104.811 423.396 106.027C429.986 107.065 436.466 108.428 442.835 110.089C449.13 111.719 455.279 113.617 461.574 115.247C471.183 117.708 480.608 120.643 490.29 122.867C495.996 124.172 501.813 124.913 507.667 125.595C510.023 125.862 512.416 125.595 514.772 126.069C516.466 126.395 517.165 125.061 518.086 124.29C518.711 123.786 519.043 123.015 520.037 122.837C520.037 124.854 520.147 126.87 520.11 128.886C520.11 130.19 517.496 131.613 515.84 131.08C513.336 130.25 510.686 130.101 508.109 129.746C500.598 128.708 493.235 127.196 485.872 125.713C474.975 123.519 464.519 120.288 454.027 117.175C446.112 114.832 438.012 112.905 429.839 111.215C424.28 110.089 418.721 108.962 413.162 107.954C405.946 106.649 398.657 105.434 391.33 104.485C385.477 103.744 379.66 102.884 373.806 102.202C369.425 101.698 365.044 101.342 360.626 100.957C354.846 100.453 349.066 99.949 343.286 99.5042C341.372 99.356 339.384 99.3263 337.469 99.2374C327.64 98.7927 317.81 98.3183 307.98 98.6148C301.354 98.7927 294.727 99.1188 288.1 99.5042C282.799 99.8007 277.46 100.216 272.159 100.69C266.821 101.194 261.519 101.965 256.144 102.41C248.855 103.032 241.713 104.159 234.534 105.167C226.876 106.264 219.292 107.628 211.708 109.021C200.553 111.097 189.508 113.587 178.685 116.641C172.758 118.301 166.941 120.199 161.013 121.829C158.142 122.63 155.086 123.193 152.215 123.934C148.533 124.883 144.815 125.713 141.096 126.484C132.96 128.204 124.787 129.627 116.467 130.576C115.767 130.665 115.068 130.872 114.368 131.02C112.38 131.435 110.834 130.546 110.76 128.915C110.687 126.988 110.797 125.091 110.834 123.164L110.945 123.075Z" fill="#003A66"/>
<path d="M520.11 48.8354C519.632 46.5228 519.116 44.2102 518.748 41.8977C518.306 39.259 516.981 37.3615 513.631 36.4127C509.25 35.1675 504.722 34.3373 500.267 33.2107C488.044 30.0976 475.527 27.6961 463.341 24.4348C456.346 22.567 449.167 21.0252 442.025 19.5132C437.202 18.4755 432.122 18.4458 427.262 17.4675C415.481 15.1252 403.516 13.4056 391.551 11.9232C383.12 10.8855 374.653 10.085 366.149 9.4624C360.148 9.01768 354.11 8.6026 348.109 8.27647C340.967 7.89104 333.825 7.65386 326.719 7.38702C315.27 6.9423 303.82 7.03124 292.371 7.23878C283.609 7.38702 274.883 8.24682 266.158 9.10662C254.561 10.2629 242.964 11.5674 231.404 13.0795C216.347 15.0363 201.4 17.3489 186.526 19.9579C175.077 21.974 164.143 25.265 153.209 28.5263C146.324 30.572 139.219 32.0544 132.04 33.27C127.106 34.1002 122.063 34.6338 117.13 35.464C116.209 35.6122 115.804 35.9087 115.473 36.561C113.927 39.5555 113.411 42.7278 113.117 45.9002C112.528 52.2746 112.159 58.649 111.534 64.9937C111.423 66.0907 111.534 67.247 110.945 68.2847C110.945 59.1233 110.945 49.962 110.871 40.771C110.871 39.4072 110.54 38.0434 110.54 36.7092C110.54 34.6338 112.012 33.4182 114.516 33.1218C117.461 32.766 120.517 32.5881 123.314 31.8765C126.775 30.9871 130.383 30.8388 133.844 29.9197C137.268 29.0303 140.949 28.7042 144.373 27.7258C149.637 26.2434 155.013 24.9981 160.314 23.6047C170.328 20.966 180.415 18.6237 190.613 16.6077C199.044 14.9473 207.585 13.5242 216.126 12.1604C223.084 11.0338 230.116 10.085 237.111 9.19557C242.67 8.48401 248.303 7.97999 253.862 7.38702C259.568 6.79405 265.275 6.14179 271.018 5.63777C274.552 5.31164 278.16 5.28199 281.694 5.01515C287.732 4.51113 293.77 4.33324 299.844 4.06641C303.121 3.91817 306.434 3.91817 309.711 3.85887C315.969 3.79957 322.228 3.76993 328.45 3.85887C333.383 3.94782 338.316 4.12571 343.213 4.45184C347.41 4.74832 351.643 4.98551 355.84 5.31164C360.884 5.69707 365.854 6.37898 370.898 6.73476C375.095 7.03124 379.292 7.53526 383.452 8.00964C388.569 8.57295 393.65 9.25487 398.73 9.96642C404.4 10.7373 410.069 11.5378 415.702 12.3976C423.433 13.5835 431.128 14.888 438.785 16.3408C450.677 18.5941 462.347 21.4107 473.944 24.4052C483.663 26.9253 493.419 29.4157 503.47 31.1057C507.74 31.8172 511.974 32.5584 516.282 33.1218C518.969 33.4479 520.81 34.2484 520.515 36.9168C520.074 40.86 520.368 44.8329 520.147 48.7761L520.11 48.8354Z" fill="#005C9B"/>
</svg>
