<svg width="259" height="251" viewBox="0 0 259 251" fill="none" xmlns="http://www.w3.org/2000/svg">
<path d="M259 125.385C259.146 194.231 201.493 253.061 125.377 250.945C56.3401 249.04 0.293021 196.065 0.00110916 125.878C-0.290803 56.4676 57.0699 -1.65687 133.259 0.0360739C201.274 1.58794 258.708 55.1273 258.927 125.314L259 125.385ZM21.8945 75.5132C21.0917 75.5837 21.3107 76.4302 20.9458 76.924C19.1213 79.8161 18.0267 83.0609 16.932 86.3057C11.6046 101.754 8.75846 117.484 10.291 133.92C11.0938 142.173 12.1884 150.285 14.8886 158.115C14.8886 158.538 14.8886 159.032 15.0346 159.455C22.4053 182.028 35.3954 200.932 54.5156 215.887C75.7522 232.534 100.127 240.928 127.202 242.057C134.572 242.339 141.797 241.281 149.022 240.152C174.272 236.272 195.874 225.268 214.045 208.127C224.627 198.111 232.947 186.331 238.931 173.14C241.558 167.426 244.185 161.642 245.134 155.364C245.353 155.082 245.645 154.799 245.718 154.517C249.148 140.903 250.242 127.077 248.71 113.181C248.199 108.737 248.126 104.011 245.937 99.8493C245.937 99.285 246.156 98.6501 245.937 98.1563C241.12 79.7456 232.509 63.1688 219.446 48.9904C208.353 36.9987 195.363 27.3348 180.257 20.563C167.267 14.7083 153.693 10.8991 139.535 9.84105C128.807 9.06511 118.079 9.69997 107.352 11.6751C91.8803 14.4966 77.7956 20.2103 64.5136 28.2518C52.9101 35.3058 42.9851 44.1232 34.7386 54.563C29.9221 60.6294 25.2515 66.9779 22.4783 74.2435C21.6756 74.3846 21.8215 75.09 21.7485 75.6543L21.8945 75.5132Z" fill="black"/>
<path d="M14.9616 158.115C12.2614 150.214 11.1668 142.173 10.364 133.92C8.83148 117.484 11.6776 101.754 17.005 86.3057C18.0997 83.1315 19.1214 79.8867 21.0188 76.924C21.7486 76.7124 22.1135 76.2186 21.9675 75.5132C22.7703 75.3016 22.8432 74.7373 22.6973 74.1024C24.3758 74.1024 24.6677 72.6211 25.3975 71.7041C32.1844 62.3224 39.8471 53.646 48.9693 46.2394C73.8548 26.0651 102.097 15.8369 134.864 17.812C145.3 18.4469 155.444 20.2103 165.223 23.4552C196.969 34.0361 220.249 54.4219 236.96 82.3555C240.39 88.0692 242.872 94.2061 246.229 99.8493C248.418 104.011 248.491 108.737 249.002 113.181C250.534 127.077 249.367 140.903 246.01 154.517C245.937 154.799 245.645 155.082 245.426 155.364C243.966 155.575 243.747 156.916 243.31 157.903C238.639 168.625 232.874 178.642 225.357 187.671C216.746 198.04 206.967 207.281 195.29 214.476C179.746 224.069 162.815 230.206 144.351 231.899C131.653 233.098 118.955 232.957 106.403 230.347C80.8607 225.057 59.1133 213.206 41.1607 194.936C31.0897 184.708 22.9162 173.14 17.005 160.09C16.6401 159.243 16.3482 158.326 15.1806 158.185L14.9616 158.115Z" fill="#DC003E"/>
<path d="M14.9616 158.115C16.1293 158.256 16.4212 159.173 16.7861 160.019C22.6243 173.069 30.8708 184.567 40.9417 194.866C58.8943 213.136 80.7147 224.986 106.184 230.277C118.736 232.887 131.361 232.957 144.133 231.828C162.596 230.135 179.527 223.999 195.071 214.405C206.748 207.21 216.527 197.97 225.138 187.6C232.655 178.571 238.493 168.555 243.091 157.833C243.528 156.845 243.747 155.505 245.207 155.293C244.258 161.571 241.558 167.355 239.004 173.069C233.02 186.26 224.773 198.04 214.118 208.057C195.947 225.198 174.345 236.202 149.095 240.082C141.87 241.21 134.572 242.268 127.275 241.986C100.127 240.857 75.8252 232.534 54.5886 215.816C35.4684 200.862 22.5513 181.957 15.1076 159.384C14.9616 158.961 15.0346 158.467 14.9616 158.044V158.115Z" fill="#AD0038"/>
<path d="M246.01 99.7787C242.653 94.0651 240.171 87.9281 236.741 82.285C220.102 54.3514 196.823 34.0361 165.004 23.3846C155.225 20.1398 145.081 18.3763 134.645 17.7415C101.951 15.7664 73.6358 25.9946 48.7503 46.1688C39.6281 53.5755 31.9654 62.1813 25.1785 71.6335C24.5217 72.6211 24.2297 74.1024 22.4783 74.1024C25.3244 66.7663 29.922 60.4883 34.7386 54.4219C43.058 43.9821 52.9101 35.1647 64.5136 28.1107C77.7955 20.0693 91.8803 14.3556 107.352 11.534C118.079 9.55889 128.807 8.92404 139.535 9.69997C153.693 10.7581 167.266 14.5672 180.257 20.422C195.436 27.2643 208.426 36.8576 219.446 48.8493C232.509 63.0277 241.12 79.6045 245.937 98.0153C246.083 98.5796 245.937 99.1439 245.937 99.7082L246.01 99.7787Z" fill="#F16A95"/>
<path d="M21.8945 75.5132C22.0405 76.2891 21.6756 76.7124 20.9458 76.924C21.3107 76.5007 21.0918 75.6543 21.8945 75.5132Z" fill="#A5ABB7"/>
<path d="M22.6242 74.1025C22.7702 74.8079 22.6242 75.3017 21.8945 75.5133C22.0404 74.949 21.8215 74.2436 22.6242 74.1025Z" fill="#A5ABB7"/>
</svg>
